Onest-Bold.ufo
<glyph name="exclam" format="2">
  <advance width="304"/>
  <unicode hex="0021"/>
  <outline>
    <contour>
      <point x="152" y="162" type="curve" smooth="yes"/>
      <point x="207" y="162"/>
      <point x="239" y="127"/>
      <point x="239" y="75" type="curve" smooth="yes"/>
      <point x="239" y="23"/>
      <point x="205" y="-9"/>
      <point x="152" y="-9" type="curve" smooth="yes"/>
      <point x="99" y="-9"/>
      <point x="65" y="22"/>
      <point x="65" y="75" type="curve" smooth="yes"/>
      <point x="65" y="127"/>
      <point x="99" y="162"/>
    </contour>
    <contour>
      <point x="213" y="230" type="line"/>
      <point x="91" y="230" type="line"/>
      <point x="78" y="708" type="line"/>
      <point x="226" y="708" type="line"/>
    </contour>
  </outline>
</glyph>
<glyph name="quotedbl" format="2">
  <advance width="415"/>
  <unicode hex="0022"/>
  <outline>
    <contour>
      <point x="168" y="440" type="line"/>
      <point x="60" y="440" type="line"/>
      <point x="47" y="708" type="line"/>
      <point x="181" y="708" type="line"/>
    </contour>
    <contour>
      <point x="354" y="440" type="line"/>
      <point x="246" y="440" type="line"/>
      <point x="232" y="708" type="line"/>
      <point x="368" y="708" type="line"/>
    </contour>
  </outline>
</glyph>
<glyph name="numbersign" format="2">
  <advance width="660"/>
  <unicode hex="0023"/>
  <outline>
    <contour>
      <point x="518" y="535" type="line"/>
      <point x="613" y="535" type="line"/>
      <point x="613" y="419" type="line"/>
      <point x="505" y="419" type="line"/>
      <point x="489" y="288" type="line"/>
      <point x="584" y="288" type="line"/>
      <point x="584" y="172" type="line"/>
      <point x="476" y="172" type="line"/>
      <point x="455" y="0" type="line"/>
      <point x="340" y="0" type="line"/>
      <point x="360" y="172" type="line"/>
      <point x="258" y="172" type="line"/>
      <point x="238" y="0" type="line"/>
      <point x="121" y="0" type="line"/>
      <point x="142" y="172" type="line"/>
      <point x="47" y="172" type="line"/>
      <point x="47" y="288" type="line"/>
      <point x="155" y="288" type="line"/>
      <point x="171" y="419" type="line"/>
      <point x="76" y="419" type="line"/>
      <point x="76" y="535" type="line"/>
      <point x="185" y="535" type="line"/>
      <point x="205" y="708" type="line"/>
      <point x="320" y="708" type="line"/>
      <point x="300" y="535" type="line"/>
      <point x="402" y="535" type="line"/>
      <point x="422" y="708" type="line"/>
      <point x="538" y="708" type="line"/>
    </contour>
    <contour>
      <point x="374" y="288" type="line"/>
      <point x="388" y="419" type="line"/>
      <point x="286" y="419" type="line"/>
      <point x="272" y="288" type="line"/>
    </contour>
  </outline>
</glyph>
<glyph name="dollar" format="2">
  <advance width="669"/>
  <unicode hex="0024"/>
  <outline>
    <contour>
      <point x="471" y="489" type="line"/>
      <point x="463" y="569"/>
      <point x="400" y="590"/>
      <point x="333" y="590" type="curve" smooth="yes"/>
      <point x="282" y="590"/>
      <point x="212" y="576"/>
      <point x="212" y="514" type="curve" smooth="yes"/>
      <point x="212" y="473"/>
      <point x="238" y="453"/>
      <point x="269" y="441" type="curve" smooth="yes"/>
      <point x="308" y="425"/>
      <point x="353" y="418"/>
      <point x="394" y="411" type="curve" smooth="yes"/>
      <point x="453" y="400"/>
      <point x="512" y="391"/>
      <point x="554" y="359" type="curve" smooth="yes"/>
      <point x="595" y="329"/>
      <point x="620" y="284"/>
      <point x="620" y="212" type="curve" smooth="yes"/>
      <point x="621" y="131"/>
      <point x="585" y="74"/>
      <point x="537" y="41" type="curve" smooth="yes"/>
      <point x="496" y="14"/>
      <point x="448" y="-1"/>
      <point x="393" y="-6" type="curve"/>
      <point x="393" y="-136" type="line"/>
      <point x="265" y="-136" type="line"/>
      <point x="265" y="-1" type="line"/>
      <point x="229" y="5"/>
      <point x="196" y="15"/>
      <point x="165" y="32" type="curve" smooth="yes"/>
      <point x="89" y="74"/>
      <point x="47" y="143"/>
      <point x="47" y="235" type="curve"/>
      <point x="188" y="235" type="line"/>
      <point x="196" y="155"/>
      <point x="277" y="126"/>
      <point x="344" y="126" type="curve" smooth="yes"/>
      <point x="405" y="126"/>
      <point x="480" y="136"/>
      <point x="479" y="209" type="curve" smooth="yes"/>
      <point x="479" y="245"/>
      <point x="453" y="261"/>
      <point x="425" y="269" type="curve" smooth="yes"/>
      <point x="384" y="281"/>
      <point x="341" y="284"/>
      <point x="298" y="294" type="curve" smooth="yes"/>
      <point x="245" y="307"/>
      <point x="184" y="322"/>
      <point x="139" y="356" type="curve" smooth="yes"/>
      <point x="90" y="393"/>
      <point x="69" y="447"/>
      <point x="69" y="515" type="curve" smooth="yes"/>
      <point x="69" y="635"/>
      <point x="169" y="696"/>
      <point x="268" y="712" type="curve"/>
      <point x="268" y="849" type="line"/>
      <point x="396" y="849" type="line"/>
      <point x="396" y="712" type="line"/>
      <point x="521" y="697"/>
      <point x="600" y="617"/>
      <point x="607" y="489" type="curve"/>
    </contour>
  </outline>
</glyph>
<glyph name="percent" format="2">
  <advance width="862"/>
  <unicode hex="0025"/>
  <outline>
    <contour>
      <point x="643" y="-15" type="curve" smooth="yes"/>
      <point x="532" y="-15"/>
      <point x="472" y="62"/>
      <point x="472" y="158" type="curve" smooth="yes"/>
      <point x="472" y="259"/>
      <point x="533" y="332"/>
      <point x="643" y="332" type="curve" smooth="yes"/>
      <point x="754" y="332"/>
      <point x="815" y="259"/>
      <point x="815" y="158" type="curve" smooth="yes"/>
      <point x="815" y="62"/>
      <point x="754" y="-15"/>
    </contour>
    <contour>
      <point x="219" y="377" type="curve" smooth="yes"/>
      <point x="107" y="377"/>
      <point x="47" y="454"/>
      <point x="47" y="550" type="curve" smooth="yes"/>
      <point x="47" y="650"/>
      <point x="108" y="723"/>
      <point x="219" y="723" type="curve" smooth="yes"/>
      <point x="329" y="723"/>
      <point x="389" y="650"/>
      <point x="389" y="550" type="curve" smooth="yes"/>
      <point x="389" y="454"/>
      <point x="329" y="377"/>
    </contour>
    <contour>
      <point x="131" y="0" type="line"/>
      <point x="585" y="708" type="line"/>
      <point x="724" y="708" type="line"/>
      <point x="271" y="0" type="line"/>
    </contour>
    <contour>
      <point x="219" y="620" type="curve" smooth="yes"/>
      <point x="172" y="620"/>
      <point x="157" y="587"/>
      <point x="157" y="550" type="curve" smooth="yes"/>
      <point x="157" y="511"/>
      <point x="172" y="480"/>
      <point x="219" y="480" type="curve" smooth="yes"/>
      <point x="264" y="480"/>
      <point x="278" y="513"/>
      <point x="278" y="550" type="curve" smooth="yes"/>
      <point x="278" y="587"/>
      <point x="264" y="620"/>
    </contour>
    <contour>
      <point x="643" y="229" type="curve" smooth="yes"/>
      <point x="600" y="229"/>
      <point x="582" y="197"/>
      <point x="582" y="158" type="curve" smooth="yes"/>
      <point x="582" y="119"/>
      <point x="598" y="88"/>
      <point x="643" y="88" type="curve" smooth="yes"/>
      <point x="690" y="88"/>
      <point x="703" y="121"/>
      <point x="703" y="158" type="curve" smooth="yes"/>
      <point x="703" y="197"/>
      <point x="690" y="229"/>
    </contour>
  </outline>
</glyph>
<glyph name="ampersand" format="2">
  <advance width="706"/>
  <unicode hex="0026"/>
  <outline>
    <contour>
      <point x="522" y="0" type="line"/>
      <point x="477" y="48" type="line"/>
      <point x="426" y="5"/>
      <point x="363" y="-17"/>
      <point x="276" y="-16" type="curve" smooth="yes"/>
      <point x="212" y="-16"/>
      <point x="153" y="5"/>
      <point x="113" y="42" type="curve" smooth="yes"/>
      <point x="76" y="77"/>
      <point x="55" y="124"/>
      <point x="55" y="184" type="curve" smooth="yes"/>
      <point x="56" y="279"/>
      <point x="110" y="336"/>
      <point x="177" y="375" type="curve"/>
      <point x="137" y="418"/>
      <point x="109" y="466"/>
      <point x="109" y="523" type="curve" smooth="yes"/>
      <point x="109" y="651"/>
      <point x="202" y="711"/>
      <point x="319" y="711" type="curve" smooth="yes"/>
      <point x="415" y="711"/>
      <point x="508" y="648"/>
      <point x="508" y="546" type="curve" smooth="yes"/>
      <point x="508" y="458"/>
      <point x="439" y="397"/>
      <point x="370" y="354" type="curve"/>
      <point x="481" y="230" type="line"/>
      <point x="496" y="267"/>
      <point x="504" y="301"/>
      <point x="506" y="332" type="curve"/>
      <point x="630" y="332" type="line"/>
      <point x="626" y="276"/>
      <point x="608" y="206"/>
      <point x="565" y="141" type="curve"/>
      <point x="694" y="0" type="line"/>
    </contour>
    <contour>
      <point x="254" y="291" type="line"/>
      <point x="211" y="266"/>
      <point x="178" y="232"/>
      <point x="182" y="185" type="curve" smooth="yes"/>
      <point x="187" y="128"/>
      <point x="234" y="101"/>
      <point x="287" y="101" type="curve" smooth="yes"/>
      <point x="334" y="101"/>
      <point x="372" y="115"/>
      <point x="400" y="132" type="curve"/>
    </contour>
    <contour>
      <point x="289" y="433" type="curve"/>
      <point x="322" y="452"/>
      <point x="380" y="492"/>
      <point x="380" y="534" type="curve" smooth="yes"/>
      <point x="380" y="577"/>
      <point x="344" y="599"/>
      <point x="305" y="599" type="curve" smooth="yes"/>
      <point x="264" y="599"/>
      <point x="233" y="575"/>
      <point x="232" y="530" type="curve" smooth="yes"/>
      <point x="232" y="489"/>
      <point x="262" y="462"/>
    </contour>
  </outline>
</glyph>
<glyph name="quotesingle" format="2">
  <advance width="245"/>
  <unicode hex="0027"/>
  <outline>
    <contour>
      <point x="176" y="440" type="line"/>
      <point x="68" y="440" type="line"/>
      <point x="55" y="708" type="line"/>
      <point x="190" y="708" type="line"/>
    </contour>
  </outline>
</glyph>
<glyph name="parenleft" format="2">
  <advance width="336"/>
  <unicode hex="0028"/>
  <outline>
    <contour>
      <point x="53" y="307" type="curve" smooth="yes"/>
      <point x="53" y="486"/>
      <point x="107" y="664"/>
      <point x="215" y="809" type="curve"/>
      <point x="378" y="809" type="line"/>
      <point x="312" y="738"/>
      <point x="273" y="657"/>
      <point x="243" y="570" type="curve" smooth="yes"/>
      <point x="213" y="483"/>
      <point x="195" y="394"/>
      <point x="196" y="307" type="curve" smooth="yes"/>
      <point x="196" y="221"/>
      <point x="213" y="130"/>
      <point x="243" y="44" type="curve" smooth="yes"/>
      <point x="273" y="-43"/>
      <point x="311" y="-124"/>
      <point x="378" y="-195" type="curve"/>
      <point x="215" y="-195" type="line"/>
      <point x="107" y="-50"/>
      <point x="53" y="128"/>
    </contour>
  </outline>
</glyph>
<glyph name="parenright" format="2">
  <advance width="336"/>
  <unicode hex="0029"/>
  <outline>
    <contour>
      <point x="283" y="307" type="curve" smooth="yes"/>
      <point x="283" y="128"/>
      <point x="229" y="-50"/>
      <point x="121" y="-195" type="curve"/>
      <point x="-42" y="-195" type="line"/>
      <point x="25" y="-124"/>
      <point x="64" y="-42"/>
      <point x="94" y="44" type="curve" smooth="yes"/>
      <point x="124" y="130"/>
      <point x="140" y="220"/>
      <point x="140" y="307" type="curve" smooth="yes"/>
      <point x="141" y="394"/>
      <point x="124" y="483"/>
      <point x="94" y="570" type="curve" smooth="yes"/>
      <point x="64" y="657"/>
      <point x="25" y="738"/>
      <point x="-42" y="809" type="curve"/>
      <point x="121" y="809" type="line"/>
      <point x="229" y="664"/>
      <point x="283" y="486"/>
    </contour>
  </outline>
</glyph>
<glyph name="asterisk" format="2">
  <advance width="467"/>
  <unicode hex="002A"/>
  <outline>
    <contour>
      <point x="184" y="728" type="line"/>
      <point x="283" y="728" type="line"/>
      <point x="283" y="629" type="line"/>
      <point x="379" y="660" type="line"/>
      <point x="410" y="565" type="line"/>
      <point x="314" y="534" type="line"/>
      <point x="373" y="452" type="line"/>
      <point x="292" y="394" type="line"/>
      <point x="233" y="474" type="line"/>
      <point x="175" y="394" type="line"/>
      <point x="93" y="452" type="line"/>
      <point x="153" y="534" type="line"/>
      <point x="57" y="565" type="line"/>
      <point x="88" y="660" type="line"/>
      <point x="184" y="629" type="line"/>
    </contour>
  </outline>
</glyph>
<glyph name="plus" format="2">
  <advance width="603"/>
  <unicode hex="002B"/>
  <outline>
    <contour>
      <point x="360" y="302" type="line"/>
      <point x="360" y="121" type="line"/>
      <point x="243" y="121" type="line"/>
      <point x="243" y="302" type="line"/>
      <point x="62" y="302" type="line"/>
      <point x="62" y="420" type="line"/>
      <point x="243" y="420" type="line"/>
      <point x="243" y="600" type="line"/>
      <point x="360" y="600" type="line"/>
      <point x="360" y="420" type="line"/>
      <point x="541" y="420" type="line"/>
      <point x="541" y="302" type="line"/>
    </contour>
  </outline>
</glyph>
<glyph name="comma" format="2">
  <advance width="302"/>
  <unicode hex="002C"/>
  <outline>
    <contour>
      <point x="138" y="-12" type="curve"/>
      <point x="93" y="-9"/>
      <point x="58" y="22"/>
      <point x="58" y="73" type="curve" smooth="yes"/>
      <point x="58" y="129"/>
      <point x="101" y="159"/>
      <point x="150" y="159" type="curve" smooth="yes"/>
      <point x="218" y="159"/>
      <point x="247" y="102"/>
      <point x="247" y="36" type="curve" smooth="yes"/>
      <point x="247" y="-56"/>
      <point x="170" y="-150"/>
      <point x="91" y="-176" type="curve"/>
      <point x="55" y="-126" type="line"/>
      <point x="92" y="-101"/>
      <point x="126" y="-63"/>
    </contour>
  </outline>
</glyph>
<glyph name="hyphen" format="2">
  <advance width="453"/>
  <unicode hex="002D"/>
  <outline>
    <contour>
      <point x="391" y="232" type="line"/>
      <point x="62" y="232" type="line"/>
      <point x="62" y="350" type="line"/>
      <point x="391" y="350" type="line"/>
    </contour>
  </outline>
</glyph>
<glyph name="period" format="2">
  <advance width="283"/>
  <unicode hex="002E"/>
  <outline>
    <contour>
      <point x="142" y="166" type="curve" smooth="yes"/>
      <point x="193" y="166"/>
      <point x="228" y="134"/>
      <point x="228" y="78" type="curve" smooth="yes"/>
      <point x="228" y="22"/>
      <point x="193" y="-8"/>
      <point x="142" y="-8" type="curve" smooth="yes"/>
      <point x="91" y="-8"/>
      <point x="55" y="22"/>
      <point x="55" y="78" type="curve" smooth="yes"/>
      <point x="55" y="134"/>
      <point x="91" y="166"/>
    </contour>
  </outline>
</glyph>
<glyph name="slash" format="2">
  <advance width="491"/>
  <unicode hex="002F"/>
  <outline>
    <contour>
      <point x="27" y="-171" type="line"/>
      <point x="329" y="784" type="line"/>
      <point x="464" y="784" type="line"/>
      <point x="162" y="-171" type="line"/>
    </contour>
  </outline>
</glyph>
<glyph name="zero" format="2">
  <advance width="645"/>
  <unicode hex="0030"/>
  <outline>
    <contour>
      <point x="323" y="123" type="curve" smooth="yes"/>
      <point x="408" y="123"/>
      <point x="459" y="189"/>
      <point x="459" y="356" type="curve" smooth="yes"/>
      <point x="459" y="521"/>
      <point x="408" y="589"/>
      <point x="323" y="589" type="curve" smooth="yes"/>
      <point x="236" y="589"/>
      <point x="187" y="521"/>
      <point x="187" y="356" type="curve" smooth="yes"/>
      <point x="187" y="189"/>
      <point x="236" y="123"/>
    </contour>
    <contour>
      <point x="323" y="717" type="curve" smooth="yes"/>
      <point x="487" y="717"/>
      <point x="601" y="607"/>
      <point x="601" y="356" type="curve" smooth="yes"/>
      <point x="601" y="104"/>
      <point x="491" y="-5"/>
      <point x="323" y="-5" type="curve" smooth="yes"/>
      <point x="154" y="-5"/>
      <point x="45" y="104"/>
      <point x="45" y="356" type="curve" smooth="yes"/>
      <point x="45" y="607"/>
      <point x="158" y="717"/>
    </contour>
  </outline>
</glyph>
<glyph name="one" format="2">
  <advance width="398"/>
  <unicode hex="0031"/>
  <outline>
    <contour>
      <point x="303" y="0" type="line"/>
      <point x="157" y="0" type="line"/>
      <point x="157" y="521" type="line"/>
      <point x="13" y="521" type="line"/>
      <point x="13" y="621" type="line"/>
      <point x="56" y="621"/>
      <point x="92" y="628"/>
      <point x="124" y="644" type="curve"/>
      <point x="152" y="659"/>
      <point x="179" y="681"/>
      <point x="194" y="708" type="curve"/>
      <point x="303" y="708" type="line"/>
    </contour>
  </outline>
</glyph>
<glyph name="two" format="2">
  <advance width="545"/>
  <unicode hex="0032"/>
  <outline>
    <contour>
      <point x="213" y="282" type="line" smooth="yes"/>
      <point x="245" y="309"/>
      <point x="277" y="340"/>
      <point x="309" y="373" type="curve" smooth="yes"/>
      <point x="340" y="404"/>
      <point x="366" y="439"/>
      <point x="366" y="483" type="curve" smooth="yes"/>
      <point x="366" y="554"/>
      <point x="325" y="587"/>
      <point x="258" y="587" type="curve" smooth="yes"/>
      <point x="198" y="587"/>
      <point x="160" y="559"/>
      <point x="153" y="508" type="curve"/>
      <point x="18" y="508" type="line"/>
      <point x="21" y="587"/>
      <point x="58" y="645"/>
      <point x="117" y="680" type="curve" smooth="yes"/>
      <point x="160" y="705"/>
      <point x="211" y="716"/>
      <point x="267" y="716" type="curve"/>
      <point x="342" y="717"/>
      <point x="402" y="697"/>
      <point x="445" y="656" type="curve" smooth="yes"/>
      <point x="482" y="621"/>
      <point x="507" y="570"/>
      <point x="507" y="501" type="curve" smooth="yes"/>
      <point x="507" y="450"/>
      <point x="496" y="405"/>
      <point x="472" y="366" type="curve" smooth="yes"/>
      <point x="438" y="311"/>
      <point x="406" y="284"/>
      <point x="356" y="240" type="curve" smooth="yes"/>
      <point x="307" y="197"/>
      <point x="262" y="163"/>
      <point x="222" y="128" type="curve"/>
      <point x="499" y="128" type="line"/>
      <point x="499" y="0" type="line"/>
      <point x="23" y="0" type="line"/>
      <point x="23" y="118" type="line"/>
    </contour>
  </outline>
</glyph>
<glyph name="three" format="2">
  <advance width="605"/>
  <unicode hex="0033"/>
  <outline>
    <contour>
      <point x="41" y="508" type="line"/>
      <point x="54" y="649"/>
      <point x="151" y="717"/>
      <point x="298" y="717" type="curve" smooth="yes"/>
      <point x="413" y="717"/>
      <point x="532" y="670"/>
      <point x="532" y="530" type="curve" smooth="yes"/>
      <point x="532" y="471"/>
      <point x="502" y="414"/>
      <point x="446" y="383" type="curve"/>
      <point x="527" y="356"/>
      <point x="559" y="290"/>
      <point x="559" y="206" type="curve" smooth="yes"/>
      <point x="559" y="56"/>
      <point x="429" y="-7"/>
      <point x="294" y="-7" type="curve" smooth="yes"/>
      <point x="143" y="-7"/>
      <point x="42" y="58"/>
      <point x="21" y="206" type="curve"/>
      <point x="164" y="206" type="line"/>
      <point x="183" y="139"/>
      <point x="239" y="123"/>
      <point x="294" y="123" type="curve" smooth="yes"/>
      <point x="358" y="123"/>
      <point x="416" y="147"/>
      <point x="416" y="219" type="curve" smooth="yes"/>
      <point x="416" y="246"/>
      <point x="404" y="269"/>
      <point x="385" y="281" type="curve" smooth="yes"/>
      <point x="361" y="296"/>
      <point x="332" y="300"/>
      <point x="301" y="300" type="curve" smooth="yes"/>
      <point x="230" y="300" type="line"/>
      <point x="230" y="418" type="line"/>
      <point x="278" y="418" type="line" smooth="yes"/>
      <point x="313" y="418"/>
      <point x="341" y="425"/>
      <point x="363" y="445" type="curve"/>
      <point x="380" y="459"/>
      <point x="391" y="478"/>
      <point x="391" y="505" type="curve" smooth="yes"/>
      <point x="391" y="570"/>
      <point x="345" y="589"/>
      <point x="288" y="589" type="curve" smooth="yes"/>
      <point x="237" y="589"/>
      <point x="195" y="564"/>
      <point x="183" y="508" type="curve"/>
    </contour>
  </outline>
</glyph>
<glyph name="four" format="2">
  <advance width="623"/>
  <unicode hex="0034"/>
  <outline>
    <contour>
      <point x="518" y="257" type="line"/>
      <point x="598" y="257" type="line"/>
      <point x="598" y="132" type="line"/>
      <point x="518" y="132" type="line"/>
      <point x="518" y="0" type="line"/>
      <point x="376" y="0" type="line"/>
      <point x="376" y="132" type="line"/>
      <point x="30" y="132" type="line"/>
      <point x="30" y="233" type="line"/>
      <point x="346" y="708" type="line"/>
      <point x="518" y="708" type="line"/>
    </contour>
    <contour>
      <point x="195" y="257" type="line"/>
      <point x="376" y="257" type="line"/>
      <point x="376" y="541" type="line"/>
    </contour>
  </outline>
</glyph>
<glyph name="five" format="2">
  <advance width="608"/>
  <unicode hex="0035"/>
  <outline>
    <contour>
      <point x="60" y="304" type="line"/>
      <point x="105" y="708" type="line"/>
      <point x="535" y="708" type="line"/>
      <point x="535" y="582" type="line"/>
      <point x="222" y="582" type="line"/>
      <point x="202" y="436" type="line"/>
      <point x="247" y="459"/>
      <point x="284" y="468"/>
      <point x="337" y="467" type="curve" smooth="yes"/>
      <point x="477" y="464"/>
      <point x="566" y="377"/>
      <point x="566" y="239" type="curve" smooth="yes"/>
      <point x="566" y="162"/>
      <point x="538" y="100"/>
      <point x="491" y="57" type="curve" smooth="yes"/>
      <point x="442" y="14"/>
      <point x="381" y="-7"/>
      <point x="301" y="-7" type="curve" smooth="yes"/>
      <point x="156" y="-7"/>
      <point x="66" y="55"/>
      <point x="50" y="206" type="curve"/>
      <point x="193" y="206" type="line"/>
      <point x="205" y="149"/>
      <point x="249" y="125"/>
      <point x="298" y="123" type="curve" smooth="yes"/>
      <point x="369" y="119"/>
      <point x="419" y="156"/>
      <point x="420" y="233" type="curve" smooth="yes"/>
      <point x="421" y="309"/>
      <point x="370" y="349"/>
      <point x="301" y="346" type="curve" smooth="yes"/>
      <point x="260" y="345"/>
      <point x="224" y="329"/>
      <point x="197" y="304" type="curve"/>
    </contour>
  </outline>
</glyph>
<glyph name="six" format="2">
  <advance width="615"/>
  <unicode hex="0036"/>
  <outline>
    <contour>
      <point x="316" y="122" type="curve" smooth="yes"/>
      <point x="381" y="122"/>
      <point x="429" y="166"/>
      <point x="429" y="227" type="curve" smooth="yes"/>
      <point x="429" y="299"/>
      <point x="386" y="338"/>
      <point x="317" y="338" type="curve" smooth="yes"/>
      <point x="259" y="338"/>
      <point x="212" y="301"/>
      <point x="207" y="241" type="curve" smooth="yes"/>
      <point x="202" y="180"/>
      <point x="246" y="122"/>
    </contour>
    <contour>
      <point x="432" y="520" type="line"/>
      <point x="420" y="569"/>
      <point x="383" y="588"/>
      <point x="332" y="588" type="curve" smooth="yes"/>
      <point x="230" y="588"/>
      <point x="180" y="489"/>
      <point x="183" y="398" type="curve"/>
      <point x="226" y="441"/>
      <point x="283" y="462"/>
      <point x="343" y="462" type="curve"/>
      <point x="488" y="461"/>
      <point x="571" y="375"/>
      <point x="572" y="232" type="curve" smooth="yes"/>
      <point x="572" y="160"/>
      <point x="539" y="96"/>
      <point x="494" y="56" type="curve" smooth="yes"/>
      <point x="447" y="15"/>
      <point x="385" y="-5"/>
      <point x="313" y="-5" type="curve" smooth="yes"/>
      <point x="118" y="-4"/>
      <point x="47" y="168"/>
      <point x="47" y="338" type="curve" smooth="yes"/>
      <point x="47" y="438"/>
      <point x="67" y="544"/>
      <point x="131" y="623" type="curve" smooth="yes"/>
      <point x="176" y="678"/>
      <point x="244" y="716"/>
      <point x="333" y="716" type="curve" smooth="yes"/>
      <point x="401" y="716"/>
      <point x="456" y="701"/>
      <point x="499" y="665" type="curve" smooth="yes"/>
      <point x="539" y="633"/>
      <point x="566" y="585"/>
      <point x="573" y="520" type="curve"/>
    </contour>
  </outline>
</glyph>
<glyph name="seven" format="2">
  <advance width="504"/>
  <unicode hex="0037"/>
  <outline>
    <contour>
      <point x="68" y="0" type="line"/>
      <point x="328" y="579" type="line"/>
      <point x="0" y="579" type="line"/>
      <point x="0" y="708" type="line"/>
      <point x="493" y="708" type="line"/>
      <point x="493" y="600" type="line"/>
      <point x="230" y="0" type="line"/>
    </contour>
  </outline>
</glyph>
<glyph name="eight" format="2">
  <advance width="618"/>
  <unicode hex="0038"/>
  <outline>
    <contour>
      <point x="572" y="199" type="curve" smooth="yes"/>
      <point x="572" y="54"/>
      <point x="442" y="-8"/>
      <point x="310" y="-8" type="curve" smooth="yes"/>
      <point x="178" y="-8"/>
      <point x="46" y="54"/>
      <point x="46" y="199" type="curve" smooth="yes"/>
      <point x="46" y="282"/>
      <point x="76" y="349"/>
      <point x="159" y="380" type="curve"/>
      <point x="102" y="409"/>
      <point x="72" y="468"/>
      <point x="72" y="525" type="curve" smooth="yes"/>
      <point x="72" y="664"/>
      <point x="185" y="717"/>
      <point x="311" y="717" type="curve" smooth="yes"/>
      <point x="436" y="717"/>
      <point x="546" y="662"/>
      <point x="546" y="525" type="curve" smooth="yes"/>
      <point x="546" y="468"/>
      <point x="515" y="409"/>
      <point x="459" y="380" type="curve"/>
      <point x="542" y="349"/>
      <point x="572" y="282"/>
    </contour>
    <contour>
      <point x="309" y="593" type="curve" smooth="yes"/>
      <point x="256" y="593"/>
      <point x="212" y="567"/>
      <point x="212" y="507" type="curve"/>
      <point x="213" y="447"/>
      <point x="253" y="419"/>
      <point x="309" y="419" type="curve" smooth="yes"/>
      <point x="365" y="419"/>
      <point x="404" y="447"/>
      <point x="405" y="507" type="curve"/>
      <point x="405" y="567"/>
      <point x="362" y="593"/>
    </contour>
    <contour>
      <point x="428" y="214" type="curve" smooth="yes"/>
      <point x="428" y="284"/>
      <point x="369" y="311"/>
      <point x="308" y="311" type="curve" smooth="yes"/>
      <point x="249" y="311"/>
      <point x="189" y="283"/>
      <point x="189" y="214" type="curve" smooth="yes"/>
      <point x="189" y="142"/>
      <point x="250" y="117"/>
      <point x="309" y="117" type="curve" smooth="yes"/>
      <point x="368" y="117"/>
      <point x="428" y="142"/>
    </contour>
  </outline>
</glyph>
<glyph name="nine" format="2">
  <advance width="615"/>
  <unicode hex="0039"/>
  <outline>
    <contour>
      <point x="296" y="587" type="curve" smooth="yes"/>
      <point x="231" y="587"/>
      <point x="185" y="545"/>
      <point x="185" y="482" type="curve" smooth="yes"/>
      <point x="185" y="410"/>
      <point x="232" y="371"/>
      <point x="298" y="371" type="curve" smooth="yes"/>
      <point x="358" y="371"/>
      <point x="408" y="414"/>
      <point x="408" y="472" type="curve" smooth="yes"/>
      <point x="408" y="531"/>
      <point x="367" y="587"/>
    </contour>
    <contour>
      <point x="188" y="189" type="line"/>
      <point x="200" y="141"/>
      <point x="247" y="121"/>
      <point x="294" y="121" type="curve" smooth="yes"/>
      <point x="345" y="121"/>
      <point x="379" y="144"/>
      <point x="403" y="178" type="curve" smooth="yes"/>
      <point x="429" y="216"/>
      <point x="437" y="275"/>
      <point x="434" y="311" type="curve"/>
      <point x="393" y="267"/>
      <point x="334" y="247"/>
      <point x="274" y="247" type="curve" smooth="yes"/>
      <point x="133" y="248"/>
      <point x="43" y="337"/>
      <point x="43" y="481" type="curve" smooth="yes"/>
      <point x="43" y="626"/>
      <point x="160" y="714"/>
      <point x="301" y="714" type="curve"/>
      <point x="389" y="713"/>
      <point x="453" y="676"/>
      <point x="496" y="620" type="curve" smooth="yes"/>
      <point x="548" y="553"/>
      <point x="570" y="461"/>
      <point x="570" y="368" type="curve" smooth="yes"/>
      <point x="570" y="285"/>
      <point x="561" y="203"/>
      <point x="527" y="135" type="curve" smooth="yes"/>
      <point x="485" y="52"/>
      <point x="414" y="-7"/>
      <point x="297" y="-7" type="curve" smooth="yes"/>
      <point x="229" y="-7"/>
      <point x="167" y="11"/>
      <point x="122" y="47" type="curve" smooth="yes"/>
      <point x="83" y="79"/>
      <point x="54" y="125"/>
      <point x="46" y="189" type="curve"/>
    </contour>
  </outline>
</glyph>
<glyph name="colon" format="2">
  <advance width="284"/>
  <unicode hex="003A"/>
  <outline>
    <contour>
      <point x="142" y="165" type="curve" smooth="yes"/>
      <point x="197" y="165"/>
      <point x="229" y="130"/>
      <point x="229" y="77" type="curve" smooth="yes"/>
      <point x="229" y="22"/>
      <point x="195" y="-9"/>
      <point x="142" y="-9" type="curve" smooth="yes"/>
      <point x="89" y="-9"/>
      <point x="55" y="21"/>
      <point x="55" y="77" type="curve" smooth="yes"/>
      <point x="55" y="130"/>
      <point x="89" y="165"/>
    </contour>
    <contour>
      <point x="142" y="525" type="curve" smooth="yes"/>
      <point x="197" y="525"/>
      <point x="229" y="489"/>
      <point x="229" y="436" type="curve" smooth="yes"/>
      <point x="229" y="381"/>
      <point x="195" y="350"/>
      <point x="142" y="350" type="curve" smooth="yes"/>
      <point x="89" y="350"/>
      <point x="55" y="380"/>
      <point x="55" y="436" type="curve" smooth="yes"/>
      <point x="55" y="489"/>
      <point x="89" y="525"/>
    </contour>
  </outline>
</glyph>
<glyph name="semicolon" format="2">
  <advance width="303"/>
  <unicode hex="003B"/>
  <outline>
    <contour>
      <point x="137" y="-10" type="curve"/>
      <point x="89" y="-7"/>
      <point x="58" y="26"/>
      <point x="58" y="75" type="curve" smooth="yes"/>
      <point x="58" y="131"/>
      <point x="98" y="161"/>
      <point x="150" y="161" type="curve" smooth="yes"/>
      <point x="221" y="161"/>
      <point x="248" y="103"/>
      <point x="248" y="42" type="curve" smooth="yes"/>
      <point x="248" y="-48"/>
      <point x="176" y="-146"/>
      <point x="91" y="-175" type="curve"/>
      <point x="55" y="-125" type="line"/>
      <point x="95" y="-97"/>
      <point x="126" y="-58"/>
    </contour>
    <contour>
      <point x="152" y="525" type="curve" smooth="yes"/>
      <point x="205" y="525"/>
      <point x="238" y="489"/>
      <point x="238" y="436" type="curve" smooth="yes"/>
      <point x="238" y="381"/>
      <point x="204" y="350"/>
      <point x="152" y="350" type="curve" smooth="yes"/>
      <point x="97" y="350"/>
      <point x="64" y="380"/>
      <point x="64" y="436" type="curve" smooth="yes"/>
      <point x="64" y="489"/>
      <point x="97" y="525"/>
    </contour>
  </outline>
</glyph>
<glyph name="less" format="2">
  <advance width="485"/>
  <unicode hex="003C"/>
  <outline>
    <contour>
      <point x="428" y="503" type="line"/>
      <point x="193" y="363" type="line"/>
      <point x="428" y="220" type="line"/>
      <point x="428" y="81" type="line"/>
      <point x="27" y="325" type="line"/>
      <point x="27" y="392" type="line"/>
      <point x="428" y="640" type="line"/>
    </contour>
  </outline>
</glyph>
<glyph name="equal" format="2">
  <advance width="563"/>
  <unicode hex="003D"/>
  <outline>
    <contour>
      <point x="57" y="428" type="line"/>
      <point x="57" y="546" type="line"/>
      <point x="506" y="546" type="line"/>
      <point x="506" y="428" type="line"/>
    </contour>
    <contour>
      <point x="57" y="176" type="line"/>
      <point x="57" y="294" type="line"/>
      <point x="506" y="294" type="line"/>
      <point x="506" y="176" type="line"/>
    </contour>
  </outline>
</glyph>
<glyph name="greater" format="2">
  <advance width="485"/>
  <unicode hex="003E"/>
  <outline>
    <contour>
      <point x="57" y="218" type="line"/>
      <point x="292" y="359" type="line"/>
      <point x="57" y="501" type="line"/>
      <point x="57" y="640" type="line"/>
      <point x="458" y="397" type="line"/>
      <point x="458" y="330" type="line"/>
      <point x="57" y="81" type="line"/>
    </contour>
  </outline>
</glyph>
<glyph name="question" format="2">
  <advance width="529"/>
  <unicode hex="003F"/>
  <outline>
    <contour>
      <point x="255" y="162" type="curve" smooth="yes"/>
      <point x="310" y="162"/>
      <point x="342" y="127"/>
      <point x="342" y="75" type="curve" smooth="yes"/>
      <point x="342" y="23"/>
      <point x="310" y="-9"/>
      <point x="255" y="-9" type="curve" smooth="yes"/>
      <point x="200" y="-9"/>
      <point x="167" y="22"/>
      <point x="167" y="75" type="curve" smooth="yes"/>
      <point x="167" y="127"/>
      <point x="200" y="162"/>
    </contour>
    <contour>
      <point x="187" y="223" type="line"/>
      <point x="174" y="304"/>
      <point x="203" y="338"/>
      <point x="240" y="378" type="curve" smooth="yes"/>
      <point x="280" y="421"/>
      <point x="344" y="462"/>
      <point x="344" y="518" type="curve" smooth="yes"/>
      <point x="344" y="566"/>
      <point x="310" y="589"/>
      <point x="262" y="589" type="curve" smooth="yes"/>
      <point x="212" y="589"/>
      <point x="165" y="576"/>
      <point x="162" y="513" type="curve"/>
      <point x="26" y="513" type="line"/>
      <point x="25" y="573"/>
      <point x="51" y="633"/>
      <point x="99" y="669" type="curve" smooth="yes"/>
      <point x="135" y="696"/>
      <point x="182" y="716"/>
      <point x="262" y="717" type="curve"/>
      <point x="318" y="717"/>
      <point x="371" y="710"/>
      <point x="411" y="683" type="curve" smooth="yes"/>
      <point x="456" y="654"/>
      <point x="486" y="604"/>
      <point x="485" y="531" type="curve"/>
      <point x="485" y="476"/>
      <point x="466" y="437"/>
      <point x="429" y="398" type="curve" smooth="yes"/>
      <point x="378" y="343"/>
      <point x="313" y="302"/>
      <point x="316" y="223" type="curve"/>
    </contour>
  </outline>
</glyph>
<glyph name="at" format="2">
  <advance width="999"/>
  <unicode hex="0040"/>
  <outline>
    <contour>
      <point x="389" y="272" type="curve" smooth="yes"/>
      <point x="389" y="213"/>
      <point x="417" y="150"/>
      <point x="485" y="150" type="curve" smooth="yes"/>
      <point x="563" y="150"/>
      <point x="595" y="231"/>
      <point x="595" y="298" type="curve" smooth="yes"/>
      <point x="595" y="357"/>
      <point x="569" y="411"/>
      <point x="503" y="411" type="curve" smooth="yes"/>
      <point x="426" y="411"/>
      <point x="389" y="341"/>
    </contour>
    <contour>
      <point x="485" y="-168" type="curve" smooth="yes"/>
      <point x="230" y="-168"/>
      <point x="58" y="4"/>
      <point x="58" y="259" type="curve" smooth="yes"/>
      <point x="58" y="536"/>
      <point x="236" y="729"/>
      <point x="517" y="729" type="curve" smooth="yes"/>
      <point x="763" y="729"/>
      <point x="941" y="571"/>
      <point x="941" y="320" type="curve" smooth="yes"/>
      <point x="941" y="199"/>
      <point x="898" y="45"/>
      <point x="751" y="45" type="curve" smooth="yes"/>
      <point x="697" y="45"/>
      <point x="644" y="65"/>
      <point x="618" y="116" type="curve"/>
      <point x="582" y="72"/>
      <point x="528" y="51"/>
      <point x="472" y="51" type="curve" smooth="yes"/>
      <point x="352" y="51"/>
      <point x="279" y="150"/>
      <point x="279" y="263" type="curve" smooth="yes"/>
      <point x="279" y="395"/>
      <point x="358" y="511"/>
      <point x="500" y="511" type="curve" smooth="yes"/>
      <point x="547" y="511"/>
      <point x="606" y="495"/>
      <point x="629" y="449" type="curve"/>
      <point x="649" y="493" type="line"/>
      <point x="728" y="482" type="line"/>
      <point x="716" y="412"/>
      <point x="694" y="291"/>
      <point x="694" y="223" type="curve" smooth="yes"/>
      <point x="694" y="187"/>
      <point x="705" y="147"/>
      <point x="749" y="147" type="curve" smooth="yes"/>
      <point x="822" y="147"/>
      <point x="829" y="257"/>
      <point x="829" y="309" type="curve" smooth="yes"/>
      <point x="829" y="495"/>
      <point x="715" y="621"/>
      <point x="525" y="621" type="curve" smooth="yes"/>
      <point x="306" y="621"/>
      <point x="177" y="479"/>
      <point x="177" y="262" type="curve" smooth="yes"/>
      <point x="177" y="73"/>
      <point x="303" y="-54"/>
      <point x="492" y="-54" type="curve" smooth="yes"/>
      <point x="533" y="-54"/>
      <point x="572" y="-49"/>
      <point x="612" y="-41" type="curve"/>
      <point x="627" y="-152" type="line"/>
      <point x="581" y="-164"/>
      <point x="533" y="-168"/>
    </contour>
  </outline>
</glyph>
<glyph name="B" format="2">
  <advance width="682"/>
  <unicode hex="0042"/>
  <outline>
    <contour>
      <point x="74" y="0" type="line"/>
      <point x="74" y="708" type="line"/>
      <point x="388" y="708" type="line" smooth="yes"/>
      <point x="502" y="708"/>
      <point x="610" y="662"/>
      <point x="611" y="531" type="curve" smooth="yes"/>
      <point x="611" y="466"/>
      <point x="590" y="415"/>
      <point x="531" y="380" type="curve"/>
      <point x="614" y="356"/>
      <point x="644" y="290"/>
      <point x="644" y="211" type="curve" smooth="yes"/>
      <point x="644" y="145"/>
      <point x="608" y="81"/>
      <point x="557" y="47" type="curve" smooth="yes"/>
      <point x="497" y="7"/>
      <point x="422" y="0"/>
      <point x="351" y="0" type="curve" smooth="yes"/>
    </contour>
    <contour>
      <point x="347" y="421" type="line" smooth="yes"/>
      <point x="376" y="421"/>
      <point x="407" y="422"/>
      <point x="432" y="437" type="curve" smooth="yes"/>
      <point x="453" y="450"/>
      <point x="471" y="473"/>
      <point x="471" y="504" type="curve" smooth="yes"/>
      <point x="471" y="536"/>
      <point x="458" y="555"/>
      <point x="441" y="566" type="curve" smooth="yes"/>
      <point x="420" y="579"/>
      <point x="390" y="579"/>
      <point x="361" y="579" type="curve" smooth="yes"/>
      <point x="219" y="579" type="line"/>
      <point x="219" y="421" type="line"/>
    </contour>
    <contour>
      <point x="219" y="128" type="line"/>
      <point x="351" y="128" type="line" smooth="yes"/>
      <point x="390" y="128"/>
      <point x="437" y="129"/>
      <point x="468" y="152" type="curve"/>
      <point x="487" y="167"/>
      <point x="500" y="188"/>
      <point x="500" y="221" type="curve" smooth="yes"/>
      <point x="500" y="252"/>
      <point x="485" y="272"/>
      <point x="465" y="284" type="curve" smooth="yes"/>
      <point x="442" y="298"/>
      <point x="413" y="299"/>
      <point x="382" y="299" type="curve"/>
      <point x="219" y="299" type="line"/>
    </contour>
  </outline>
</glyph>
<glyph name="D" format="2">
  <advance width="728"/>
  <unicode hex="0044"/>
  <outline>
    <contour>
      <point x="75" y="0" type="line"/>
      <point x="75" y="708" type="line"/>
      <point x="336" y="708" type="line" smooth="yes"/>
      <point x="404" y="708"/>
      <point x="470" y="699"/>
      <point x="530" y="667" type="curve" smooth="yes"/>
      <point x="637" y="612"/>
      <point x="691" y="504"/>
      <point x="691" y="353" type="curve" smooth="yes"/>
      <point x="691" y="125"/>
      <point x="571" y="0"/>
      <point x="343" y="0" type="curve" smooth="yes"/>
    </contour>
    <contour>
      <point x="344" y="128" type="line" smooth="yes"/>
      <point x="381" y="128"/>
      <point x="434" y="138"/>
      <point x="460" y="155" type="curve" smooth="yes"/>
      <point x="515" y="191"/>
      <point x="542" y="264"/>
      <point x="542" y="353" type="curve" smooth="yes"/>
      <point x="542" y="424"/>
      <point x="526" y="482"/>
      <point x="493" y="522" type="curve" smooth="yes"/>
      <point x="456" y="566"/>
      <point x="392" y="579"/>
      <point x="336" y="579" type="curve" smooth="yes"/>
      <point x="220" y="579" type="line"/>
      <point x="220" y="128" type="line"/>
    </contour>
  </outline>
</glyph>
<glyph name="F" format="2">
  <advance width="594"/>
  <unicode hex="0046"/>
  <outline>
    <contour>
      <point x="569" y="708" type="line"/>
      <point x="569" y="579" type="line"/>
      <point x="220" y="579" type="line"/>
      <point x="220" y="396" type="line"/>
      <point x="513" y="396" type="line"/>
      <point x="513" y="269" type="line"/>
      <point x="220" y="269" type="line"/>
      <point x="220" y="0" type="line"/>
      <point x="75" y="0" type="line"/>
      <point x="75" y="708" type="line"/>
    </contour>
  </outline>
</glyph>
<glyph name="H" format="2">
  <advance width="753"/>
  <unicode hex="0048"/>
  <outline>
    <contour>
      <point x="220" y="414" type="line"/>
      <point x="533" y="414" type="line"/>
      <point x="533" y="708" type="line"/>
      <point x="678" y="708" type="line"/>
      <point x="678" y="0" type="line"/>
      <point x="533" y="0" type="line"/>
      <point x="533" y="285" type="line"/>
      <point x="220" y="285" type="line"/>
      <point x="220" y="0" type="line"/>
      <point x="75" y="0" type="line"/>
      <point x="75" y="708" type="line"/>
      <point x="220" y="708" type="line"/>
    </contour>
  </outline>
</glyph>
<glyph name="I" format="2">
  <advance width="295"/>
  <unicode hex="0049"/>
  <outline>
    <contour>
      <point x="220" y="0" type="line"/>
      <point x="75" y="0" type="line"/>
      <point x="75" y="708" type="line"/>
      <point x="220" y="708" type="line"/>
    </contour>
  </outline>
</glyph>
<glyph name="J" format="2">
  <advance width="592"/>
  <unicode hex="004A"/>
  <outline>
    <contour>
      <point x="522" y="254" type="line" smooth="yes"/>
      <point x="522" y="166"/>
      <point x="504" y="101"/>
      <point x="459" y="56" type="curve" smooth="yes"/>
      <point x="419" y="16"/>
      <point x="358" y="-6"/>
      <point x="275" y="-6" type="curve" smooth="yes"/>
      <point x="199" y="-6"/>
      <point x="136" y="15"/>
      <point x="94" y="58" type="curve" smooth="yes"/>
      <point x="52" y="100"/>
      <point x="28" y="161"/>
      <point x="31" y="238" type="curve"/>
      <point x="177" y="238" type="line"/>
      <point x="177" y="171"/>
      <point x="202" y="122"/>
      <point x="277" y="122" type="curve" smooth="yes"/>
      <point x="352" y="122"/>
      <point x="377" y="170"/>
      <point x="377" y="237" type="curve" smooth="yes"/>
      <point x="377" y="708" type="line"/>
      <point x="522" y="708" type="line"/>
    </contour>
  </outline>
</glyph>
<glyph name="L" format="2">
  <advance width="594"/>
  <unicode hex="004C"/>
  <outline>
    <contour>
      <point x="219" y="128" type="line"/>
      <point x="566" y="128" type="line"/>
      <point x="566" y="0" type="line"/>
      <point x="75" y="0" type="line"/>
      <point x="75" y="708" type="line"/>
      <point x="219" y="708" type="line"/>
    </contour>
  </outline>
</glyph>
<glyph name="M" format="2">
  <advance width="884"/>
  <unicode hex="004D"/>
  <outline>
    <contour>
      <point x="232" y="708" type="line"/>
      <point x="444" y="375" type="line"/>
      <point x="655" y="708" type="line"/>
      <point x="809" y="708" type="line"/>
      <point x="809" y="0" type="line"/>
      <point x="665" y="0" type="line"/>
      <point x="665" y="488" type="line"/>
      <point x="474" y="183" type="line"/>
      <point x="409" y="183" type="line"/>
      <point x="218" y="488" type="line"/>
      <point x="218" y="0" type="line"/>
      <point x="75" y="0" type="line"/>
      <point x="75" y="708" type="line"/>
    </contour>
  </outline>
</glyph>
<glyph name="N" format="2">
  <advance width="767"/>
  <unicode hex="004E"/>
  <outline>
    <contour>
      <point x="214" y="708" type="line"/>
      <point x="550" y="234" type="line"/>
      <point x="550" y="708" type="line"/>
      <point x="692" y="708" type="line"/>
      <point x="692" y="0" type="line"/>
      <point x="553" y="0" type="line"/>
      <point x="217" y="472" type="line"/>
      <point x="217" y="0" type="line"/>
      <point x="75" y="0" type="line"/>
      <point x="75" y="708" type="line"/>
    </contour>
  </outline>
</glyph>
<glyph name="P" format="2">
  <advance width="664"/>
  <unicode hex="0050"/>
  <outline>
    <contour>
      <point x="347" y="708" type="line" smooth="yes"/>
      <point x="518" y="708"/>
      <point x="626" y="641"/>
      <point x="626" y="458" type="curve" smooth="yes"/>
      <point x="626" y="298"/>
      <point x="514" y="209"/>
      <point x="357" y="209" type="curve" smooth="yes"/>
      <point x="220" y="209" type="line"/>
      <point x="220" y="0" type="line"/>
      <point x="75" y="0" type="line"/>
      <point x="75" y="708" type="line"/>
    </contour>
    <contour>
      <point x="349" y="337" type="line" smooth="yes"/>
      <point x="425" y="337"/>
      <point x="484" y="377"/>
      <point x="484" y="457" type="curve" smooth="yes"/>
      <point x="484" y="548"/>
      <point x="429" y="579"/>
      <point x="348" y="579" type="curve" smooth="yes"/>
      <point x="220" y="579" type="line"/>
      <point x="220" y="337" type="line"/>
    </contour>
  </outline>
</glyph>
<glyph name="Q" format="2">
  <advance width="772"/>
  <unicode hex="0051"/>
  <outline>
    <contour>
      <point x="185" y="357" type="curve" smooth="yes"/>
      <point x="185" y="235"/>
      <point x="252" y="124"/>
      <point x="386" y="124" type="curve" smooth="yes"/>
      <point x="518" y="124"/>
      <point x="587" y="232"/>
      <point x="587" y="356" type="curve" smooth="yes"/>
      <point x="587" y="477"/>
      <point x="522" y="588"/>
      <point x="386" y="588" type="curve" smooth="yes"/>
      <point x="252" y="588"/>
      <point x="185" y="479"/>
    </contour>
    <contour>
      <point x="516" y="15" type="line"/>
      <point x="476" y="1"/>
      <point x="432" y="-6"/>
      <point x="384" y="-6" type="curve" smooth="yes"/>
      <point x="164" y="-6"/>
      <point x="36" y="148"/>
      <point x="36" y="355" type="curve" smooth="yes"/>
      <point x="36" y="568"/>
      <point x="171" y="717"/>
      <point x="387" y="717" type="curve" smooth="yes"/>
      <point x="604" y="717"/>
      <point x="736" y="571"/>
      <point x="736" y="358" type="curve" smooth="yes"/>
      <point x="736" y="250"/>
      <point x="701" y="156"/>
      <point x="637" y="91" type="curve"/>
      <point x="728" y="-24" type="line"/>
      <point x="617" y="-111" type="line"/>
    </contour>
  </outline>
</glyph>
<glyph name="R" format="2">
  <advance width="679"/>
  <unicode hex="0052"/>
  <outline>
    <contour>
      <point x="357" y="708" type="line" smooth="yes"/>
      <point x="431" y="708"/>
      <point x="509" y="703"/>
      <point x="568" y="650" type="curve" smooth="yes"/>
      <point x="615" y="607"/>
      <point x="632" y="544"/>
      <point x="632" y="483" type="curve" smooth="yes"/>
      <point x="632" y="400"/>
      <point x="602" y="345"/>
      <point x="555" y="305" type="curve" smooth="yes"/>
      <point x="534" y="288"/>
      <point x="509" y="275"/>
      <point x="481" y="268" type="curve"/>
      <point x="638" y="0" type="line"/>
      <point x="476" y="0" type="line"/>
      <point x="333" y="254" type="line"/>
      <point x="220" y="254" type="line"/>
      <point x="220" y="0" type="line"/>
      <point x="75" y="0" type="line"/>
      <point x="75" y="708" type="line"/>
    </contour>
    <contour>
      <point x="358" y="376" type="line" smooth="yes"/>
      <point x="431" y="376"/>
      <point x="487" y="399"/>
      <point x="490" y="478" type="curve" smooth="yes"/>
      <point x="491" y="521"/>
      <point x="477" y="546"/>
      <point x="453" y="561" type="curve" smooth="yes"/>
      <point x="430" y="576"/>
      <point x="398" y="579"/>
      <point x="361" y="579" type="curve" smooth="yes"/>
      <point x="220" y="579" type="line"/>
      <point x="220" y="376" type="line"/>
    </contour>
  </outline>
</glyph>
<glyph name="S" format="2">
  <advance width="646"/>
  <unicode hex="0053"/>
  <outline>
    <contour>
      <point x="445" y="504" type="line"/>
      <point x="437" y="564"/>
      <point x="388" y="590"/>
      <point x="320" y="590" type="curve" smooth="yes"/>
      <point x="273" y="590"/>
      <point x="208" y="575"/>
      <point x="207" y="514" type="curve" smooth="yes"/>
      <point x="207" y="483"/>
      <point x="224" y="462"/>
      <point x="252" y="449" type="curve" smooth="yes"/>
      <point x="293" y="430"/>
      <point x="348" y="420"/>
      <point x="380" y="413" type="curve" smooth="yes"/>
      <point x="495" y="388"/>
      <point x="604" y="360"/>
      <point x="604" y="212" type="curve" smooth="yes"/>
      <point x="604" y="131"/>
      <point x="571" y="75"/>
      <point x="519" y="39" type="curve" smooth="yes"/>
      <point x="470" y="5"/>
      <point x="404" y="-8"/>
      <point x="325" y="-8" type="curve" smooth="yes"/>
      <point x="176" y="-8"/>
      <point x="50" y="68"/>
      <point x="42" y="219" type="curve"/>
      <point x="190" y="219" type="line"/>
      <point x="206" y="151"/>
      <point x="269" y="126"/>
      <point x="333" y="126" type="curve" smooth="yes"/>
      <point x="401" y="126"/>
      <point x="459" y="140"/>
      <point x="459" y="201" type="curve" smooth="yes"/>
      <point x="459" y="244"/>
      <point x="428" y="261"/>
      <point x="397" y="269" type="curve" smooth="yes"/>
      <point x="354" y="280"/>
      <point x="334" y="284"/>
      <point x="289" y="295" type="curve" smooth="yes"/>
      <point x="238" y="308"/>
      <point x="181" y="322"/>
      <point x="138" y="353" type="curve" smooth="yes"/>
      <point x="86" y="389"/>
      <point x="62" y="447"/>
      <point x="62" y="515" type="curve" smooth="yes"/>
      <point x="63" y="671"/>
      <point x="209" y="717"/>
      <point x="334" y="717" type="curve" smooth="yes"/>
      <point x="473" y="717"/>
      <point x="576" y="646"/>
      <point x="589" y="504" type="curve"/>
    </contour>
  </outline>
</glyph>
<glyph name="T" format="2">
  <advance width="601"/>
  <unicode hex="0054"/>
  <outline>
    <contour>
      <point x="6" y="579" type="line"/>
      <point x="6" y="708" type="line"/>
      <point x="595" y="708" type="line"/>
      <point x="595" y="579" type="line"/>
      <point x="373" y="579" type="line"/>
      <point x="373" y="0" type="line"/>
      <point x="228" y="0" type="line"/>
      <point x="228" y="579" type="line"/>
    </contour>
  </outline>
</glyph>
<glyph name="V" format="2">
  <advance width="698"/>
  <unicode hex="0056"/>
  <outline>
    <contour>
      <point x="539" y="708" type="line"/>
      <point x="696" y="708" type="line"/>
      <point x="427" y="0" type="line"/>
      <point x="271" y="0" type="line"/>
      <point x="2" y="708" type="line"/>
      <point x="163" y="708" type="line"/>
      <point x="352" y="173" type="line"/>
    </contour>
  </outline>
</glyph>
<glyph name="X" format="2">
  <advance width="662"/>
  <unicode hex="0058"/>
  <outline>
    <contour>
      <point x="486" y="708" type="line"/>
      <point x="654" y="708" type="line"/>
      <point x="420" y="354" type="line"/>
      <point x="660" y="0" type="line"/>
      <point x="491" y="0" type="line"/>
      <point x="331" y="243" type="line"/>
      <point x="165" y="0" type="line"/>
      <point x="2" y="0" type="line"/>
      <point x="245" y="355" type="line"/>
      <point x="10" y="708" type="line"/>
      <point x="179" y="708" type="line"/>
      <point x="334" y="463" type="line"/>
    </contour>
  </outline>
</glyph>
<glyph name="Y" format="2">
  <advance width="676"/>
  <unicode hex="0059"/>
  <outline>
    <contour>
      <point x="510" y="708" type="line"/>
      <point x="674" y="708" type="line"/>
      <point x="412" y="265" type="line"/>
      <point x="412" y="0" type="line"/>
      <point x="267" y="0" type="line"/>
      <point x="267" y="263" type="line"/>
      <point x="2" y="708" type="line"/>
      <point x="169" y="708" type="line"/>
      <point x="341" y="402" type="line"/>
    </contour>
  </outline>
</glyph>
<glyph name="Z" format="2">
  <advance width="627"/>
  <unicode hex="005A"/>
  <outline>
    <contour>
      <point x="40" y="579" type="line"/>
      <point x="40" y="708" type="line"/>
      <point x="595" y="708" type="line"/>
      <point x="595" y="594" type="line"/>
      <point x="214" y="128" type="line"/>
      <point x="588" y="128" type="line"/>
      <point x="588" y="0" type="line"/>
      <point x="32" y="0" type="line"/>
      <point x="32" y="115" type="line"/>
      <point x="413" y="579" type="line"/>
    </contour>
  </outline>
</glyph>
<glyph name="bracketleft" format="2">
  <advance width="350"/>
  <unicode hex="005B"/>
  <outline>
    <contour>
      <point x="75" y="784" type="line"/>
      <point x="327" y="784" type="line"/>
      <point x="327" y="668" type="line"/>
      <point x="210" y="668" type="line"/>
      <point x="210" y="-55" type="line"/>
      <point x="327" y="-55" type="line"/>
      <point x="327" y="-171" type="line"/>
      <point x="75" y="-171" type="line"/>
    </contour>
  </outline>
</glyph>
<glyph name="backslash" format="2">
  <advance width="491"/>
  <unicode hex="005C"/>
  <outline>
    <contour>
      <point x="329" y="-171" type="line"/>
      <point x="27" y="784" type="line"/>
      <point x="162" y="784" type="line"/>
      <point x="464" y="-171" type="line"/>
    </contour>
  </outline>
</glyph>
<glyph name="bracketright" format="2">
  <advance width="350"/>
  <unicode hex="005D"/>
  <outline>
    <contour>
      <point x="275" y="-171" type="line"/>
      <point x="23" y="-171" type="line"/>
      <point x="23" y="-55" type="line"/>
      <point x="140" y="-55" type="line"/>
      <point x="140" y="668" type="line"/>
      <point x="23" y="668" type="line"/>
      <point x="23" y="784" type="line"/>
      <point x="275" y="784" type="line"/>
    </contour>
  </outline>
</glyph>
<glyph name="asciicircum" format="2">
  <advance width="524"/>
  <unicode hex="005E"/>
  <outline>
    <contour>
      <point x="345" y="460" type="line"/>
      <point x="261" y="604" type="line"/>
      <point x="175" y="460" type="line"/>
      <point x="47" y="460" type="line"/>
      <point x="209" y="709" type="line"/>
      <point x="311" y="709" type="line"/>
      <point x="477" y="460" type="line"/>
    </contour>
  </outline>
</glyph>
<glyph name="underscore" format="2">
  <advance width="419"/>
  <unicode hex="005F"/>
  <outline>
    <contour>
      <point x="-15" y="-145" type="line"/>
      <point x="-15" y="-27" type="line"/>
      <point x="434" y="-27" type="line"/>
      <point x="434" y="-145" type="line"/>
    </contour>
  </outline>
</glyph>
<glyph name="grave" format="2">
  <advance width="387"/>
  <unicode hex="0060"/>
  <outline>
    <contour>
      <point x="297" y="599" type="line"/>
      <point x="185" y="599" type="line"/>
      <point x="49" y="769" type="line"/>
      <point x="189" y="769" type="line"/>
    </contour>
  </outline>
</glyph>
<glyph name="b" format="2">
  <advance width="638"/>
  <unicode hex="0062"/>
  <outline>
    <contour>
      <point x="197" y="460" type="line"/>
      <point x="240" y="511"/>
      <point x="306" y="538"/>
      <point x="369" y="538" type="curve" smooth="yes"/>
      <point x="444" y="538"/>
      <point x="510" y="514"/>
      <point x="553" y="450" type="curve"/>
      <point x="588" y="403"/>
      <point x="603" y="337"/>
      <point x="603" y="268" type="curve" smooth="yes"/>
      <point x="603" y="181"/>
      <point x="584" y="109"/>
      <point x="535" y="58" type="curve" smooth="yes"/>
      <point x="494" y="14"/>
      <point x="432" y="-8"/>
      <point x="373" y="-8" type="curve" smooth="yes"/>
      <point x="305" y="-8"/>
      <point x="245" y="13"/>
      <point x="197" y="70" type="curve"/>
      <point x="197" y="0" type="line"/>
      <point x="56" y="0" type="line"/>
      <point x="56" y="708" type="line"/>
      <point x="197" y="708" type="line"/>
    </contour>
    <contour>
      <point x="197" y="262" type="curve"/>
      <point x="198" y="177"/>
      <point x="248" y="118"/>
      <point x="332" y="117" type="curve"/>
      <point x="420" y="114"/>
      <point x="462" y="181"/>
      <point x="462" y="265" type="curve" smooth="yes"/>
      <point x="462" y="349"/>
      <point x="418" y="412"/>
      <point x="330" y="412" type="curve" smooth="yes"/>
      <point x="243" y="412"/>
      <point x="197" y="343"/>
    </contour>
  </outline>
</glyph>
<glyph name="d" format="2">
  <advance width="637"/>
  <unicode hex="0064"/>
  <outline>
    <contour>
      <point x="443" y="59" type="line"/>
      <point x="400" y="14"/>
      <point x="351" y="-8"/>
      <point x="276" y="-8" type="curve" smooth="yes"/>
      <point x="207" y="-8"/>
      <point x="147" y="14"/>
      <point x="104" y="58" type="curve" smooth="yes"/>
      <point x="53" y="111"/>
      <point x="35" y="186"/>
      <point x="35" y="259" type="curve" smooth="yes"/>
      <point x="35" y="345"/>
      <point x="59" y="414"/>
      <point x="107" y="466" type="curve" smooth="yes"/>
      <point x="150" y="511"/>
      <point x="215" y="538"/>
      <point x="296" y="538" type="curve" smooth="yes"/>
      <point x="357" y="538"/>
      <point x="406" y="520"/>
      <point x="441" y="485" type="curve"/>
      <point x="441" y="708" type="line"/>
      <point x="582" y="708" type="line"/>
      <point x="582" y="0" type="line"/>
      <point x="451" y="0" type="line"/>
    </contour>
    <contour>
      <point x="309" y="117" type="curve" smooth="yes"/>
      <point x="394" y="117"/>
      <point x="440" y="182"/>
      <point x="440" y="263" type="curve" smooth="yes"/>
      <point x="440" y="351"/>
      <point x="394" y="411"/>
      <point x="307" y="412" type="curve" smooth="yes"/>
      <point x="221" y="413"/>
      <point x="176" y="347"/>
      <point x="176" y="265" type="curve" smooth="yes"/>
      <point x="176" y="179"/>
      <point x="219" y="117"/>
    </contour>
  </outline>
</glyph>
<glyph name="f" format="2">
  <advance width="384"/>
  <unicode hex="0066"/>
  <outline>
    <contour>
      <point x="370" y="527" type="line"/>
      <point x="370" y="404" type="line"/>
      <point x="241" y="404" type="line"/>
      <point x="241" y="0" type="line"/>
      <point x="100" y="0" type="line"/>
      <point x="100" y="404" type="line"/>
      <point x="20" y="404" type="line"/>
      <point x="20" y="527" type="line"/>
      <point x="100" y="527" type="line"/>
      <point x="100" y="595" type="line" smooth="yes"/>
      <point x="100" y="714"/>
      <point x="162" y="768"/>
      <point x="286" y="768" type="curve" smooth="yes"/>
      <point x="370" y="768" type="line"/>
      <point x="370" y="645" type="line"/>
      <point x="306" y="645" type="line" smooth="yes"/>
      <point x="263" y="645"/>
      <point x="241" y="623"/>
      <point x="241" y="579" type="curve" smooth="yes"/>
      <point x="241" y="527" type="line"/>
    </contour>
  </outline>
</glyph>
<glyph name="h" format="2">
  <advance width="612"/>
  <unicode hex="0068"/>
  <outline>
    <contour>
      <point x="197" y="468" type="line"/>
      <point x="216" y="491"/>
      <point x="233" y="505"/>
      <point x="262" y="519" type="curve" smooth="yes"/>
      <point x="291" y="533"/>
      <point x="320" y="538"/>
      <point x="355" y="538" type="curve" smooth="yes"/>
      <point x="423" y="538"/>
      <point x="475" y="513"/>
      <point x="507" y="475" type="curve" smooth="yes"/>
      <point x="547" y="429"/>
      <point x="560" y="365"/>
      <point x="560" y="289" type="curve" smooth="yes"/>
      <point x="560" y="0" type="line"/>
      <point x="418" y="0" type="line"/>
      <point x="418" y="278" type="line" smooth="yes"/>
      <point x="418" y="316"/>
      <point x="411" y="351"/>
      <point x="394" y="376" type="curve" smooth="yes"/>
      <point x="377" y="400"/>
      <point x="350" y="412"/>
      <point x="310" y="412" type="curve" smooth="yes"/>
      <point x="224" y="412"/>
      <point x="197" y="339"/>
      <point x="197" y="271" type="curve" smooth="yes"/>
      <point x="197" y="0" type="line"/>
      <point x="56" y="0" type="line"/>
      <point x="56" y="708" type="line"/>
      <point x="197" y="708" type="line"/>
    </contour>
  </outline>
</glyph>
<glyph name="i" format="2">
  <advance width="269"/>
  <unicode hex="0069"/>
  <outline>
    <contour>
      <point x="134" y="772" type="curve" smooth="yes"/>
      <point x="186" y="772"/>
      <point x="221" y="739"/>
      <point x="221" y="688" type="curve" smooth="yes"/>
      <point x="221" y="635"/>
      <point x="186" y="603"/>
      <point x="134" y="603" type="curve" smooth="yes"/>
      <point x="83" y="603"/>
      <point x="47" y="635"/>
      <point x="47" y="688" type="curve" smooth="yes"/>
      <point x="47" y="739"/>
      <point x="83" y="772"/>
    </contour>
    <contour>
      <point x="205" y="0" type="line"/>
      <point x="64" y="0" type="line"/>
      <point x="64" y="527" type="line"/>
      <point x="205" y="527" type="line"/>
    </contour>
  </outline>
</glyph>
<glyph name="l" format="2">
  <advance width="253"/>
  <unicode hex="006C"/>
  <outline>
    <contour>
      <point x="197" y="0" type="line"/>
      <point x="56" y="0" type="line"/>
      <point x="56" y="708" type="line"/>
      <point x="197" y="708" type="line"/>
    </contour>
  </outline>
</glyph>
<glyph name="m" format="2">
  <advance width="876"/>
  <unicode hex="006D"/>
  <outline>
    <contour>
      <point x="198" y="459" type="line"/>
      <point x="234" y="512"/>
      <point x="283" y="538"/>
      <point x="347" y="538" type="curve" smooth="yes"/>
      <point x="418" y="538"/>
      <point x="461" y="505"/>
      <point x="488" y="453" type="curve"/>
      <point x="532" y="510"/>
      <point x="587" y="538"/>
      <point x="654" y="538" type="curve" smooth="yes"/>
      <point x="778" y="538"/>
      <point x="825" y="451"/>
      <point x="825" y="335" type="curve" smooth="yes"/>
      <point x="825" y="0" type="line"/>
      <point x="684" y="0" type="line"/>
      <point x="684" y="295" type="line" smooth="yes"/>
      <point x="684" y="351"/>
      <point x="672" y="412"/>
      <point x="603" y="412" type="curve" smooth="yes"/>
      <point x="528" y="412"/>
      <point x="511" y="343"/>
      <point x="511" y="282" type="curve" smooth="yes"/>
      <point x="511" y="0" type="line"/>
      <point x="370" y="0" type="line"/>
      <point x="370" y="297" type="line" smooth="yes"/>
      <point x="370" y="353"/>
      <point x="357" y="412"/>
      <point x="290" y="412" type="curve" smooth="yes"/>
      <point x="207" y="412"/>
      <point x="197" y="327"/>
      <point x="197" y="270" type="curve" smooth="yes"/>
      <point x="197" y="0" type="line"/>
      <point x="56" y="0" type="line"/>
      <point x="56" y="527" type="line"/>
      <point x="191" y="527" type="line"/>
    </contour>
  </outline>
</glyph>
<glyph name="q" format="2">
  <advance width="638"/>
  <unicode hex="0071"/>
  <outline>
    <contour>
      <point x="441" y="49" type="line"/>
      <point x="404" y="10"/>
      <point x="343" y="-8"/>
      <point x="279" y="-8" type="curve" smooth="yes"/>
      <point x="212" y="-8"/>
      <point x="147" y="14"/>
      <point x="104" y="59" type="curve" smooth="yes"/>
      <point x="52" y="112"/>
      <point x="35" y="186"/>
      <point x="35" y="259" type="curve" smooth="yes"/>
      <point x="35" y="345"/>
      <point x="59" y="414"/>
      <point x="107" y="466" type="curve" smooth="yes"/>
      <point x="148" y="511"/>
      <point x="218" y="539"/>
      <point x="291" y="538" type="curve" smooth="yes"/>
      <point x="340" y="538"/>
      <point x="406" y="521"/>
      <point x="446" y="470" type="curve"/>
      <point x="461" y="527" type="line"/>
      <point x="583" y="527" type="line"/>
      <point x="583" y="-220" type="line"/>
      <point x="441" y="-220" type="line"/>
    </contour>
    <contour>
      <point x="310" y="117" type="curve" smooth="yes"/>
      <point x="394" y="117"/>
      <point x="440" y="182"/>
      <point x="440" y="263" type="curve" smooth="yes"/>
      <point x="440" y="351"/>
      <point x="394" y="412"/>
      <point x="309" y="412" type="curve" smooth="yes"/>
      <point x="219" y="413"/>
      <point x="176" y="347"/>
      <point x="176" y="265" type="curve" smooth="yes"/>
      <point x="176" y="179"/>
      <point x="222" y="117"/>
    </contour>
  </outline>
</glyph>
<glyph name="t" format="2">
  <advance width="384"/>
  <unicode hex="0074"/>
  <outline>
    <contour>
      <point x="238" y="404" type="line"/>
      <point x="238" y="191" type="line" smooth="yes"/>
      <point x="238" y="146"/>
      <point x="261" y="123"/>
      <point x="307" y="123" type="curve" smooth="yes"/>
      <point x="359" y="123" type="line"/>
      <point x="359" y="0" type="line"/>
      <point x="293" y="0" type="line"/>
      <point x="153" y="-5"/>
      <point x="97" y="54"/>
      <point x="97" y="173" type="curve" smooth="yes"/>
      <point x="97" y="404" type="line"/>
      <point x="17" y="404" type="line"/>
      <point x="17" y="527" type="line"/>
      <point x="97" y="527" type="line"/>
      <point x="97" y="670" type="line"/>
      <point x="238" y="670" type="line"/>
      <point x="238" y="527" type="line"/>
      <point x="364" y="527" type="line"/>
      <point x="364" y="404" type="line"/>
    </contour>
  </outline>
</glyph>
<glyph name="v" format="2">
  <advance width="564"/>
  <unicode hex="0076"/>
  <outline>
    <contour>
      <point x="409" y="527" type="line"/>
      <point x="564" y="527" type="line"/>
      <point x="370" y="0" type="line"/>
      <point x="193" y="0" type="line"/>
      <point x="0" y="527" type="line"/>
      <point x="156" y="527" type="line"/>
      <point x="283" y="136" type="line"/>
    </contour>
  </outline>
</glyph>
<glyph name="x" format="2">
  <advance width="535"/>
  <unicode hex="0078"/>
  <outline>
    <contour>
      <point x="364" y="527" type="line"/>
      <point x="524" y="527" type="line"/>
      <point x="355" y="266" type="line"/>
      <point x="533" y="0" type="line"/>
      <point x="374" y="0" type="line"/>
      <point x="265" y="175" type="line"/>
      <point x="160" y="0" type="line"/>
      <point x="2" y="0" type="line"/>
      <point x="176" y="268" type="line"/>
      <point x="11" y="527" type="line"/>
      <point x="173" y="527" type="line"/>
      <point x="270" y="356" type="line"/>
    </contour>
  </outline>
</glyph>
<glyph name="z" format="2">
  <advance width="510"/>
  <unicode hex="007A"/>
  <outline>
    <contour>
      <point x="475" y="425" type="line"/>
      <point x="219" y="123" type="line"/>
      <point x="475" y="123" type="line"/>
      <point x="475" y="0" type="line"/>
      <point x="35" y="0" type="line"/>
      <point x="35" y="103" type="line"/>
      <point x="289" y="405" type="line"/>
      <point x="35" y="405" type="line"/>
      <point x="35" y="527" type="line"/>
      <point x="475" y="527" type="line"/>
    </contour>
  </outline>
</glyph>
<glyph name="braceleft" format="2">
  <advance width="421"/>
  <unicode hex="007B"/>
  <outline>
    <contour>
      <point x="198" y="307" type="curve"/>
      <point x="245" y="291"/>
      <point x="257" y="226"/>
      <point x="257" y="183" type="curve" smooth="yes"/>
      <point x="257" y="9" type="line" smooth="yes"/>
      <point x="257" y="-72"/>
      <point x="309" y="-55"/>
      <point x="374" y="-55" type="curve"/>
      <point x="374" y="-171" type="line"/>
      <point x="259" y="-171" type="line" smooth="yes"/>
      <point x="170" y="-171"/>
      <point x="124" y="-136"/>
      <point x="124" y="-44" type="curve" smooth="yes"/>
      <point x="124" y="154" type="line" smooth="yes"/>
      <point x="124" y="200"/>
      <point x="116" y="249"/>
      <point x="58" y="249" type="curve" smooth="yes"/>
      <point x="25" y="249" type="line"/>
      <point x="25" y="365" type="line"/>
      <point x="58" y="365" type="line" smooth="yes"/>
      <point x="117" y="365"/>
      <point x="124" y="413"/>
      <point x="124" y="460" type="curve" smooth="yes"/>
      <point x="124" y="658" type="line" smooth="yes"/>
      <point x="124" y="750"/>
      <point x="171" y="784"/>
      <point x="259" y="784" type="curve" smooth="yes"/>
      <point x="374" y="784" type="line"/>
      <point x="374" y="668" type="line"/>
      <point x="310" y="668"/>
      <point x="257" y="685"/>
      <point x="257" y="605" type="curve" smooth="yes"/>
      <point x="257" y="430" type="line" smooth="yes"/>
      <point x="257" y="387"/>
      <point x="245" y="323"/>
    </contour>
  </outline>
</glyph>
<glyph name="bar" format="2">
  <advance width="277"/>
  <unicode hex="007C"/>
  <outline>
    <contour>
      <point x="75" y="-174" type="line"/>
      <point x="75" y="800" type="line"/>
      <point x="202" y="800" type="line"/>
      <point x="202" y="-174" type="line"/>
    </contour>
  </outline>
</glyph>
<glyph name="braceright" format="2">
  <advance width="421"/>
  <unicode hex="007D"/>
  <outline>
    <contour>
      <point x="223" y="307" type="curve"/>
      <point x="176" y="323"/>
      <point x="165" y="387"/>
      <point x="165" y="430" type="curve" smooth="yes"/>
      <point x="165" y="605" type="line" smooth="yes"/>
      <point x="165" y="685"/>
      <point x="110" y="668"/>
      <point x="47" y="668" type="curve"/>
      <point x="47" y="784" type="line"/>
      <point x="162" y="784" type="line" smooth="yes"/>
      <point x="250" y="784"/>
      <point x="297" y="750"/>
      <point x="297" y="658" type="curve" smooth="yes"/>
      <point x="297" y="460" type="line" smooth="yes"/>
      <point x="297" y="413"/>
      <point x="304" y="365"/>
      <point x="363" y="365" type="curve" smooth="yes"/>
      <point x="396" y="365" type="line"/>
      <point x="396" y="249" type="line"/>
      <point x="363" y="249" type="line" smooth="yes"/>
      <point x="305" y="249"/>
      <point x="297" y="200"/>
      <point x="297" y="154" type="curve" smooth="yes"/>
      <point x="297" y="-44" type="line" smooth="yes"/>
      <point x="297" y="-136"/>
      <point x="250" y="-171"/>
      <point x="162" y="-171" type="curve" smooth="yes"/>
      <point x="47" y="-171" type="line"/>
      <point x="47" y="-55" type="line"/>
      <point x="110" y="-55"/>
      <point x="165" y="-72"/>
      <point x="165" y="9" type="curve" smooth="yes"/>
      <point x="165" y="183" type="line" smooth="yes"/>
      <point x="165" y="226"/>
      <point x="176" y="291"/>
    </contour>
  </outline>
</glyph>
<glyph name="asciitilde" format="2">
  <advance width="682"/>
  <unicode hex="007E"/>
  <outline>
    <contour>
      <point x="76" y="244" type="line"/>
      <point x="71" y="351"/>
      <point x="98" y="470"/>
      <point x="237" y="470" type="curve" smooth="yes"/>
      <point x="349" y="470"/>
      <point x="401" y="360"/>
      <point x="441" y="360" type="curve" smooth="yes"/>
      <point x="479" y="360"/>
      <point x="470" y="443"/>
      <point x="470" y="466" type="curve"/>
      <point x="606" y="466" type="line"/>
      <point x="609" y="359"/>
      <point x="585" y="239"/>
      <point x="443" y="239" type="curve" smooth="yes"/>
      <point x="333" y="239"/>
      <point x="283" y="349"/>
      <point x="241" y="349" type="curve" smooth="yes"/>
      <point x="203" y="349"/>
      <point x="212" y="265"/>
      <point x="212" y="244" type="curve"/>
    </contour>
  </outline>
</glyph>
<glyph name="exclamdown" format="2">
  <advance width="304"/>
  <unicode hex="00A1"/>
  <outline>
    <contour>
      <point x="152" y="366" type="curve" smooth="yes"/>
      <point x="97" y="366"/>
      <point x="65" y="401"/>
      <point x="65" y="453" type="curve" smooth="yes"/>
      <point x="65" y="505"/>
      <point x="99" y="537"/>
      <point x="152" y="537" type="curve" smooth="yes"/>
      <point x="205" y="537"/>
      <point x="239" y="506"/>
      <point x="239" y="453" type="curve" smooth="yes"/>
      <point x="239" y="401"/>
      <point x="205" y="366"/>
    </contour>
    <contour>
      <point x="91" y="298" type="line"/>
      <point x="213" y="298" type="line"/>
      <point x="226" y="-180" type="line"/>
      <point x="78" y="-180" type="line"/>
    </contour>
  </outline>
</glyph>
<glyph name="cent" format="2">
  <advance width="598"/>
  <unicode hex="00A2"/>
  <outline>
    <contour>
      <point x="310" y="114" type="curve" smooth="yes"/>
      <point x="363" y="114"/>
      <point x="394" y="142"/>
      <point x="401" y="175" type="curve"/>
      <point x="550" y="175" type="line"/>
      <point x="534" y="64"/>
      <point x="465" y="6"/>
      <point x="371" y="-10" type="curve"/>
      <point x="371" y="-149" type="line"/>
      <point x="240" y="-149" type="line"/>
      <point x="240" y="-9" type="line"/>
      <point x="109" y="16"/>
      <point x="47" y="118"/>
      <point x="47" y="265" type="curve" smooth="yes"/>
      <point x="47" y="405"/>
      <point x="117" y="505"/>
      <point x="240" y="532" type="curve"/>
      <point x="240" y="681" type="line"/>
      <point x="371" y="681" type="line"/>
      <point x="371" y="535" type="line"/>
      <point x="466" y="519"/>
      <point x="535" y="459"/>
      <point x="550" y="350" type="curve"/>
      <point x="401" y="350" type="line"/>
      <point x="394" y="382"/>
      <point x="361" y="413"/>
      <point x="309" y="413" type="curve" smooth="yes"/>
      <point x="219" y="413"/>
      <point x="188" y="348"/>
      <point x="188" y="265" type="curve" smooth="yes"/>
      <point x="188" y="179"/>
      <point x="218" y="114"/>
    </contour>
  </outline>
</glyph>
<glyph name="sterling" format="2">
  <advance width="622"/>
  <unicode hex="00A3"/>
  <outline>
    <contour>
      <point x="483" y="396" type="line"/>
      <point x="483" y="276" type="line"/>
      <point x="271" y="276" type="line"/>
      <point x="271" y="128" type="line"/>
      <point x="575" y="128" type="line"/>
      <point x="575" y="0" type="line"/>
      <point x="48" y="0" type="line"/>
      <point x="48" y="128" type="line"/>
      <point x="131" y="128" type="line"/>
      <point x="131" y="276" type="line"/>
      <point x="47" y="276" type="line"/>
      <point x="47" y="396" type="line"/>
      <point x="131" y="396" type="line"/>
      <point x="131" y="507" type="line" smooth="yes"/>
      <point x="131" y="644"/>
      <point x="218" y="718"/>
      <point x="354" y="718" type="curve" smooth="yes"/>
      <point x="495" y="718"/>
      <point x="563" y="656"/>
      <point x="567" y="529" type="curve"/>
      <point x="434" y="529" type="line"/>
      <point x="431" y="576"/>
      <point x="411" y="607"/>
      <point x="356" y="607" type="curve" smooth="yes"/>
      <point x="301" y="607"/>
      <point x="271" y="570"/>
      <point x="271" y="510" type="curve" smooth="yes"/>
      <point x="271" y="396" type="line"/>
    </contour>
  </outline>
</glyph>
<glyph name="yen" format="2">
  <advance width="726"/>
  <unicode hex="00A5"/>
  <outline>
    <contour>
      <point x="535" y="708" type="line"/>
      <point x="699" y="708" type="line"/>
      <point x="486" y="351" type="line"/>
      <point x="591" y="351" type="line"/>
      <point x="591" y="255" type="line"/>
      <point x="437" y="255" type="line"/>
      <point x="437" y="179" type="line"/>
      <point x="591" y="179" type="line"/>
      <point x="591" y="83" type="line"/>
      <point x="437" y="83" type="line"/>
      <point x="437" y="0" type="line"/>
      <point x="292" y="0" type="line"/>
      <point x="292" y="83" type="line"/>
      <point x="137" y="83" type="line"/>
      <point x="137" y="179" type="line"/>
      <point x="292" y="179" type="line"/>
      <point x="292" y="255" type="line"/>
      <point x="137" y="255" type="line"/>
      <point x="137" y="351" type="line"/>
      <point x="241" y="351" type="line"/>
      <point x="27" y="708" type="line"/>
      <point x="194" y="708" type="line"/>
      <point x="366" y="402" type="line"/>
    </contour>
  </outline>
</glyph>
<glyph name="section" format="2">
  <advance width="553"/>
  <unicode hex="00A7"/>
  <outline>
    <contour>
      <point x="277" y="608" type="curve" smooth="yes"/>
      <point x="247" y="608"/>
      <point x="198" y="602"/>
      <point x="197" y="562" type="curve" smooth="yes"/>
      <point x="195" y="521"/>
      <point x="267" y="512"/>
      <point x="297" y="507" type="curve" smooth="yes"/>
      <point x="353" y="498"/>
      <point x="410" y="492"/>
      <point x="451" y="465" type="curve" smooth="yes"/>
      <point x="490" y="438"/>
      <point x="504" y="400"/>
      <point x="505" y="353" type="curve" smooth="yes"/>
      <point x="505" y="312"/>
      <point x="490" y="277"/>
      <point x="461" y="248" type="curve"/>
      <point x="488" y="221"/>
      <point x="503" y="184"/>
      <point x="503" y="145" type="curve" smooth="yes"/>
      <point x="504" y="92"/>
      <point x="480" y="46"/>
      <point x="433" y="16" type="curve" smooth="yes"/>
      <point x="389" y="-12"/>
      <point x="338" y="-19"/>
      <point x="287" y="-19" type="curve" smooth="yes"/>
      <point x="239" y="-19"/>
      <point x="191" y="-13"/>
      <point x="147" y="10" type="curve" smooth="yes"/>
      <point x="83" y="42"/>
      <point x="47" y="95"/>
      <point x="47" y="167" type="curve"/>
      <point x="176" y="167" type="line"/>
      <point x="184" y="114"/>
      <point x="233" y="94"/>
      <point x="281" y="94" type="curve" smooth="yes"/>
      <point x="325" y="94"/>
      <point x="370" y="100"/>
      <point x="373" y="140" type="curve"/>
      <point x="374" y="163"/>
      <point x="356" y="175"/>
      <point x="327" y="181" type="curve" smooth="yes"/>
      <point x="246" y="199" type="line" smooth="yes"/>
      <point x="199" y="209"/>
      <point x="159" y="217"/>
      <point x="124" y="238" type="curve" smooth="yes"/>
      <point x="87" y="261"/>
      <point x="58" y="300"/>
      <point x="62" y="361" type="curve" smooth="yes"/>
      <point x="65" y="402"/>
      <point x="88" y="432"/>
      <point x="113" y="457" type="curve"/>
      <point x="86" y="477"/>
      <point x="65" y="515"/>
      <point x="67" y="564" type="curve" smooth="yes"/>
      <point x="73" y="681"/>
      <point x="193" y="716"/>
      <point x="293" y="716" type="curve" smooth="yes"/>
      <point x="399" y="716"/>
      <point x="489" y="664"/>
      <point x="494" y="555" type="curve"/>
      <point x="368" y="555" type="line"/>
      <point x="365" y="594"/>
      <point x="324" y="607"/>
    </contour>
    <contour>
      <point x="224" y="414" type="curve"/>
      <point x="204" y="403"/>
      <point x="194" y="382"/>
      <point x="194" y="361" type="curve"/>
      <point x="193" y="337"/>
      <point x="213" y="320"/>
      <point x="238" y="312" type="curve" smooth="yes"/>
      <point x="271" y="302"/>
      <point x="311" y="298"/>
      <point x="346" y="291" type="curve"/>
      <point x="365" y="302"/>
      <point x="377" y="319"/>
      <point x="378" y="342" type="curve"/>
      <point x="381" y="381"/>
      <point x="333" y="391"/>
      <point x="306" y="397" type="curve" smooth="yes"/>
      <point x="278" y="403"/>
      <point x="251" y="407"/>
    </contour>
  </outline>
</glyph>
<glyph name="dieresis" format="2">
  <advance width="625"/>
  <unicode hex="00A8"/>
  <outline>
    <contour>
      <point x="182" y="759" type="curve" smooth="yes"/>
      <point x="233" y="759"/>
      <point x="268" y="727"/>
      <point x="268" y="676" type="curve" smooth="yes"/>
      <point x="268" y="623"/>
      <point x="233" y="591"/>
      <point x="182" y="591" type="curve" smooth="yes"/>
      <point x="130" y="591"/>
      <point x="95" y="623"/>
      <point x="95" y="676" type="curve" smooth="yes"/>
      <point x="95" y="727"/>
      <point x="130" y="759"/>
    </contour>
    <contour>
      <point x="443" y="759" type="curve" smooth="yes"/>
      <point x="494" y="759"/>
      <point x="530" y="727"/>
      <point x="530" y="676" type="curve" smooth="yes"/>
      <point x="530" y="623"/>
      <point x="494" y="591"/>
      <point x="443" y="591" type="curve" smooth="yes"/>
      <point x="392" y="591"/>
      <point x="357" y="623"/>
      <point x="357" y="676" type="curve" smooth="yes"/>
      <point x="357" y="727"/>
      <point x="392" y="759"/>
    </contour>
  </outline>
</glyph>
<glyph name="copyright" format="2">
  <advance width="910"/>
  <unicode hex="00A9"/>
  <outline>
    <contour>
      <point x="457" y="-88" type="curve" smooth="yes"/>
      <point x="208" y="-88"/>
      <point x="47" y="67"/>
      <point x="47" y="320" type="curve" smooth="yes"/>
      <point x="47" y="569"/>
      <point x="212" y="729"/>
      <point x="457" y="729" type="curve" smooth="yes"/>
      <point x="698" y="729"/>
      <point x="863" y="561"/>
      <point x="863" y="320" type="curve" smooth="yes"/>
      <point x="863" y="67"/>
      <point x="705" y="-88"/>
    </contour>
    <contour>
      <point x="461" y="5" type="curve" smooth="yes"/>
      <point x="652" y="5"/>
      <point x="768" y="123"/>
      <point x="768" y="319" type="curve" smooth="yes"/>
      <point x="768" y="511"/>
      <point x="647" y="633"/>
      <point x="461" y="633" type="curve" smooth="yes"/>
      <point x="274" y="633"/>
      <point x="149" y="511"/>
      <point x="149" y="319" type="curve" smooth="yes"/>
      <point x="149" y="123"/>
      <point x="270" y="5"/>
    </contour>
    <contour>
      <point x="467" y="207" type="curve" smooth="yes"/>
      <point x="507" y="207"/>
      <point x="531" y="228"/>
      <point x="536" y="252" type="curve"/>
      <point x="647" y="252" type="line"/>
      <point x="632" y="151"/>
      <point x="559" y="110"/>
      <point x="464" y="110" type="curve" smooth="yes"/>
      <point x="332" y="110"/>
      <point x="268" y="194"/>
      <point x="268" y="321" type="curve" smooth="yes"/>
      <point x="268" y="445"/>
      <point x="342" y="529"/>
      <point x="468" y="529" type="curve" smooth="yes"/>
      <point x="563" y="529"/>
      <point x="632" y="483"/>
      <point x="647" y="386" type="curve"/>
      <point x="536" y="386" type="line"/>
      <point x="531" y="409"/>
      <point x="505" y="433"/>
      <point x="466" y="433" type="curve" smooth="yes"/>
      <point x="399" y="433"/>
      <point x="374" y="385"/>
      <point x="374" y="321" type="curve" smooth="yes"/>
      <point x="374" y="256"/>
      <point x="398" y="207"/>
    </contour>
  </outline>
</glyph>
<glyph name="ordfeminine" format="2">
  <advance width="360"/>
  <unicode hex="00AA"/>
  <outline>
    <contour>
      <point x="242" y="468" type="curve"/>
      <point x="218" y="439"/>
      <point x="185" y="427"/>
      <point x="146" y="427" type="curve" smooth="yes"/>
      <point x="86" y="427"/>
      <point x="40" y="461"/>
      <point x="40" y="525" type="curve" smooth="yes"/>
      <point x="40" y="605"/>
      <point x="110" y="620"/>
      <point x="174" y="620" type="curve" smooth="yes"/>
      <point x="238" y="620" type="line"/>
      <point x="237" y="655"/>
      <point x="219" y="674"/>
      <point x="185" y="674" type="curve" smooth="yes"/>
      <point x="154" y="674"/>
      <point x="135" y="662"/>
      <point x="134" y="646" type="curve"/>
      <point x="48" y="646" type="line"/>
      <point x="59" y="718"/>
      <point x="117" y="748"/>
      <point x="184" y="748" type="curve" smooth="yes"/>
      <point x="280" y="748"/>
      <point x="320" y="692"/>
      <point x="320" y="599" type="curve" smooth="yes"/>
      <point x="320" y="431" type="line"/>
      <point x="245" y="431" type="line"/>
      <point x="244" y="444"/>
      <point x="243" y="456"/>
    </contour>
    <contour>
      <point x="239" y="561" type="curve"/>
      <point x="180" y="561" type="line" smooth="yes"/>
      <point x="157" y="561"/>
      <point x="124" y="560"/>
      <point x="124" y="530" type="curve" smooth="yes"/>
      <point x="124" y="507"/>
      <point x="143" y="497"/>
      <point x="167" y="497" type="curve" smooth="yes"/>
      <point x="208" y="497"/>
      <point x="236" y="518"/>
    </contour>
  </outline>
</glyph>
<glyph name="guillemotleft" format="2">
  <advance width="570"/>
  <unicode hex="00AB"/>
  <outline>
    <contour>
      <point x="392" y="271" type="line"/>
      <point x="523" y="82" type="line"/>
      <point x="378" y="82" type="line"/>
      <point x="250" y="271" type="line"/>
      <point x="378" y="460" type="line"/>
      <point x="523" y="460" type="line"/>
    </contour>
    <contour>
      <point x="168" y="271" type="line"/>
      <point x="299" y="82" type="line"/>
      <point x="155" y="82" type="line"/>
      <point x="27" y="271" type="line"/>
      <point x="155" y="460" type="line"/>
      <point x="299" y="460" type="line"/>
    </contour>
  </outline>
</glyph>
<glyph name="registered" format="2">
  <advance width="465"/>
  <unicode hex="00AE"/>
  <outline>
    <contour>
      <point x="233" y="733" type="curve" smooth="yes"/>
      <point x="346" y="733"/>
      <point x="425" y="662"/>
      <point x="425" y="538" type="curve" smooth="yes"/>
      <point x="425" y="415"/>
      <point x="346" y="348"/>
      <point x="233" y="348" type="curve" smooth="yes"/>
      <point x="118" y="348"/>
      <point x="40" y="415"/>
      <point x="40" y="538" type="curve" smooth="yes"/>
      <point x="40" y="662"/>
      <point x="121" y="733"/>
    </contour>
    <contour>
      <point x="233" y="683" type="curve" smooth="yes"/>
      <point x="150" y="683"/>
      <point x="93" y="630"/>
      <point x="93" y="538" type="curve" smooth="yes"/>
      <point x="93" y="447"/>
      <point x="149" y="399"/>
      <point x="233" y="399" type="curve" smooth="yes"/>
      <point x="316" y="399"/>
      <point x="372" y="447"/>
      <point x="372" y="538" type="curve" smooth="yes"/>
      <point x="372" y="630"/>
      <point x="316" y="683"/>
    </contour>
    <contour>
      <point x="326" y="446" type="line"/>
      <point x="271" y="446" type="line"/>
      <point x="224" y="514" type="line"/>
      <point x="204" y="514" type="line"/>
      <point x="204" y="446" type="line"/>
      <point x="158" y="446" type="line"/>
      <point x="158" y="643" type="line"/>
      <point x="240" y="643" type="line" smooth="yes"/>
      <point x="268" y="643"/>
      <point x="286" y="636"/>
      <point x="299" y="622" type="curve"/>
      <point x="307" y="612"/>
      <point x="312" y="598"/>
      <point x="312" y="579" type="curve" smooth="yes"/>
      <point x="312" y="552"/>
      <point x="300" y="531"/>
      <point x="275" y="520" type="curve"/>
    </contour>
    <contour>
      <point x="204" y="600" type="line"/>
      <point x="204" y="555" type="line"/>
      <point x="236" y="555" type="line" smooth="yes"/>
      <point x="252" y="555"/>
      <point x="266" y="559"/>
      <point x="266" y="578" type="curve"/>
      <point x="267" y="598"/>
      <point x="253" y="600"/>
      <point x="237" y="600" type="curve" smooth="yes"/>
    </contour>
  </outline>
</glyph>
<glyph name="macron" format="2">
  <advance width="581"/>
  <unicode hex="00AF"/>
  <outline>
    <contour>
      <point x="469" y="738" type="line"/>
      <point x="469" y="624" type="line"/>
      <point x="112" y="624" type="line"/>
      <point x="112" y="738" type="line"/>
    </contour>
  </outline>
</glyph>
<glyph name="degree" format="2">
  <advance width="405"/>
  <unicode hex="00B0"/>
  <outline>
    <contour>
      <point x="203" y="757" type="curve" smooth="yes"/>
      <point x="295" y="757"/>
      <point x="358" y="698"/>
      <point x="358" y="598" type="curve" smooth="yes"/>
      <point x="358" y="498"/>
      <point x="295" y="445"/>
      <point x="203" y="445" type="curve" smooth="yes"/>
      <point x="111" y="445"/>
      <point x="47" y="498"/>
      <point x="47" y="598" type="curve" smooth="yes"/>
      <point x="47" y="697"/>
      <point x="112" y="757"/>
    </contour>
    <contour>
      <point x="203" y="670" type="curve" smooth="yes"/>
      <point x="164" y="670"/>
      <point x="136" y="644"/>
      <point x="136" y="599" type="curve" smooth="yes"/>
      <point x="136" y="555"/>
      <point x="163" y="531"/>
      <point x="203" y="531" type="curve" smooth="yes"/>
      <point x="242" y="531"/>
      <point x="269" y="555"/>
      <point x="269" y="599" type="curve" smooth="yes"/>
      <point x="269" y="644"/>
      <point x="242" y="670"/>
    </contour>
  </outline>
</glyph>
<glyph name="plusminus" format="2">
  <advance width="603"/>
  <unicode hex="00B1"/>
  <outline>
    <contour>
      <point x="360" y="378" type="line"/>
      <point x="360" y="234" type="line"/>
      <point x="243" y="234" type="line"/>
      <point x="243" y="378" type="line"/>
      <point x="62" y="378" type="line"/>
      <point x="62" y="496" type="line"/>
      <point x="243" y="496" type="line"/>
      <point x="243" y="668" type="line"/>
      <point x="360" y="668" type="line"/>
      <point x="360" y="496" type="line"/>
      <point x="541" y="496" type="line"/>
      <point x="541" y="378" type="line"/>
    </contour>
    <contour>
      <point x="62" y="202" type="line"/>
      <point x="541" y="202" type="line"/>
      <point x="541" y="84" type="line"/>
      <point x="62" y="84" type="line"/>
    </contour>
  </outline>
</glyph>
<glyph name="twosuperior" format="2">
  <advance width="376"/>
  <unicode hex="00B2"/>
  <outline>
    <contour>
      <point x="204" y="477" type="curve"/>
      <point x="322" y="477" type="line"/>
      <point x="322" y="385" type="line"/>
      <point x="53" y="385" type="line"/>
      <point x="53" y="465" type="line"/>
      <point x="154" y="552" type="line" smooth="yes"/>
      <point x="177" y="572"/>
      <point x="227" y="612"/>
      <point x="227" y="643" type="curve" smooth="yes"/>
      <point x="227" y="666"/>
      <point x="216" y="684"/>
      <point x="189" y="684" type="curve" smooth="yes"/>
      <point x="162" y="684"/>
      <point x="144" y="672"/>
      <point x="144" y="643" type="curve"/>
      <point x="50" y="643" type="line"/>
      <point x="53" y="732"/>
      <point x="105" y="776"/>
      <point x="193" y="776" type="curve" smooth="yes"/>
      <point x="269" y="776"/>
      <point x="326" y="733"/>
      <point x="326" y="653" type="curve" smooth="yes"/>
      <point x="326" y="569"/>
      <point x="263" y="525"/>
    </contour>
  </outline>
</glyph>
<glyph name="threesuperior" format="2">
  <advance width="403"/>
  <unicode hex="00B3"/>
  <outline>
    <contour>
      <point x="307" y="596" type="curve"/>
      <point x="340" y="576"/>
      <point x="352" y="546"/>
      <point x="352" y="509" type="curve" smooth="yes"/>
      <point x="351" y="425"/>
      <point x="281" y="382"/>
      <point x="205" y="382" type="curve" smooth="yes"/>
      <point x="118" y="382"/>
      <point x="53" y="422"/>
      <point x="50" y="514" type="curve"/>
      <point x="148" y="514" type="line"/>
      <point x="151" y="483"/>
      <point x="176" y="474"/>
      <point x="204" y="474" type="curve" smooth="yes"/>
      <point x="227" y="474"/>
      <point x="252" y="482"/>
      <point x="252" y="510" type="curve" smooth="yes"/>
      <point x="252" y="535"/>
      <point x="230" y="541"/>
      <point x="210" y="541" type="curve" smooth="yes"/>
      <point x="158" y="541" type="line"/>
      <point x="158" y="621" type="line"/>
      <point x="197" y="621" type="line" smooth="yes"/>
      <point x="216" y="621"/>
      <point x="240" y="629"/>
      <point x="240" y="652" type="curve" smooth="yes"/>
      <point x="240" y="675"/>
      <point x="223" y="685"/>
      <point x="202" y="685" type="curve" smooth="yes"/>
      <point x="174" y="685"/>
      <point x="160" y="672"/>
      <point x="159" y="646" type="curve"/>
      <point x="61" y="646" type="line"/>
      <point x="58" y="737"/>
      <point x="121" y="776"/>
      <point x="205" y="776" type="curve" smooth="yes"/>
      <point x="274" y="776"/>
      <point x="338" y="745"/>
      <point x="338" y="668" type="curve" smooth="yes"/>
      <point x="338" y="641"/>
      <point x="327" y="615"/>
    </contour>
  </outline>
</glyph>
<glyph name="acute" format="2">
  <advance width="387"/>
  <unicode hex="00B4"/>
  <outline>
    <contour>
      <point x="198" y="769" type="line"/>
      <point x="338" y="769" type="line"/>
      <point x="202" y="599" type="line"/>
      <point x="90" y="599" type="line"/>
    </contour>
  </outline>
</glyph>
<glyph name="paragraph" format="2">
  <advance width="739"/>
  <unicode hex="00B6"/>
  <outline>
    <contour>
      <point x="709" y="584" type="line"/>
      <point x="613" y="584" type="line"/>
      <point x="613" y="0" type="line"/>
      <point x="479" y="0" type="line"/>
      <point x="479" y="584" type="line"/>
      <point x="385" y="584" type="line"/>
      <point x="385" y="0" type="line"/>
      <point x="251" y="0" type="line"/>
      <point x="251" y="314" type="line"/>
      <point x="239" y="314" type="line"/>
      <point x="212" y="315"/>
      <point x="188" y="318"/>
      <point x="164" y="325" type="curve" smooth="yes"/>
      <point x="89" y="349"/>
      <point x="30" y="407"/>
      <point x="30" y="518" type="curve" smooth="yes"/>
      <point x="30" y="631"/>
      <point x="120" y="707"/>
      <point x="229" y="707" type="curve" smooth="yes"/>
      <point x="709" y="707" type="line"/>
    </contour>
  </outline>
</glyph>
<glyph name="periodcentered" format="2">
  <advance width="278"/>
  <unicode hex="00B7"/>
  <outline>
    <contour>
      <point x="139" y="439" type="curve" smooth="yes"/>
      <point x="186" y="439"/>
      <point x="221" y="407"/>
      <point x="221" y="359" type="curve" smooth="yes"/>
      <point x="221" y="310"/>
      <point x="187" y="278"/>
      <point x="139" y="278" type="curve" smooth="yes"/>
      <point x="90" y="278"/>
      <point x="57" y="310"/>
      <point x="57" y="359" type="curve" smooth="yes"/>
      <point x="57" y="406"/>
      <point x="92" y="439"/>
    </contour>
  </outline>
</glyph>
<glyph name="cedilla" format="2">
  <advance width="609"/>
  <unicode hex="00B8"/>
  <outline>
    <contour>
      <point x="330" y="18" type="line"/>
      <point x="310" y="-42" type="line"/>
      <point x="375" y="-33"/>
      <point x="422" y="-69"/>
      <point x="419" y="-137" type="curve" smooth="yes"/>
      <point x="416" y="-188"/>
      <point x="386" y="-225"/>
      <point x="347" y="-243" type="curve" smooth="yes"/>
      <point x="314" y="-258"/>
      <point x="268" y="-262"/>
      <point x="205" y="-255" type="curve"/>
      <point x="206" y="-175" type="line"/>
      <point x="295" y="-185"/>
      <point x="316" y="-168"/>
      <point x="316" y="-141" type="curve" smooth="yes"/>
      <point x="316" y="-116"/>
      <point x="295" y="-106"/>
      <point x="264" y="-105" type="curve" smooth="yes"/>
      <point x="244" y="-104"/>
      <point x="222" y="-105"/>
      <point x="207" y="-106" type="curve"/>
      <point x="244" y="18" type="line"/>
    </contour>
  </outline>
</glyph>
<glyph name="ordmasculine" format="2">
  <advance width="364"/>
  <unicode hex="00BA"/>
  <outline>
    <contour>
      <point x="182" y="747" type="curve" smooth="yes"/>
      <point x="281" y="747"/>
      <point x="324" y="677"/>
      <point x="324" y="586" type="curve" smooth="yes"/>
      <point x="324" y="494"/>
      <point x="280" y="426"/>
      <point x="181" y="426" type="curve" smooth="yes"/>
      <point x="82" y="426"/>
      <point x="40" y="494"/>
      <point x="40" y="586" type="curve" smooth="yes"/>
      <point x="40" y="678"/>
      <point x="83" y="747"/>
    </contour>
    <contour>
      <point x="182" y="672" type="curve" smooth="yes"/>
      <point x="133" y="672"/>
      <point x="122" y="627"/>
      <point x="122" y="586" type="curve" smooth="yes"/>
      <point x="122" y="546"/>
      <point x="130" y="500"/>
      <point x="181" y="500" type="curve" smooth="yes"/>
      <point x="231" y="500"/>
      <point x="241" y="546"/>
      <point x="241" y="586" type="curve" smooth="yes"/>
      <point x="241" y="627"/>
      <point x="233" y="672"/>
    </contour>
  </outline>
</glyph>
<glyph name="guillemotright" format="2">
  <advance width="570"/>
  <unicode hex="00BB"/>
  <outline>
    <contour>
      <point x="47" y="460" type="line"/>
      <point x="191" y="460" type="line"/>
      <point x="319" y="271" type="line"/>
      <point x="191" y="82" type="line"/>
      <point x="47" y="82" type="line"/>
      <point x="177" y="271" type="line"/>
    </contour>
    <contour>
      <point x="270" y="460" type="line"/>
      <point x="414" y="460" type="line"/>
      <point x="543" y="271" type="line"/>
      <point x="414" y="82" type="line"/>
      <point x="270" y="82" type="line"/>
      <point x="401" y="271" type="line"/>
    </contour>
  </outline>
</glyph>
<glyph name="questiondown" format="2">
  <advance width="529"/>
  <unicode hex="00BF"/>
  <outline>
    <contour>
      <point x="274" y="366" type="curve" smooth="yes"/>
      <point x="219" y="366"/>
      <point x="187" y="401"/>
      <point x="187" y="453" type="curve" smooth="yes"/>
      <point x="187" y="505"/>
      <point x="219" y="537"/>
      <point x="274" y="537" type="curve" smooth="yes"/>
      <point x="329" y="537"/>
      <point x="362" y="506"/>
      <point x="362" y="453" type="curve" smooth="yes"/>
      <point x="362" y="401"/>
      <point x="329" y="366"/>
    </contour>
    <contour>
      <point x="342" y="305" type="line"/>
      <point x="355" y="224"/>
      <point x="326" y="190"/>
      <point x="289" y="150" type="curve" smooth="yes"/>
      <point x="249" y="107"/>
      <point x="185" y="66"/>
      <point x="185" y="10" type="curve" smooth="yes"/>
      <point x="185" y="-38"/>
      <point x="219" y="-61"/>
      <point x="267" y="-61" type="curve" smooth="yes"/>
      <point x="317" y="-61"/>
      <point x="364" y="-48"/>
      <point x="367" y="15" type="curve"/>
      <point x="503" y="15" type="line"/>
      <point x="504" y="-45"/>
      <point x="478" y="-105"/>
      <point x="430" y="-141" type="curve" smooth="yes"/>
      <point x="394" y="-168"/>
      <point x="347" y="-188"/>
      <point x="267" y="-189" type="curve"/>
      <point x="211" y="-189"/>
      <point x="158" y="-182"/>
      <point x="118" y="-155" type="curve" smooth="yes"/>
      <point x="73" y="-126"/>
      <point x="43" y="-76"/>
      <point x="44" y="-3" type="curve"/>
      <point x="44" y="52"/>
      <point x="63" y="91"/>
      <point x="100" y="130" type="curve" smooth="yes"/>
      <point x="151" y="185"/>
      <point x="216" y="226"/>
      <point x="213" y="305" type="curve"/>
    </contour>
  </outline>
</glyph>
<glyph name="Agrave" format="2">
  <advance width="708"/>
  <unicode hex="00C0"/>
  <outline>
    <contour>
      <point x="251" y="263" type="line"/>
      <point x="457" y="263" type="line"/>
      <point x="355" y="555" type="line"/>
    </contour>
    <contour>
      <point x="209" y="135" type="line"/>
      <point x="158" y="0" type="line"/>
      <point x="0" y="0" type="line"/>
      <point x="274" y="708" type="line"/>
      <point x="438" y="708" type="line"/>
      <point x="708" y="0" type="line"/>
      <point x="549" y="0" type="line"/>
      <point x="500" y="135" type="line"/>
    </contour>
    <contour>
      <point x="448" y="780" type="line"/>
      <point x="336" y="780" type="line"/>
      <point x="200" y="950" type="line"/>
      <point x="340" y="950" type="line"/>
    </contour>
  </outline>
</glyph>
<glyph name="Acircumflex" format="2">
  <advance width="708"/>
  <unicode hex="00C2"/>
  <outline>
    <contour>
      <point x="251" y="263" type="line"/>
      <point x="457" y="263" type="line"/>
      <point x="355" y="555" type="line"/>
    </contour>
    <contour>
      <point x="209" y="135" type="line"/>
      <point x="158" y="0" type="line"/>
      <point x="0" y="0" type="line"/>
      <point x="274" y="708" type="line"/>
      <point x="438" y="708" type="line"/>
      <point x="708" y="0" type="line"/>
      <point x="549" y="0" type="line"/>
      <point x="500" y="135" type="line"/>
    </contour>
    <contour>
      <point x="553" y="780" type="line"/>
      <point x="427" y="780" type="line"/>
      <point x="357" y="866" type="line"/>
      <point x="289" y="780" type="line"/>
      <point x="164" y="780" type="line"/>
      <point x="313" y="950" type="line"/>
      <point x="401" y="950" type="line"/>
    </contour>
  </outline>
</glyph>
<glyph name="Atilde" format="2">
  <advance width="708"/>
  <unicode hex="00C3"/>
  <outline>
    <contour>
      <point x="251" y="263" type="line"/>
      <point x="457" y="263" type="line"/>
      <point x="355" y="555" type="line"/>
    </contour>
    <contour>
      <point x="209" y="135" type="line"/>
      <point x="158" y="0" type="line"/>
      <point x="0" y="0" type="line"/>
      <point x="274" y="708" type="line"/>
      <point x="438" y="708" type="line"/>
      <point x="708" y="0" type="line"/>
      <point x="549" y="0" type="line"/>
      <point x="500" y="135" type="line"/>
    </contour>
    <contour>
      <point x="174" y="778" type="line"/>
      <point x="174" y="866"/>
      <point x="201" y="933"/>
      <point x="287" y="936" type="curve" smooth="yes"/>
      <point x="324" y="937"/>
      <point x="349" y="922"/>
      <point x="370" y="904" type="curve" smooth="yes"/>
      <point x="391" y="886"/>
      <point x="409" y="869"/>
      <point x="425" y="869" type="curve" smooth="yes"/>
      <point x="457" y="869"/>
      <point x="454" y="909"/>
      <point x="454" y="930" type="curve"/>
      <point x="546" y="930" type="line"/>
      <point x="546" y="841"/>
      <point x="522" y="775"/>
      <point x="438" y="773" type="curve" smooth="yes"/>
      <point x="365" y="772"/>
      <point x="328" y="843"/>
      <point x="295" y="843" type="curve" smooth="yes"/>
      <point x="265" y="843"/>
      <point x="263" y="799"/>
      <point x="266" y="778" type="curve"/>
    </contour>
  </outline>
</glyph>
<glyph name="Adieresis" format="2">
  <advance width="708"/>
  <unicode hex="00C4"/>
  <outline>
    <contour>
      <point x="251" y="263" type="line"/>
      <point x="457" y="263" type="line"/>
      <point x="355" y="555" type="line"/>
    </contour>
    <contour>
      <point x="209" y="135" type="line"/>
      <point x="158" y="0" type="line"/>
      <point x="0" y="0" type="line"/>
      <point x="274" y="708" type="line"/>
      <point x="438" y="708" type="line"/>
      <point x="708" y="0" type="line"/>
      <point x="549" y="0" type="line"/>
      <point x="500" y="135" type="line"/>
    </contour>
    <contour>
      <point x="230" y="940" type="curve" smooth="yes"/>
      <point x="281" y="940"/>
      <point x="316" y="908"/>
      <point x="316" y="857" type="curve" smooth="yes"/>
      <point x="316" y="804"/>
      <point x="281" y="772"/>
      <point x="230" y="772" type="curve" smooth="yes"/>
      <point x="178" y="772"/>
      <point x="143" y="804"/>
      <point x="143" y="857" type="curve" smooth="yes"/>
      <point x="143" y="908"/>
      <point x="178" y="940"/>
    </contour>
    <contour>
      <point x="491" y="940" type="curve" smooth="yes"/>
      <point x="542" y="940"/>
      <point x="578" y="908"/>
      <point x="578" y="857" type="curve" smooth="yes"/>
      <point x="578" y="804"/>
      <point x="542" y="772"/>
      <point x="491" y="772" type="curve" smooth="yes"/>
      <point x="440" y="772"/>
      <point x="405" y="804"/>
      <point x="405" y="857" type="curve" smooth="yes"/>
      <point x="405" y="908"/>
      <point x="440" y="940"/>
    </contour>
  </outline>
</glyph>
<glyph name="Aring" format="2">
  <advance width="708"/>
  <unicode hex="00C5"/>
  <outline>
    <contour>
      <point x="251" y="263" type="line"/>
      <point x="457" y="263" type="line"/>
      <point x="355" y="555" type="line"/>
    </contour>
    <contour>
      <point x="209" y="135" type="line"/>
      <point x="158" y="0" type="line"/>
      <point x="0" y="0" type="line"/>
      <point x="274" y="708" type="line"/>
      <point x="438" y="708" type="line"/>
      <point x="708" y="0" type="line"/>
      <point x="549" y="0" type="line"/>
      <point x="500" y="135" type="line"/>
    </contour>
    <contour>
      <point x="354" y="968" type="curve" smooth="yes"/>
      <point x="421" y="968"/>
      <point x="469" y="923"/>
      <point x="469" y="855" type="curve" smooth="yes"/>
      <point x="469" y="787"/>
      <point x="421" y="745"/>
      <point x="353" y="745" type="curve" smooth="yes"/>
      <point x="286" y="745"/>
      <point x="238" y="787"/>
      <point x="238" y="855" type="curve" smooth="yes"/>
      <point x="238" y="923"/>
      <point x="287" y="968"/>
    </contour>
    <contour>
      <point x="353" y="897" type="curve" smooth="yes"/>
      <point x="329" y="897"/>
      <point x="312" y="880"/>
      <point x="312" y="856" type="curve" smooth="yes"/>
      <point x="312" y="832"/>
      <point x="329" y="815"/>
      <point x="353" y="815" type="curve" smooth="yes"/>
      <point x="378" y="815"/>
      <point x="395" y="832"/>
      <point x="395" y="856" type="curve" smooth="yes"/>
      <point x="395" y="881"/>
      <point x="378" y="897"/>
    </contour>
  </outline>
</glyph>
<glyph name="AE" format="2">
  <advance width="970"/>
  <unicode hex="00C6"/>
  <outline>
    <contour>
      <point x="279" y="272" type="line"/>
      <point x="438" y="272" type="line"/>
      <point x="438" y="579" type="line"/>
      <point x="420" y="579" type="line"/>
    </contour>
    <contour>
      <point x="438" y="144" type="line"/>
      <point x="221" y="144" type="line"/>
      <point x="157" y="0" type="line"/>
      <point x="0" y="0" type="line"/>
      <point x="331" y="708" type="line"/>
      <point x="934" y="708" type="line"/>
      <point x="934" y="579" type="line"/>
      <point x="583" y="579" type="line"/>
      <point x="583" y="414" type="line"/>
      <point x="888" y="414" type="line"/>
      <point x="888" y="285" type="line"/>
      <point x="583" y="285" type="line"/>
      <point x="583" y="128" type="line"/>
      <point x="934" y="128" type="line"/>
      <point x="934" y="0" type="line"/>
      <point x="438" y="0" type="line"/>
    </contour>
  </outline>
</glyph>
<glyph name="Ccedilla" format="2">
  <advance width="712"/>
  <unicode hex="00C7"/>
  <outline>
    <contour>
      <point x="185" y="356" type="curve" smooth="yes"/>
      <point x="185" y="236"/>
      <point x="244" y="124"/>
      <point x="379" y="124" type="curve" smooth="yes"/>
      <point x="464" y="124"/>
      <point x="523" y="164"/>
      <point x="536" y="232" type="curve"/>
      <point x="676" y="232" type="line"/>
      <point x="663" y="86"/>
      <point x="546" y="7"/>
      <point x="409" y="-4" type="curve"/>
      <point x="399" y="-40" type="line"/>
      <point x="464" y="-31"/>
      <point x="508" y="-67"/>
      <point x="508" y="-135" type="curve" smooth="yes"/>
      <point x="508" y="-186"/>
      <point x="474" y="-223"/>
      <point x="437" y="-240" type="curve" smooth="yes"/>
      <point x="402" y="-256"/>
      <point x="366" y="-260"/>
      <point x="294" y="-253" type="curve"/>
      <point x="295" y="-174" type="line"/>
      <point x="384" y="-182"/>
      <point x="405" y="-167"/>
      <point x="405" y="-139" type="curve" smooth="yes"/>
      <point x="405" y="-114"/>
      <point x="388" y="-104"/>
      <point x="351" y="-103" type="curve"/>
      <point x="334" y="-102"/>
      <point x="309" y="-104"/>
      <point x="296" y="-104" type="curve"/>
      <point x="324" y="-3" type="line"/>
      <point x="136" y="18"/>
      <point x="36" y="163"/>
      <point x="36" y="355" type="curve" smooth="yes"/>
      <point x="36" y="562"/>
      <point x="159" y="717"/>
      <point x="379" y="717" type="curve" smooth="yes"/>
      <point x="533" y="717"/>
      <point x="660" y="645"/>
      <point x="676" y="477" type="curve"/>
      <point x="536" y="477" type="line"/>
      <point x="521" y="545"/>
      <point x="464" y="588"/>
      <point x="379" y="588" type="curve" smooth="yes"/>
      <point x="244" y="588"/>
      <point x="185" y="477"/>
    </contour>
  </outline>
</glyph>
<glyph name="Egrave" format="2">
  <advance width="617"/>
  <unicode hex="00C8"/>
  <outline>
    <contour>
      <point x="581" y="708" type="line"/>
      <point x="581" y="579" type="line"/>
      <point x="220" y="579" type="line"/>
      <point x="220" y="414" type="line"/>
      <point x="535" y="414" type="line"/>
      <point x="535" y="285" type="line"/>
      <point x="220" y="285" type="line"/>
      <point x="220" y="128" type="line"/>
      <point x="581" y="128" type="line"/>
      <point x="581" y="0" type="line"/>
      <point x="75" y="0" type="line"/>
      <point x="75" y="708" type="line"/>
    </contour>
    <contour>
      <point x="414" y="780" type="line"/>
      <point x="302" y="780" type="line"/>
      <point x="166" y="950" type="line"/>
      <point x="306" y="950" type="line"/>
    </contour>
  </outline>
</glyph>
<glyph name="Eacute" format="2">
  <advance width="617"/>
  <unicode hex="00C9"/>
  <outline>
    <contour>
      <point x="581" y="708" type="line"/>
      <point x="581" y="579" type="line"/>
      <point x="220" y="579" type="line"/>
      <point x="220" y="414" type="line"/>
      <point x="535" y="414" type="line"/>
      <point x="535" y="285" type="line"/>
      <point x="220" y="285" type="line"/>
      <point x="220" y="128" type="line"/>
      <point x="581" y="128" type="line"/>
      <point x="581" y="0" type="line"/>
      <point x="75" y="0" type="line"/>
      <point x="75" y="708" type="line"/>
    </contour>
    <contour>
      <point x="362" y="950" type="line"/>
      <point x="502" y="950" type="line"/>
      <point x="366" y="780" type="line"/>
      <point x="254" y="780" type="line"/>
    </contour>
  </outline>
</glyph>
<glyph name="Ecircumflex" format="2">
  <advance width="617"/>
  <unicode hex="00CA"/>
  <outline>
    <contour>
      <point x="581" y="708" type="line"/>
      <point x="581" y="579" type="line"/>
      <point x="220" y="579" type="line"/>
      <point x="220" y="414" type="line"/>
      <point x="535" y="414" type="line"/>
      <point x="535" y="285" type="line"/>
      <point x="220" y="285" type="line"/>
      <point x="220" y="128" type="line"/>
      <point x="581" y="128" type="line"/>
      <point x="581" y="0" type="line"/>
      <point x="75" y="0" type="line"/>
      <point x="75" y="708" type="line"/>
    </contour>
    <contour>
      <point x="523" y="780" type="line"/>
      <point x="397" y="780" type="line"/>
      <point x="327" y="866" type="line"/>
      <point x="259" y="780" type="line"/>
      <point x="134" y="780" type="line"/>
      <point x="283" y="950" type="line"/>
      <point x="371" y="950" type="line"/>
    </contour>
  </outline>
</glyph>
<glyph name="Edieresis" format="2">
  <advance width="617"/>
  <unicode hex="00CB"/>
  <outline>
    <contour>
      <point x="581" y="708" type="line"/>
      <point x="581" y="579" type="line"/>
      <point x="220" y="579" type="line"/>
      <point x="220" y="414" type="line"/>
      <point x="535" y="414" type="line"/>
      <point x="535" y="285" type="line"/>
      <point x="220" y="285" type="line"/>
      <point x="220" y="128" type="line"/>
      <point x="581" y="128" type="line"/>
      <point x="581" y="0" type="line"/>
      <point x="75" y="0" type="line"/>
      <point x="75" y="708" type="line"/>
    </contour>
    <contour>
      <point x="202" y="941" type="curve" smooth="yes"/>
      <point x="253" y="941"/>
      <point x="288" y="909"/>
      <point x="288" y="858" type="curve" smooth="yes"/>
      <point x="288" y="805"/>
      <point x="253" y="773"/>
      <point x="202" y="773" type="curve" smooth="yes"/>
      <point x="150" y="773"/>
      <point x="115" y="805"/>
      <point x="115" y="858" type="curve" smooth="yes"/>
      <point x="115" y="909"/>
      <point x="150" y="941"/>
    </contour>
    <contour>
      <point x="463" y="941" type="curve" smooth="yes"/>
      <point x="514" y="941"/>
      <point x="550" y="909"/>
      <point x="550" y="858" type="curve" smooth="yes"/>
      <point x="550" y="805"/>
      <point x="514" y="773"/>
      <point x="463" y="773" type="curve" smooth="yes"/>
      <point x="412" y="773"/>
      <point x="377" y="805"/>
      <point x="377" y="858" type="curve" smooth="yes"/>
      <point x="377" y="909"/>
      <point x="412" y="941"/>
    </contour>
  </outline>
</glyph>
<glyph name="Igrave" format="2">
  <advance width="295"/>
  <unicode hex="00CC"/>
  <outline>
    <contour>
      <point x="220" y="0" type="line"/>
      <point x="75" y="0" type="line"/>
      <point x="75" y="708" type="line"/>
      <point x="220" y="708" type="line"/>
    </contour>
    <contour>
      <point x="231" y="780" type="line"/>
      <point x="119" y="780" type="line"/>
      <point x="-17" y="950" type="line"/>
      <point x="123" y="950" type="line"/>
    </contour>
  </outline>
</glyph>
<glyph name="Iacute" format="2">
  <advance width="295"/>
  <unicode hex="00CD"/>
  <outline>
    <contour>
      <point x="220" y="0" type="line"/>
      <point x="75" y="0" type="line"/>
      <point x="75" y="708" type="line"/>
      <point x="220" y="708" type="line"/>
    </contour>
    <contour>
      <point x="181" y="950" type="line"/>
      <point x="321" y="950" type="line"/>
      <point x="185" y="780" type="line"/>
      <point x="73" y="780" type="line"/>
    </contour>
  </outline>
</glyph>
<glyph name="Icircumflex" format="2">
  <advance width="295"/>
  <unicode hex="00CE"/>
  <outline>
    <contour>
      <point x="220" y="0" type="line"/>
      <point x="75" y="0" type="line"/>
      <point x="75" y="708" type="line"/>
      <point x="220" y="708" type="line"/>
    </contour>
    <contour>
      <point x="344" y="780" type="line"/>
      <point x="218" y="780" type="line"/>
      <point x="148" y="866" type="line"/>
      <point x="80" y="780" type="line"/>
      <point x="-45" y="780" type="line"/>
      <point x="104" y="950" type="line"/>
      <point x="192" y="950" type="line"/>
    </contour>
  </outline>
</glyph>
<glyph name="Idieresis" format="2">
  <advance width="295"/>
  <unicode hex="00CF"/>
  <outline>
    <contour>
      <point x="220" y="0" type="line"/>
      <point x="75" y="0" type="line"/>
      <point x="75" y="708" type="line"/>
      <point x="220" y="708" type="line"/>
    </contour>
    <contour>
      <point x="27" y="940" type="curve" smooth="yes"/>
      <point x="78" y="940"/>
      <point x="113" y="908"/>
      <point x="113" y="857" type="curve" smooth="yes"/>
      <point x="113" y="804"/>
      <point x="78" y="772"/>
      <point x="27" y="772" type="curve" smooth="yes"/>
      <point x="-25" y="772"/>
      <point x="-60" y="804"/>
      <point x="-60" y="857" type="curve" smooth="yes"/>
      <point x="-60" y="908"/>
      <point x="-25" y="940"/>
    </contour>
    <contour>
      <point x="268" y="940" type="curve" smooth="yes"/>
      <point x="319" y="940"/>
      <point x="355" y="908"/>
      <point x="355" y="857" type="curve" smooth="yes"/>
      <point x="355" y="804"/>
      <point x="319" y="772"/>
      <point x="268" y="772" type="curve" smooth="yes"/>
      <point x="217" y="772"/>
      <point x="182" y="804"/>
      <point x="182" y="857" type="curve" smooth="yes"/>
      <point x="182" y="908"/>
      <point x="217" y="940"/>
    </contour>
  </outline>
</glyph>
<glyph name="Ntilde" format="2">
  <advance width="767"/>
  <unicode hex="00D1"/>
  <outline>
    <contour>
      <point x="214" y="708" type="line"/>
      <point x="550" y="234" type="line"/>
      <point x="550" y="708" type="line"/>
      <point x="692" y="708" type="line"/>
      <point x="692" y="0" type="line"/>
      <point x="553" y="0" type="line"/>
      <point x="217" y="472" type="line"/>
      <point x="217" y="0" type="line"/>
      <point x="75" y="0" type="line"/>
      <point x="75" y="708" type="line"/>
    </contour>
    <contour>
      <point x="206" y="778" type="line"/>
      <point x="206" y="866"/>
      <point x="233" y="933"/>
      <point x="319" y="936" type="curve" smooth="yes"/>
      <point x="356" y="937"/>
      <point x="381" y="922"/>
      <point x="402" y="904" type="curve" smooth="yes"/>
      <point x="423" y="886"/>
      <point x="441" y="869"/>
      <point x="457" y="869" type="curve" smooth="yes"/>
      <point x="489" y="869"/>
      <point x="486" y="909"/>
      <point x="486" y="930" type="curve"/>
      <point x="578" y="930" type="line"/>
      <point x="578" y="841"/>
      <point x="554" y="775"/>
      <point x="470" y="773" type="curve" smooth="yes"/>
      <point x="397" y="772"/>
      <point x="360" y="843"/>
      <point x="327" y="843" type="curve" smooth="yes"/>
      <point x="297" y="843"/>
      <point x="295" y="799"/>
      <point x="298" y="778" type="curve"/>
    </contour>
  </outline>
</glyph>
<glyph name="Otilde" format="2">
  <advance width="772"/>
  <unicode hex="00D5"/>
  <outline>
    <contour>
      <point x="185" y="357" type="curve" smooth="yes"/>
      <point x="185" y="235"/>
      <point x="250" y="124"/>
      <point x="386" y="124" type="curve" smooth="yes"/>
      <point x="518" y="124"/>
      <point x="587" y="232"/>
      <point x="587" y="356" type="curve" smooth="yes"/>
      <point x="587" y="477"/>
      <point x="522" y="588"/>
      <point x="386" y="588" type="curve" smooth="yes"/>
      <point x="252" y="588"/>
      <point x="185" y="479"/>
    </contour>
    <contour>
      <point x="387" y="717" type="curve" smooth="yes"/>
      <point x="604" y="717"/>
      <point x="736" y="571"/>
      <point x="736" y="358" type="curve" smooth="yes"/>
      <point x="736" y="150"/>
      <point x="605" y="-6"/>
      <point x="384" y="-6" type="curve" smooth="yes"/>
      <point x="165" y="-6"/>
      <point x="36" y="148"/>
      <point x="36" y="355" type="curve" smooth="yes"/>
      <point x="36" y="568"/>
      <point x="171" y="717"/>
    </contour>
    <contour>
      <point x="208" y="778" type="line"/>
      <point x="208" y="866"/>
      <point x="236" y="935"/>
      <point x="321" y="936" type="curve" smooth="yes"/>
      <point x="399" y="936"/>
      <point x="424" y="869"/>
      <point x="459" y="869" type="curve" smooth="yes"/>
      <point x="491" y="869"/>
      <point x="488" y="909"/>
      <point x="488" y="930" type="curve"/>
      <point x="580" y="930" type="line"/>
      <point x="580" y="841"/>
      <point x="556" y="773"/>
      <point x="472" y="773" type="curve" smooth="yes"/>
      <point x="399" y="773"/>
      <point x="362" y="843"/>
      <point x="329" y="843" type="curve" smooth="yes"/>
      <point x="299" y="843"/>
      <point x="297" y="799"/>
      <point x="300" y="778" type="curve"/>
    </contour>
  </outline>
</glyph>
<glyph name="Odieresis" format="2">
  <advance width="772"/>
  <unicode hex="00D6"/>
  <outline>
    <contour>
      <point x="185" y="357" type="curve" smooth="yes"/>
      <point x="185" y="235"/>
      <point x="253" y="124"/>
      <point x="386" y="124" type="curve" smooth="yes"/>
      <point x="518" y="124"/>
      <point x="587" y="232"/>
      <point x="587" y="356" type="curve" smooth="yes"/>
      <point x="587" y="477"/>
      <point x="522" y="588"/>
      <point x="386" y="588" type="curve" smooth="yes"/>
      <point x="252" y="588"/>
      <point x="185" y="479"/>
    </contour>
    <contour>
      <point x="387" y="717" type="curve" smooth="yes"/>
      <point x="604" y="717"/>
      <point x="736" y="571"/>
      <point x="736" y="358" type="curve" smooth="yes"/>
      <point x="736" y="150"/>
      <point x="605" y="-6"/>
      <point x="384" y="-6" type="curve" smooth="yes"/>
      <point x="164" y="-6"/>
      <point x="36" y="148"/>
      <point x="36" y="355" type="curve" smooth="yes"/>
      <point x="36" y="568"/>
      <point x="171" y="717"/>
    </contour>
    <contour>
      <point x="260" y="940" type="curve" smooth="yes"/>
      <point x="311" y="940"/>
      <point x="346" y="908"/>
      <point x="346" y="857" type="curve" smooth="yes"/>
      <point x="346" y="804"/>
      <point x="311" y="772"/>
      <point x="260" y="772" type="curve" smooth="yes"/>
      <point x="208" y="772"/>
      <point x="173" y="804"/>
      <point x="173" y="857" type="curve" smooth="yes"/>
      <point x="173" y="908"/>
      <point x="208" y="940"/>
    </contour>
    <contour>
      <point x="521" y="940" type="curve" smooth="yes"/>
      <point x="572" y="940"/>
      <point x="608" y="908"/>
      <point x="608" y="857" type="curve" smooth="yes"/>
      <point x="608" y="804"/>
      <point x="572" y="772"/>
      <point x="521" y="772" type="curve" smooth="yes"/>
      <point x="470" y="772"/>
      <point x="435" y="804"/>
      <point x="435" y="857" type="curve" smooth="yes"/>
      <point x="435" y="908"/>
      <point x="470" y="940"/>
    </contour>
  </outline>
</glyph>
<glyph name="multiply" format="2">
  <advance width="571"/>
  <unicode hex="00D7"/>
  <outline>
    <contour>
      <point x="285" y="277" type="line"/>
      <point x="132" y="124" type="line"/>
      <point x="50" y="208" type="line"/>
      <point x="202" y="361" type="line"/>
      <point x="50" y="513" type="line"/>
      <point x="133" y="596" type="line"/>
      <point x="286" y="444" type="line"/>
      <point x="438" y="596" type="line"/>
      <point x="521" y="514" type="line"/>
      <point x="368" y="361" type="line"/>
      <point x="521" y="209" type="line"/>
      <point x="437" y="124" type="line"/>
    </contour>
  </outline>
</glyph>
<glyph name="Oslash" format="2">
  <advance width="772"/>
  <unicode hex="00D8"/>
  <outline>
    <contour>
      <point x="387" y="717" type="curve" smooth="yes"/>
      <point x="412" y="717"/>
      <point x="436" y="715"/>
      <point x="459" y="711" type="curve"/>
      <point x="500" y="818" type="line"/>
      <point x="629" y="818" type="line"/>
      <point x="573" y="671" type="line"/>
      <point x="688" y="607"/>
      <point x="736" y="485"/>
      <point x="736" y="358" type="curve" smooth="yes"/>
      <point x="736" y="146"/>
      <point x="601" y="-9"/>
      <point x="384" y="-6" type="curve" smooth="yes"/>
      <point x="361" y="-6"/>
      <point x="340" y="-5"/>
      <point x="320" y="-2" type="curve"/>
      <point x="277" y="-111" type="line"/>
      <point x="148" y="-111" type="line"/>
      <point x="206" y="36" type="line"/>
      <point x="89" y="100"/>
      <point x="36" y="224"/>
      <point x="36" y="355" type="curve" smooth="yes"/>
      <point x="36" y="568"/>
      <point x="171" y="717"/>
    </contour>
    <contour>
      <point x="258" y="170" type="curve"/>
      <point x="418" y="586" type="line"/>
      <point x="407" y="587"/>
      <point x="397" y="588"/>
      <point x="386" y="588" type="curve" smooth="yes"/>
      <point x="253" y="588"/>
      <point x="185" y="480"/>
      <point x="185" y="357" type="curve" smooth="yes"/>
      <point x="185" y="289"/>
      <point x="206" y="217"/>
    </contour>
    <contour>
      <point x="519" y="538" type="curve"/>
      <point x="361" y="126" type="line"/>
      <point x="369" y="125"/>
      <point x="377" y="124"/>
      <point x="386" y="124" type="curve" smooth="yes"/>
      <point x="519" y="121"/>
      <point x="587" y="233"/>
      <point x="587" y="356" type="curve" smooth="yes"/>
      <point x="587" y="420"/>
      <point x="567" y="491"/>
    </contour>
  </outline>
</glyph>
<glyph name="Ucircumflex" format="2">
  <advance width="752"/>
  <unicode hex="00DB"/>
  <outline>
    <contour>
      <point x="376" y="-8" type="curve" smooth="yes"/>
      <point x="154" y="-8"/>
      <point x="70" y="125"/>
      <point x="70" y="328" type="curve" smooth="yes"/>
      <point x="70" y="708" type="line"/>
      <point x="215" y="708" type="line"/>
      <point x="215" y="318" type="line" smooth="yes"/>
      <point x="215" y="215"/>
      <point x="254" y="121"/>
      <point x="378" y="121" type="curve" smooth="yes"/>
      <point x="502" y="121"/>
      <point x="538" y="217"/>
      <point x="538" y="318" type="curve" smooth="yes"/>
      <point x="538" y="708" type="line"/>
      <point x="682" y="708" type="line"/>
      <point x="682" y="328" type="line" smooth="yes"/>
      <point x="682" y="126"/>
      <point x="598" y="-8"/>
    </contour>
    <contour>
      <point x="572" y="780" type="line"/>
      <point x="446" y="780" type="line"/>
      <point x="376" y="866" type="line"/>
      <point x="308" y="780" type="line"/>
      <point x="183" y="780" type="line"/>
      <point x="332" y="950" type="line"/>
      <point x="420" y="950" type="line"/>
    </contour>
  </outline>
</glyph>
<glyph name="Udieresis" format="2">
  <advance width="752"/>
  <unicode hex="00DC"/>
  <outline>
    <contour>
      <point x="376" y="-8" type="curve" smooth="yes"/>
      <point x="154" y="-8"/>
      <point x="70" y="125"/>
      <point x="70" y="328" type="curve" smooth="yes"/>
      <point x="70" y="708" type="line"/>
      <point x="215" y="708" type="line"/>
      <point x="215" y="318" type="line" smooth="yes"/>
      <point x="215" y="215"/>
      <point x="254" y="121"/>
      <point x="378" y="121" type="curve" smooth="yes"/>
      <point x="502" y="121"/>
      <point x="538" y="217"/>
      <point x="538" y="318" type="curve" smooth="yes"/>
      <point x="538" y="708" type="line"/>
      <point x="682" y="708" type="line"/>
      <point x="682" y="328" type="line" smooth="yes"/>
      <point x="682" y="126"/>
      <point x="598" y="-8"/>
    </contour>
    <contour>
      <point x="248" y="940" type="curve" smooth="yes"/>
      <point x="299" y="940"/>
      <point x="334" y="908"/>
      <point x="334" y="857" type="curve" smooth="yes"/>
      <point x="334" y="804"/>
      <point x="299" y="772"/>
      <point x="248" y="772" type="curve" smooth="yes"/>
      <point x="196" y="772"/>
      <point x="161" y="804"/>
      <point x="161" y="857" type="curve" smooth="yes"/>
      <point x="161" y="908"/>
      <point x="196" y="940"/>
    </contour>
    <contour>
      <point x="509" y="940" type="curve" smooth="yes"/>
      <point x="560" y="940"/>
      <point x="596" y="908"/>
      <point x="596" y="857" type="curve" smooth="yes"/>
      <point x="596" y="804"/>
      <point x="560" y="772"/>
      <point x="509" y="772" type="curve" smooth="yes"/>
      <point x="458" y="772"/>
      <point x="423" y="804"/>
      <point x="423" y="857" type="curve" smooth="yes"/>
      <point x="423" y="908"/>
      <point x="458" y="940"/>
    </contour>
  </outline>
</glyph>
<glyph name="Yacute" format="2">
  <advance width="676"/>
  <unicode hex="00DD"/>
  <outline>
    <contour>
      <point x="510" y="708" type="line"/>
      <point x="674" y="708" type="line"/>
      <point x="412" y="265" type="line"/>
      <point x="412" y="0" type="line"/>
      <point x="267" y="0" type="line"/>
      <point x="267" y="263" type="line"/>
      <point x="2" y="708" type="line"/>
      <point x="169" y="708" type="line"/>
      <point x="341" y="402" type="line"/>
    </contour>
    <contour>
      <point x="386" y="950" type="line"/>
      <point x="526" y="950" type="line"/>
      <point x="390" y="780" type="line"/>
      <point x="278" y="780" type="line"/>
    </contour>
  </outline>
</glyph>
<glyph name="Thorn" format="2">
  <advance width="664"/>
  <unicode hex="00DE"/>
  <outline>
    <contour>
      <point x="75" y="708" type="line"/>
      <point x="220" y="708" type="line"/>
      <point x="220" y="603" type="line"/>
      <point x="347" y="603" type="line" smooth="yes"/>
      <point x="518" y="603"/>
      <point x="626" y="537"/>
      <point x="626" y="353" type="curve" smooth="yes"/>
      <point x="626" y="193"/>
      <point x="512" y="104"/>
      <point x="357" y="104" type="curve" smooth="yes"/>
      <point x="220" y="104" type="line"/>
      <point x="220" y="0" type="line"/>
      <point x="75" y="0" type="line"/>
    </contour>
    <contour>
      <point x="220" y="474" type="line"/>
      <point x="220" y="232" type="line"/>
      <point x="349" y="232" type="line" smooth="yes"/>
      <point x="423" y="232"/>
      <point x="484" y="271"/>
      <point x="484" y="350" type="curve" smooth="yes"/>
      <point x="484" y="441"/>
      <point x="431" y="474"/>
      <point x="348" y="474" type="curve" smooth="yes"/>
    </contour>
  </outline>
</glyph>
<glyph name="germandbls" format="2">
  <advance width="674"/>
  <unicode hex="00DF"/>
  <outline>
    <contour>
      <point x="75" y="556" type="line" smooth="yes"/>
      <point x="75" y="693"/>
      <point x="178" y="751"/>
      <point x="307" y="751" type="curve" smooth="yes"/>
      <point x="408" y="751"/>
      <point x="532" y="702"/>
      <point x="532" y="585" type="curve" smooth="yes"/>
      <point x="532" y="486"/>
      <point x="427" y="440"/>
      <point x="427" y="392" type="curve" smooth="yes"/>
      <point x="427" y="358"/>
      <point x="463" y="345"/>
      <point x="492" y="333" type="curve" smooth="yes"/>
      <point x="554" y="306" type="line" smooth="yes"/>
      <point x="615" y="279"/>
      <point x="651" y="234"/>
      <point x="651" y="163" type="curve" smooth="yes"/>
      <point x="651" y="46"/>
      <point x="557" y="-7"/>
      <point x="448" y="-7" type="curve" smooth="yes"/>
      <point x="341" y="-7"/>
      <point x="256" y="49"/>
      <point x="248" y="161" type="curve"/>
      <point x="381" y="161" type="line"/>
      <point x="381" y="124"/>
      <point x="410" y="107"/>
      <point x="445" y="107" type="curve" smooth="yes"/>
      <point x="480" y="107"/>
      <point x="509" y="122"/>
      <point x="510" y="161" type="curve" smooth="yes"/>
      <point x="510" y="193"/>
      <point x="490" y="206"/>
      <point x="458" y="221" type="curve" smooth="yes"/>
      <point x="392" y="250" type="line" smooth="yes"/>
      <point x="335" y="274"/>
      <point x="290" y="300"/>
      <point x="290" y="372" type="curve" smooth="yes"/>
      <point x="290" y="455"/>
      <point x="387" y="492"/>
      <point x="387" y="566" type="curve" smooth="yes"/>
      <point x="387" y="613"/>
      <point x="342" y="633"/>
      <point x="303" y="633" type="curve" smooth="yes"/>
      <point x="250" y="633"/>
      <point x="216" y="603"/>
      <point x="216" y="547" type="curve" smooth="yes"/>
      <point x="216" y="0" type="line"/>
      <point x="75" y="0" type="line"/>
    </contour>
  </outline>
</glyph>
<glyph name="adieresis" format="2">
  <advance width="573"/>
  <unicode hex="00E4"/>
  <outline>
    <contour>
      <point x="382" y="233" type="curve"/>
      <point x="349" y="233"/>
      <point x="314" y="233"/>
      <point x="279" y="233" type="curve" smooth="yes"/>
      <point x="235" y="233"/>
      <point x="179" y="218"/>
      <point x="179" y="166" type="curve" smooth="yes"/>
      <point x="179" y="124"/>
      <point x="216" y="102"/>
      <point x="258" y="101" type="curve" smooth="yes"/>
      <point x="297" y="101"/>
      <point x="333" y="114"/>
      <point x="357" y="142" type="curve" smooth="yes"/>
      <point x="374" y="162"/>
      <point x="382" y="188"/>
    </contour>
    <contour>
      <point x="387" y="65" type="line"/>
      <point x="347" y="12"/>
      <point x="290" y="-8"/>
      <point x="214" y="-8" type="curve" smooth="yes"/>
      <point x="169" y="-8"/>
      <point x="125" y="7"/>
      <point x="92" y="33" type="curve" smooth="yes"/>
      <point x="57" y="62"/>
      <point x="37" y="102"/>
      <point x="37" y="158" type="curve" smooth="yes"/>
      <point x="38" y="215"/>
      <point x="62" y="262"/>
      <point x="113" y="290" type="curve" smooth="yes"/>
      <point x="156" y="314"/>
      <point x="210" y="321"/>
      <point x="274" y="321" type="curve" smooth="yes"/>
      <point x="382" y="321" type="line"/>
      <point x="386" y="386"/>
      <point x="349" y="419"/>
      <point x="288" y="420" type="curve"/>
      <point x="247" y="420"/>
      <point x="200" y="410"/>
      <point x="192" y="368" type="curve"/>
      <point x="47" y="368" type="line"/>
      <point x="60" y="496"/>
      <point x="170" y="538"/>
      <point x="285" y="538" type="curve" smooth="yes"/>
      <point x="350" y="538"/>
      <point x="420" y="527"/>
      <point x="469" y="473" type="curve" smooth="yes"/>
      <point x="515" y="422"/>
      <point x="519" y="349"/>
      <point x="519" y="285" type="curve" smooth="yes"/>
      <point x="519" y="0" type="line"/>
      <point x="390" y="0" type="line"/>
    </contour>
    <contour>
      <point x="163" y="759" type="curve" smooth="yes"/>
      <point x="214" y="759"/>
      <point x="249" y="727"/>
      <point x="249" y="676" type="curve" smooth="yes"/>
      <point x="249" y="623"/>
      <point x="214" y="591"/>
      <point x="163" y="591" type="curve" smooth="yes"/>
      <point x="111" y="591"/>
      <point x="76" y="623"/>
      <point x="76" y="676" type="curve" smooth="yes"/>
      <point x="76" y="727"/>
      <point x="111" y="759"/>
    </contour>
    <contour>
      <point x="424" y="759" type="curve" smooth="yes"/>
      <point x="475" y="759"/>
      <point x="511" y="727"/>
      <point x="511" y="676" type="curve" smooth="yes"/>
      <point x="511" y="623"/>
      <point x="475" y="591"/>
      <point x="424" y="591" type="curve" smooth="yes"/>
      <point x="373" y="591"/>
      <point x="338" y="623"/>
      <point x="338" y="676" type="curve" smooth="yes"/>
      <point x="338" y="727"/>
      <point x="373" y="759"/>
    </contour>
  </outline>
</glyph>
<glyph name="aring" format="2">
  <advance width="573"/>
  <unicode hex="00E5"/>
  <outline>
    <contour>
      <point x="382" y="233" type="curve"/>
      <point x="349" y="233"/>
      <point x="314" y="233"/>
      <point x="279" y="233" type="curve" smooth="yes"/>
      <point x="235" y="233"/>
      <point x="179" y="218"/>
      <point x="179" y="166" type="curve" smooth="yes"/>
      <point x="179" y="124"/>
      <point x="216" y="102"/>
      <point x="258" y="101" type="curve" smooth="yes"/>
      <point x="297" y="101"/>
      <point x="333" y="114"/>
      <point x="357" y="142" type="curve" smooth="yes"/>
      <point x="374" y="162"/>
      <point x="382" y="188"/>
    </contour>
    <contour>
      <point x="387" y="65" type="line"/>
      <point x="347" y="12"/>
      <point x="290" y="-8"/>
      <point x="214" y="-8" type="curve" smooth="yes"/>
      <point x="165" y="-8"/>
      <point x="125" y="7"/>
      <point x="92" y="33" type="curve" smooth="yes"/>
      <point x="57" y="62"/>
      <point x="37" y="102"/>
      <point x="37" y="158" type="curve" smooth="yes"/>
      <point x="38" y="215"/>
      <point x="62" y="262"/>
      <point x="113" y="290" type="curve" smooth="yes"/>
      <point x="156" y="314"/>
      <point x="210" y="321"/>
      <point x="274" y="321" type="curve" smooth="yes"/>
      <point x="382" y="321" type="line"/>
      <point x="386" y="386"/>
      <point x="349" y="419"/>
      <point x="288" y="420" type="curve"/>
      <point x="247" y="420"/>
      <point x="200" y="410"/>
      <point x="192" y="368" type="curve"/>
      <point x="47" y="368" type="line"/>
      <point x="60" y="496"/>
      <point x="170" y="538"/>
      <point x="285" y="538" type="curve" smooth="yes"/>
      <point x="350" y="538"/>
      <point x="420" y="527"/>
      <point x="469" y="473" type="curve" smooth="yes"/>
      <point x="515" y="422"/>
      <point x="520" y="349"/>
      <point x="519" y="285" type="curve"/>
      <point x="519" y="0" type="line"/>
      <point x="390" y="0" type="line"/>
    </contour>
    <contour>
      <point x="292" y="807" type="curve" smooth="yes"/>
      <point x="359" y="807"/>
      <point x="407" y="762"/>
      <point x="407" y="694" type="curve" smooth="yes"/>
      <point x="407" y="626"/>
      <point x="359" y="584"/>
      <point x="291" y="584" type="curve" smooth="yes"/>
      <point x="224" y="584"/>
      <point x="176" y="626"/>
      <point x="176" y="694" type="curve" smooth="yes"/>
      <point x="176" y="762"/>
      <point x="225" y="807"/>
    </contour>
    <contour>
      <point x="291" y="736" type="curve" smooth="yes"/>
      <point x="267" y="736"/>
      <point x="250" y="719"/>
      <point x="250" y="695" type="curve" smooth="yes"/>
      <point x="250" y="671"/>
      <point x="267" y="654"/>
      <point x="291" y="654" type="curve" smooth="yes"/>
      <point x="316" y="654"/>
      <point x="333" y="671"/>
      <point x="333" y="695" type="curve" smooth="yes"/>
      <point x="333" y="720"/>
      <point x="316" y="736"/>
    </contour>
  </outline>
</glyph>
<glyph name="ae" format="2">
  <advance width="921"/>
  <unicode hex="00E6"/>
  <outline>
    <contour>
      <point x="240" y="-8" type="curve" smooth="yes"/>
      <point x="137" y="-8"/>
      <point x="37" y="45"/>
      <point x="37" y="158" type="curve" smooth="yes"/>
      <point x="37" y="294"/>
      <point x="161" y="316"/>
      <point x="274" y="316" type="curve" smooth="yes"/>
      <point x="383" y="316" type="line"/>
      <point x="387" y="380"/>
      <point x="352" y="419"/>
      <point x="288" y="420" type="curve"/>
      <point x="251" y="420"/>
      <point x="200" y="412"/>
      <point x="192" y="368" type="curve"/>
      <point x="47" y="368" type="line"/>
      <point x="60" y="496"/>
      <point x="169" y="538"/>
      <point x="285" y="538" type="curve" smooth="yes"/>
      <point x="352" y="538"/>
      <point x="414" y="525"/>
      <point x="463" y="477" type="curve"/>
      <point x="510" y="521"/>
      <point x="569" y="538"/>
      <point x="632" y="538" type="curve" smooth="yes"/>
      <point x="821" y="538"/>
      <point x="907" y="395"/>
      <point x="878" y="219" type="curve"/>
      <point x="518" y="219" type="line"/>
      <point x="521" y="148"/>
      <point x="566" y="107"/>
      <point x="638" y="107" type="curve" smooth="yes"/>
      <point x="674" y="107"/>
      <point x="705" y="116"/>
      <point x="725" y="148" type="curve"/>
      <point x="873" y="148" type="line"/>
      <point x="841" y="34"/>
      <point x="746" y="-8"/>
      <point x="636" y="-8" type="curve" smooth="yes"/>
      <point x="564" y="-8"/>
      <point x="493" y="12"/>
      <point x="446" y="72" type="curve"/>
      <point x="382" y="3"/>
      <point x="323" y="-8"/>
    </contour>
    <contour>
      <point x="521" y="316" type="curve"/>
      <point x="747" y="316" type="line"/>
      <point x="747" y="383"/>
      <point x="700" y="417"/>
      <point x="636" y="417" type="curve" smooth="yes"/>
      <point x="577" y="417"/>
      <point x="518" y="379"/>
    </contour>
    <contour>
      <point x="382" y="219" type="curve"/>
      <point x="279" y="219" type="line" smooth="yes"/>
      <point x="236" y="219"/>
      <point x="179" y="218"/>
      <point x="179" y="166" type="curve" smooth="yes"/>
      <point x="179" y="122"/>
      <point x="219" y="101"/>
      <point x="258" y="101" type="curve" smooth="yes"/>
      <point x="342" y="101"/>
      <point x="382" y="142"/>
    </contour>
  </outline>
</glyph>
<glyph name="ccedilla" format="2">
  <advance width="564"/>
  <unicode hex="00E7"/>
  <outline>
    <contour>
      <point x="294" y="117" type="curve" smooth="yes"/>
      <point x="347" y="117"/>
      <point x="379" y="147"/>
      <point x="386" y="179" type="curve"/>
      <point x="534" y="179" type="line"/>
      <point x="518" y="58"/>
      <point x="430" y="2"/>
      <point x="327" y="-6" type="curve"/>
      <point x="316" y="-43" type="line"/>
      <point x="383" y="-34"/>
      <point x="430" y="-70"/>
      <point x="427" y="-141" type="curve" smooth="yes"/>
      <point x="424" y="-194"/>
      <point x="393" y="-231"/>
      <point x="355" y="-249" type="curve" smooth="yes"/>
      <point x="318" y="-266"/>
      <point x="283" y="-270"/>
      <point x="210" y="-263" type="curve"/>
      <point x="211" y="-181" type="line"/>
      <point x="301" y="-192"/>
      <point x="322" y="-172"/>
      <point x="322" y="-145" type="curve"/>
      <point x="323" y="-118"/>
      <point x="297" y="-110"/>
      <point x="268" y="-109" type="curve"/>
      <point x="248" y="-109"/>
      <point x="227" y="-109"/>
      <point x="212" y="-109" type="curve"/>
      <point x="240" y="-5" type="line"/>
      <point x="100" y="14"/>
      <point x="32" y="112"/>
      <point x="32" y="264" type="curve" smooth="yes"/>
      <point x="32" y="429"/>
      <point x="129" y="538"/>
      <point x="296" y="538" type="curve" smooth="yes"/>
      <point x="420" y="538"/>
      <point x="515" y="481"/>
      <point x="534" y="350" type="curve"/>
      <point x="386" y="350" type="line"/>
      <point x="379" y="382"/>
      <point x="345" y="412"/>
      <point x="293" y="412" type="curve" smooth="yes"/>
      <point x="202" y="412"/>
      <point x="172" y="342"/>
      <point x="172" y="262" type="curve" smooth="yes"/>
      <point x="172" y="177"/>
      <point x="206" y="117"/>
    </contour>
  </outline>
</glyph>
<glyph name="igrave" format="2">
  <advance width="253"/>
  <unicode hex="00EC"/>
  <outline>
    <contour>
      <point x="197" y="0" type="line"/>
      <point x="56" y="0" type="line"/>
      <point x="56" y="527" type="line"/>
      <point x="197" y="527" type="line"/>
    </contour>
    <contour>
      <point x="212" y="599" type="line"/>
      <point x="100" y="599" type="line"/>
      <point x="-36" y="769" type="line"/>
      <point x="104" y="769" type="line"/>
    </contour>
  </outline>
</glyph>
<glyph name="iacute" format="2">
  <advance width="253"/>
  <unicode hex="00ED"/>
  <outline>
    <contour>
      <point x="197" y="0" type="line"/>
      <point x="56" y="0" type="line"/>
      <point x="56" y="527" type="line"/>
      <point x="197" y="527" type="line"/>
    </contour>
    <contour>
      <point x="160" y="769" type="line"/>
      <point x="300" y="769" type="line"/>
      <point x="164" y="599" type="line"/>
      <point x="52" y="599" type="line"/>
    </contour>
  </outline>
</glyph>
<glyph name="icircumflex" format="2">
  <advance width="253"/>
  <unicode hex="00EE"/>
  <outline>
    <contour>
      <point x="197" y="0" type="line"/>
      <point x="56" y="0" type="line"/>
      <point x="56" y="527" type="line"/>
      <point x="197" y="527" type="line"/>
    </contour>
    <contour>
      <point x="321" y="599" type="line"/>
      <point x="195" y="599" type="line"/>
      <point x="125" y="685" type="line"/>
      <point x="57" y="599" type="line"/>
      <point x="-68" y="599" type="line"/>
      <point x="81" y="769" type="line"/>
      <point x="169" y="769" type="line"/>
    </contour>
  </outline>
</glyph>
<glyph name="idieresis" format="2">
  <advance width="253"/>
  <unicode hex="00EF"/>
  <outline>
    <contour>
      <point x="197" y="0" type="line"/>
      <point x="56" y="0" type="line"/>
      <point x="56" y="527" type="line"/>
      <point x="197" y="527" type="line"/>
    </contour>
    <contour>
      <point x="16" y="759" type="curve" smooth="yes"/>
      <point x="67" y="759"/>
      <point x="102" y="727"/>
      <point x="102" y="676" type="curve" smooth="yes"/>
      <point x="102" y="623"/>
      <point x="67" y="591"/>
      <point x="16" y="591" type="curve" smooth="yes"/>
      <point x="-36" y="591"/>
      <point x="-71" y="623"/>
      <point x="-71" y="676" type="curve" smooth="yes"/>
      <point x="-71" y="727"/>
      <point x="-36" y="759"/>
    </contour>
    <contour>
      <point x="237" y="759" type="curve" smooth="yes"/>
      <point x="288" y="759"/>
      <point x="324" y="727"/>
      <point x="324" y="676" type="curve" smooth="yes"/>
      <point x="324" y="623"/>
      <point x="288" y="591"/>
      <point x="237" y="591" type="curve" smooth="yes"/>
      <point x="186" y="591"/>
      <point x="151" y="623"/>
      <point x="151" y="676" type="curve" smooth="yes"/>
      <point x="151" y="727"/>
      <point x="186" y="759"/>
    </contour>
  </outline>
</glyph>
<glyph name="eth" format="2">
  <advance width="606"/>
  <unicode hex="00F0"/>
  <outline>
    <contour>
      <point x="247" y="529" type="line"/>
      <point x="200" y="608" type="line"/>
      <point x="273" y="650" type="line"/>
      <point x="242" y="667"/>
      <point x="201" y="677"/>
      <point x="164" y="682" type="curve"/>
      <point x="180" y="781" type="line"/>
      <point x="248" y="770"/>
      <point x="315" y="751"/>
      <point x="371" y="715" type="curve"/>
      <point x="482" y="782" type="line"/>
      <point x="532" y="702" type="line"/>
      <point x="452" y="653" type="line"/>
      <point x="544" y="553"/>
      <point x="566" y="445"/>
      <point x="566" y="313" type="curve" smooth="yes"/>
      <point x="566" y="139"/>
      <point x="492" y="-7"/>
      <point x="298" y="-7" type="curve" smooth="yes"/>
      <point x="139" y="-7"/>
      <point x="40" y="94"/>
      <point x="40" y="250" type="curve" smooth="yes"/>
      <point x="40" y="389"/>
      <point x="133" y="497"/>
      <point x="275" y="497" type="curve" smooth="yes"/>
      <point x="340" y="497"/>
      <point x="403" y="477"/>
      <point x="442" y="421" type="curve"/>
      <point x="439" y="475"/>
      <point x="398" y="556"/>
      <point x="353" y="591" type="curve"/>
    </contour>
    <contour>
      <point x="303" y="115" type="curve" smooth="yes"/>
      <point x="379" y="115"/>
      <point x="423" y="167"/>
      <point x="423" y="242" type="curve" smooth="yes"/>
      <point x="423" y="322"/>
      <point x="373" y="371"/>
      <point x="297" y="371" type="curve" smooth="yes"/>
      <point x="221" y="371"/>
      <point x="179" y="319"/>
      <point x="179" y="246" type="curve" smooth="yes"/>
      <point x="179" y="169"/>
      <point x="223" y="115"/>
    </contour>
  </outline>
</glyph>
<glyph name="ntilde" format="2">
  <advance width="612"/>
  <unicode hex="00F1"/>
  <outline>
    <contour>
      <point x="198" y="460" type="line"/>
      <point x="241" y="512"/>
      <point x="293" y="538"/>
      <point x="356" y="538" type="curve" smooth="yes"/>
      <point x="424" y="538"/>
      <point x="477" y="514"/>
      <point x="509" y="474" type="curve" smooth="yes"/>
      <point x="548" y="427"/>
      <point x="560" y="365"/>
      <point x="560" y="289" type="curve" smooth="yes"/>
      <point x="560" y="0" type="line"/>
      <point x="418" y="0" type="line"/>
      <point x="418" y="278" type="line" smooth="yes"/>
      <point x="418" y="316"/>
      <point x="411" y="351"/>
      <point x="394" y="376" type="curve" smooth="yes"/>
      <point x="377" y="400"/>
      <point x="347" y="412"/>
      <point x="311" y="412" type="curve" smooth="yes"/>
      <point x="219" y="412"/>
      <point x="197" y="330"/>
      <point x="197" y="260" type="curve" smooth="yes"/>
      <point x="197" y="0" type="line"/>
      <point x="56" y="0" type="line"/>
      <point x="56" y="527" type="line"/>
      <point x="191" y="527" type="line"/>
    </contour>
    <contour>
      <point x="129" y="597" type="line"/>
      <point x="129" y="685"/>
      <point x="157" y="754"/>
      <point x="242" y="755" type="curve" smooth="yes"/>
      <point x="279" y="755"/>
      <point x="304" y="741"/>
      <point x="325" y="723" type="curve" smooth="yes"/>
      <point x="346" y="705"/>
      <point x="364" y="688"/>
      <point x="380" y="688" type="curve" smooth="yes"/>
      <point x="412" y="688"/>
      <point x="409" y="728"/>
      <point x="409" y="749" type="curve"/>
      <point x="501" y="749" type="line"/>
      <point x="501" y="660"/>
      <point x="477" y="592"/>
      <point x="393" y="592" type="curve" smooth="yes"/>
      <point x="320" y="592"/>
      <point x="283" y="662"/>
      <point x="250" y="662" type="curve" smooth="yes"/>
      <point x="220" y="662"/>
      <point x="218" y="618"/>
      <point x="221" y="597" type="curve"/>
    </contour>
  </outline>
</glyph>
<glyph name="ocircumflex" format="2">
  <advance width="603"/>
  <unicode hex="00F4"/>
  <outline>
    <contour>
      <point x="301" y="412" type="curve" smooth="yes"/>
      <point x="214" y="412"/>
      <point x="174" y="349"/>
      <point x="174" y="265" type="curve" smooth="yes"/>
      <point x="174" y="180"/>
      <point x="214" y="117"/>
      <point x="301" y="117" type="curve" smooth="yes"/>
      <point x="388" y="117"/>
      <point x="426" y="180"/>
      <point x="426" y="265" type="curve" smooth="yes"/>
      <point x="426" y="349"/>
      <point x="388" y="412"/>
    </contour>
    <contour>
      <point x="301" y="-8" type="curve" smooth="yes"/>
      <point x="130" y="-8"/>
      <point x="35" y="94"/>
      <point x="35" y="266" type="curve" smooth="yes"/>
      <point x="35" y="433"/>
      <point x="134" y="538"/>
      <point x="301" y="538" type="curve" smooth="yes"/>
      <point x="466" y="538"/>
      <point x="568" y="433"/>
      <point x="568" y="266" type="curve" smooth="yes"/>
      <point x="568" y="93"/>
      <point x="472" y="-8"/>
    </contour>
    <contour>
      <point x="499" y="599" type="line"/>
      <point x="373" y="599" type="line"/>
      <point x="303" y="685" type="line"/>
      <point x="235" y="599" type="line"/>
      <point x="110" y="599" type="line"/>
      <point x="259" y="769" type="line"/>
      <point x="347" y="769" type="line"/>
    </contour>
  </outline>
</glyph>
<glyph name="otilde" format="2">
  <advance width="603"/>
  <unicode hex="00F5"/>
  <outline>
    <contour>
      <point x="301" y="412" type="curve" smooth="yes"/>
      <point x="214" y="412"/>
      <point x="174" y="349"/>
      <point x="174" y="265" type="curve" smooth="yes"/>
      <point x="174" y="180"/>
      <point x="214" y="117"/>
      <point x="301" y="117" type="curve" smooth="yes"/>
      <point x="388" y="117"/>
      <point x="426" y="180"/>
      <point x="426" y="265" type="curve" smooth="yes"/>
      <point x="426" y="349"/>
      <point x="388" y="412"/>
    </contour>
    <contour>
      <point x="301" y="-8" type="curve" smooth="yes"/>
      <point x="130" y="-8"/>
      <point x="35" y="94"/>
      <point x="35" y="266" type="curve" smooth="yes"/>
      <point x="35" y="433"/>
      <point x="134" y="538"/>
      <point x="301" y="538" type="curve" smooth="yes"/>
      <point x="466" y="538"/>
      <point x="568" y="433"/>
      <point x="568" y="266" type="curve" smooth="yes"/>
      <point x="568" y="93"/>
      <point x="472" y="-8"/>
    </contour>
    <contour>
      <point x="121" y="597" type="line"/>
      <point x="121" y="685"/>
      <point x="150" y="754"/>
      <point x="234" y="755" type="curve" smooth="yes"/>
      <point x="271" y="755"/>
      <point x="296" y="741"/>
      <point x="317" y="723" type="curve" smooth="yes"/>
      <point x="338" y="705"/>
      <point x="356" y="688"/>
      <point x="372" y="688" type="curve" smooth="yes"/>
      <point x="404" y="688"/>
      <point x="401" y="728"/>
      <point x="401" y="749" type="curve"/>
      <point x="493" y="749" type="line"/>
      <point x="493" y="660"/>
      <point x="468" y="592"/>
      <point x="385" y="592" type="curve" smooth="yes"/>
      <point x="312" y="592"/>
      <point x="275" y="662"/>
      <point x="242" y="662" type="curve" smooth="yes"/>
      <point x="212" y="662"/>
      <point x="210" y="618"/>
      <point x="213" y="597" type="curve"/>
    </contour>
  </outline>
</glyph>
<glyph name="odieresis" format="2">
  <advance width="603"/>
  <unicode hex="00F6"/>
  <outline>
    <contour>
      <point x="301" y="412" type="curve" smooth="yes"/>
      <point x="214" y="412"/>
      <point x="174" y="349"/>
      <point x="174" y="265" type="curve" smooth="yes"/>
      <point x="174" y="180"/>
      <point x="214" y="117"/>
      <point x="301" y="117" type="curve" smooth="yes"/>
      <point x="388" y="117"/>
      <point x="426" y="180"/>
      <point x="426" y="265" type="curve" smooth="yes"/>
      <point x="426" y="349"/>
      <point x="388" y="412"/>
    </contour>
    <contour>
      <point x="301" y="-8" type="curve" smooth="yes"/>
      <point x="130" y="-8"/>
      <point x="35" y="94"/>
      <point x="35" y="266" type="curve" smooth="yes"/>
      <point x="35" y="433"/>
      <point x="134" y="538"/>
      <point x="301" y="538" type="curve" smooth="yes"/>
      <point x="466" y="538"/>
      <point x="568" y="433"/>
      <point x="568" y="266" type="curve" smooth="yes"/>
      <point x="568" y="93"/>
      <point x="472" y="-8"/>
    </contour>
    <contour>
      <point x="180" y="759" type="curve" smooth="yes"/>
      <point x="231" y="759"/>
      <point x="266" y="727"/>
      <point x="266" y="676" type="curve" smooth="yes"/>
      <point x="266" y="623"/>
      <point x="231" y="591"/>
      <point x="180" y="591" type="curve" smooth="yes"/>
      <point x="128" y="591"/>
      <point x="93" y="623"/>
      <point x="93" y="676" type="curve" smooth="yes"/>
      <point x="93" y="727"/>
      <point x="128" y="759"/>
    </contour>
    <contour>
      <point x="441" y="759" type="curve" smooth="yes"/>
      <point x="492" y="759"/>
      <point x="528" y="727"/>
      <point x="528" y="676" type="curve" smooth="yes"/>
      <point x="528" y="623"/>
      <point x="492" y="591"/>
      <point x="441" y="591" type="curve" smooth="yes"/>
      <point x="390" y="591"/>
      <point x="355" y="623"/>
      <point x="355" y="676" type="curve" smooth="yes"/>
      <point x="355" y="727"/>
      <point x="390" y="759"/>
    </contour>
  </outline>
</glyph>
<glyph name="divide" format="2">
  <advance width="554"/>
  <unicode hex="00F7"/>
  <outline>
    <contour>
      <point x="276" y="240" type="curve" smooth="yes"/>
      <point x="327" y="240"/>
      <point x="356" y="208"/>
      <point x="356" y="159" type="curve" smooth="yes"/>
      <point x="356" y="111"/>
      <point x="327" y="81"/>
      <point x="276" y="81" type="curve" smooth="yes"/>
      <point x="228" y="81"/>
      <point x="197" y="110"/>
      <point x="197" y="159" type="curve" smooth="yes"/>
      <point x="197" y="208"/>
      <point x="228" y="240"/>
    </contour>
    <contour>
      <point x="276" y="640" type="curve" smooth="yes"/>
      <point x="327" y="640"/>
      <point x="356" y="607"/>
      <point x="356" y="559" type="curve" smooth="yes"/>
      <point x="356" y="510"/>
      <point x="327" y="481"/>
      <point x="276" y="481" type="curve" smooth="yes"/>
      <point x="228" y="481"/>
      <point x="197" y="508"/>
      <point x="197" y="559" type="curve" smooth="yes"/>
      <point x="197" y="607"/>
      <point x="228" y="640"/>
    </contour>
    <contour>
      <point x="47" y="304" type="line"/>
      <point x="47" y="418" type="line"/>
      <point x="507" y="418" type="line"/>
      <point x="507" y="304" type="line"/>
    </contour>
  </outline>
</glyph>
<glyph name="oslash" format="2">
  <advance width="603"/>
  <unicode hex="00F8"/>
  <outline>
    <contour>
      <point x="301" y="-8" type="curve" smooth="yes"/>
      <point x="278" y="-8"/>
      <point x="259" y="-7"/>
      <point x="240" y="-4" type="curve"/>
      <point x="195" y="-101" type="line"/>
      <point x="65" y="-101" type="line"/>
      <point x="132" y="40" type="line"/>
      <point x="59" y="93"/>
      <point x="35" y="178"/>
      <point x="35" y="266" type="curve" smooth="yes"/>
      <point x="35" y="432"/>
      <point x="133" y="538"/>
      <point x="301" y="538" type="curve" smooth="yes"/>
      <point x="324" y="538"/>
      <point x="343" y="536"/>
      <point x="363" y="533" type="curve"/>
      <point x="407" y="629" type="line"/>
      <point x="537" y="629" type="line"/>
      <point x="470" y="488" type="line"/>
      <point x="541" y="436"/>
      <point x="568" y="350"/>
      <point x="568" y="266" type="curve" smooth="yes"/>
      <point x="568" y="94"/>
      <point x="476" y="-8"/>
    </contour>
    <contour>
      <point x="200" y="166" type="curve"/>
      <point x="239" y="246"/>
      <point x="278" y="331"/>
      <point x="317" y="411" type="curve"/>
      <point x="310" y="412"/>
      <point x="306" y="412"/>
      <point x="301" y="412" type="curve" smooth="yes"/>
      <point x="213" y="412"/>
      <point x="174" y="347"/>
      <point x="174" y="265" type="curve" smooth="yes"/>
      <point x="174" y="225"/>
      <point x="183" y="192"/>
    </contour>
    <contour>
      <point x="403" y="359" type="curve"/>
      <point x="364" y="279"/>
      <point x="326" y="197"/>
      <point x="287" y="117" type="curve"/>
      <point x="301" y="117" type="line" smooth="yes"/>
      <point x="391" y="117"/>
      <point x="426" y="182"/>
      <point x="426" y="265" type="curve" smooth="yes"/>
      <point x="426" y="301"/>
      <point x="418" y="332"/>
    </contour>
  </outline>
</glyph>
<glyph name="thorn" format="2">
  <advance width="638"/>
  <unicode hex="00FE"/>
  <outline>
    <contour>
      <point x="56" y="708" type="line"/>
      <point x="197" y="708" type="line"/>
      <point x="197" y="457" type="line"/>
      <point x="239" y="512"/>
      <point x="299" y="538"/>
      <point x="369" y="538" type="curve" smooth="yes"/>
      <point x="531" y="539"/>
      <point x="603" y="416"/>
      <point x="603" y="269" type="curve" smooth="yes"/>
      <point x="603" y="120"/>
      <point x="532" y="-8"/>
      <point x="369" y="-8" type="curve" smooth="yes"/>
      <point x="303" y="-8"/>
      <point x="242" y="7"/>
      <point x="197" y="59" type="curve"/>
      <point x="197" y="-220" type="line"/>
      <point x="56" y="-220" type="line"/>
    </contour>
    <contour>
      <point x="330" y="412" type="curve" smooth="yes"/>
      <point x="248" y="412"/>
      <point x="197" y="345"/>
      <point x="197" y="267" type="curve" smooth="yes"/>
      <point x="197" y="181"/>
      <point x="244" y="117"/>
      <point x="332" y="117" type="curve" smooth="yes"/>
      <point x="421" y="117"/>
      <point x="462" y="182"/>
      <point x="462" y="265" type="curve" smooth="yes"/>
      <point x="462" y="348"/>
      <point x="418" y="412"/>
    </contour>
  </outline>
</glyph>
<glyph name="ydieresis" format="2">
  <advance width="623"/>
  <unicode hex="00FF"/>
  <outline>
    <contour>
      <point x="400" y="-82" type="curve" smooth="yes"/>
      <point x="427" y="-41"/>
      <point x="426" y="11"/>
      <point x="426" y="59" type="curve"/>
      <point x="387" y="10"/>
      <point x="329" y="-8"/>
      <point x="264" y="-8" type="curve" smooth="yes"/>
      <point x="188" y="-8"/>
      <point x="132" y="15"/>
      <point x="99" y="60" type="curve" smooth="yes"/>
      <point x="68" y="104"/>
      <point x="58" y="163"/>
      <point x="58" y="231" type="curve" smooth="yes"/>
      <point x="58" y="527" type="line"/>
      <point x="199" y="527" type="line"/>
      <point x="199" y="248" type="line" smooth="yes"/>
      <point x="199" y="212"/>
      <point x="204" y="177"/>
      <point x="223" y="153" type="curve" smooth="yes"/>
      <point x="241" y="130"/>
      <point x="268" y="117"/>
      <point x="310" y="117" type="curve" smooth="yes"/>
      <point x="350" y="117"/>
      <point x="387" y="133"/>
      <point x="407" y="169" type="curve" smooth="yes"/>
      <point x="424" y="200"/>
      <point x="426" y="233"/>
      <point x="426" y="273" type="curve" smooth="yes"/>
      <point x="426" y="527" type="line"/>
      <point x="568" y="527" type="line"/>
      <point x="568" y="94" type="line" smooth="yes"/>
      <point x="568" y="-3"/>
      <point x="571" y="-107"/>
      <point x="503" y="-186" type="curve" smooth="yes"/>
      <point x="456" y="-239"/>
      <point x="381" y="-273"/>
      <point x="276" y="-273" type="curve" smooth="yes"/>
      <point x="199" y="-273"/>
      <point x="120" y="-251"/>
      <point x="56" y="-210" type="curve"/>
      <point x="101" y="-90" type="line"/>
      <point x="136" y="-115"/>
      <point x="194" y="-141"/>
      <point x="273" y="-141" type="curve" smooth="yes"/>
      <point x="337" y="-141"/>
      <point x="376" y="-119"/>
    </contour>
    <contour>
      <point x="188" y="761" type="curve" smooth="yes"/>
      <point x="239" y="761"/>
      <point x="274" y="729"/>
      <point x="274" y="678" type="curve" smooth="yes"/>
      <point x="274" y="625"/>
      <point x="239" y="593"/>
      <point x="188" y="593" type="curve" smooth="yes"/>
      <point x="136" y="593"/>
      <point x="101" y="625"/>
      <point x="101" y="678" type="curve" smooth="yes"/>
      <point x="101" y="729"/>
      <point x="136" y="761"/>
    </contour>
    <contour>
      <point x="449" y="761" type="curve" smooth="yes"/>
      <point x="500" y="761"/>
      <point x="536" y="729"/>
      <point x="536" y="678" type="curve" smooth="yes"/>
      <point x="536" y="625"/>
      <point x="500" y="593"/>
      <point x="449" y="593" type="curve" smooth="yes"/>
      <point x="398" y="593"/>
      <point x="363" y="625"/>
      <point x="363" y="678" type="curve" smooth="yes"/>
      <point x="363" y="729"/>
      <point x="398" y="761"/>
    </contour>
  </outline>
</glyph>
<glyph name="Amacron" format="2">
  <advance width="708"/>
  <unicode hex="0100"/>
  <outline>
    <contour>
      <point x="251" y="263" type="line"/>
      <point x="457" y="263" type="line"/>
      <point x="355" y="555" type="line"/>
    </contour>
    <contour>
      <point x="209" y="135" type="line"/>
      <point x="158" y="0" type="line"/>
      <point x="0" y="0" type="line"/>
      <point x="274" y="708" type="line"/>
      <point x="438" y="708" type="line"/>
      <point x="708" y="0" type="line"/>
      <point x="549" y="0" type="line"/>
      <point x="500" y="135" type="line"/>
    </contour>
    <contour>
      <point x="540" y="919" type="line"/>
      <point x="540" y="805" type="line"/>
      <point x="183" y="805" type="line"/>
      <point x="183" y="919" type="line"/>
    </contour>
  </outline>
</glyph>
<glyph name="Abreve" format="2">
  <advance width="708"/>
  <unicode hex="0102"/>
  <outline>
    <contour>
      <point x="251" y="263" type="line"/>
      <point x="457" y="263" type="line"/>
      <point x="355" y="555" type="line"/>
    </contour>
    <contour>
      <point x="209" y="135" type="line"/>
      <point x="158" y="0" type="line"/>
      <point x="0" y="0" type="line"/>
      <point x="274" y="708" type="line"/>
      <point x="438" y="708" type="line"/>
      <point x="708" y="0" type="line"/>
      <point x="549" y="0" type="line"/>
      <point x="500" y="135" type="line"/>
    </contour>
    <contour>
      <point x="282" y="932" type="line"/>
      <point x="283" y="885"/>
      <point x="312" y="863"/>
      <point x="359" y="863" type="curve" smooth="yes"/>
      <point x="406" y="863"/>
      <point x="433" y="884"/>
      <point x="436" y="932" type="curve"/>
      <point x="546" y="932" type="line"/>
      <point x="543" y="818"/>
      <point x="467" y="770"/>
      <point x="359" y="770" type="curve" smooth="yes"/>
      <point x="251" y="770"/>
      <point x="172" y="816"/>
      <point x="172" y="932" type="curve"/>
    </contour>
  </outline>
</glyph>
<glyph name="abreve" format="2">
  <advance width="573"/>
  <unicode hex="0103"/>
  <outline>
    <contour>
      <point x="382" y="233" type="curve"/>
      <point x="349" y="233"/>
      <point x="314" y="233"/>
      <point x="279" y="233" type="curve" smooth="yes"/>
      <point x="235" y="233"/>
      <point x="179" y="218"/>
      <point x="179" y="166" type="curve" smooth="yes"/>
      <point x="179" y="124"/>
      <point x="216" y="102"/>
      <point x="258" y="101" type="curve" smooth="yes"/>
      <point x="297" y="101"/>
      <point x="333" y="114"/>
      <point x="357" y="142" type="curve" smooth="yes"/>
      <point x="374" y="162"/>
      <point x="382" y="188"/>
    </contour>
    <contour>
      <point x="387" y="65" type="line"/>
      <point x="347" y="12"/>
      <point x="290" y="-8"/>
      <point x="214" y="-8" type="curve" smooth="yes"/>
      <point x="165" y="-8"/>
      <point x="125" y="7"/>
      <point x="92" y="33" type="curve" smooth="yes"/>
      <point x="57" y="62"/>
      <point x="37" y="102"/>
      <point x="37" y="158" type="curve" smooth="yes"/>
      <point x="38" y="215"/>
      <point x="62" y="262"/>
      <point x="113" y="290" type="curve" smooth="yes"/>
      <point x="156" y="314"/>
      <point x="210" y="321"/>
      <point x="274" y="321" type="curve" smooth="yes"/>
      <point x="382" y="321" type="line"/>
      <point x="386" y="386"/>
      <point x="349" y="419"/>
      <point x="288" y="420" type="curve"/>
      <point x="247" y="420"/>
      <point x="200" y="410"/>
      <point x="192" y="368" type="curve"/>
      <point x="47" y="368" type="line"/>
      <point x="60" y="496"/>
      <point x="170" y="538"/>
      <point x="285" y="538" type="curve" smooth="yes"/>
      <point x="350" y="538"/>
      <point x="420" y="527"/>
      <point x="469" y="473" type="curve" smooth="yes"/>
      <point x="515" y="422"/>
      <point x="520" y="349"/>
      <point x="519" y="285" type="curve"/>
      <point x="519" y="0" type="line"/>
      <point x="390" y="0" type="line"/>
    </contour>
    <contour>
      <point x="220" y="751" type="line"/>
      <point x="221" y="704"/>
      <point x="250" y="682"/>
      <point x="297" y="682" type="curve" smooth="yes"/>
      <point x="344" y="682"/>
      <point x="371" y="703"/>
      <point x="374" y="751" type="curve"/>
      <point x="484" y="751" type="line"/>
      <point x="481" y="637"/>
      <point x="405" y="589"/>
      <point x="297" y="589" type="curve" smooth="yes"/>
      <point x="189" y="589"/>
      <point x="110" y="635"/>
      <point x="110" y="751" type="curve"/>
    </contour>
  </outline>
</glyph>
<glyph name="Aogonek" format="2">
  <advance width="708"/>
  <unicode hex="0104"/>
  <outline>
    <contour>
      <point x="251" y="263" type="line"/>
      <point x="457" y="263" type="line"/>
      <point x="355" y="555" type="line"/>
    </contour>
    <contour>
      <point x="209" y="135" type="line"/>
      <point x="158" y="0" type="line"/>
      <point x="0" y="0" type="line"/>
      <point x="274" y="708" type="line"/>
      <point x="438" y="708" type="line"/>
      <point x="708" y="0" type="line"/>
      <point x="671" y="0" type="line"/>
      <point x="665" y="-3"/>
      <point x="659" y="-6"/>
      <point x="654" y="-10" type="curve"/>
      <point x="631" y="-27"/>
      <point x="608" y="-51"/>
      <point x="608" y="-79" type="curve" smooth="yes"/>
      <point x="608" y="-112"/>
      <point x="631" y="-132"/>
      <point x="662" y="-132" type="curve" smooth="yes"/>
      <point x="677" y="-132"/>
      <point x="692" y="-129"/>
      <point x="705" y="-122" type="curve"/>
      <point x="720" y="-201" type="line"/>
      <point x="696" y="-216"/>
      <point x="669" y="-219"/>
      <point x="641" y="-219" type="curve" smooth="yes"/>
      <point x="572" y="-219"/>
      <point x="515" y="-179"/>
      <point x="515" y="-104" type="curve" smooth="yes"/>
      <point x="515" y="-77"/>
      <point x="523" y="-53"/>
      <point x="540" y="-32" type="curve" smooth="yes"/>
      <point x="550" y="-19"/>
      <point x="562" y="-8"/>
      <point x="575" y="0" type="curve"/>
      <point x="549" y="0" type="line"/>
      <point x="500" y="135" type="line"/>
    </contour>
  </outline>
</glyph>
<glyph name="aogonek" format="2">
  <advance width="573"/>
  <unicode hex="0105"/>
  <outline>
    <contour>
      <point x="382" y="233" type="curve"/>
      <point x="349" y="233"/>
      <point x="314" y="233"/>
      <point x="279" y="233" type="curve" smooth="yes"/>
      <point x="235" y="233"/>
      <point x="179" y="218"/>
      <point x="179" y="166" type="curve" smooth="yes"/>
      <point x="179" y="124"/>
      <point x="216" y="102"/>
      <point x="258" y="101" type="curve" smooth="yes"/>
      <point x="297" y="101"/>
      <point x="333" y="114"/>
      <point x="357" y="142" type="curve" smooth="yes"/>
      <point x="374" y="162"/>
      <point x="382" y="188"/>
    </contour>
    <contour>
      <point x="387" y="65" type="line"/>
      <point x="347" y="12"/>
      <point x="290" y="-8"/>
      <point x="214" y="-8" type="curve" smooth="yes"/>
      <point x="167" y="-8"/>
      <point x="125" y="7"/>
      <point x="92" y="33" type="curve" smooth="yes"/>
      <point x="57" y="62"/>
      <point x="37" y="102"/>
      <point x="37" y="158" type="curve" smooth="yes"/>
      <point x="38" y="215"/>
      <point x="62" y="262"/>
      <point x="113" y="290" type="curve" smooth="yes"/>
      <point x="156" y="314"/>
      <point x="210" y="321"/>
      <point x="274" y="321" type="curve" smooth="yes"/>
      <point x="382" y="321" type="line"/>
      <point x="386" y="386"/>
      <point x="349" y="419"/>
      <point x="288" y="420" type="curve"/>
      <point x="247" y="420"/>
      <point x="200" y="410"/>
      <point x="192" y="368" type="curve"/>
      <point x="47" y="368" type="line"/>
      <point x="60" y="496"/>
      <point x="170" y="538"/>
      <point x="285" y="538" type="curve" smooth="yes"/>
      <point x="350" y="538"/>
      <point x="420" y="527"/>
      <point x="469" y="473" type="curve" smooth="yes"/>
      <point x="515" y="422"/>
      <point x="520" y="349"/>
      <point x="519" y="285" type="curve"/>
      <point x="519" y="0" type="line"/>
      <point x="500" y="0" type="line"/>
      <point x="494" y="-3"/>
      <point x="488" y="-6"/>
      <point x="483" y="-10" type="curve"/>
      <point x="460" y="-27"/>
      <point x="437" y="-51"/>
      <point x="437" y="-79" type="curve" smooth="yes"/>
      <point x="437" y="-112"/>
      <point x="460" y="-132"/>
      <point x="491" y="-132" type="curve" smooth="yes"/>
      <point x="506" y="-132"/>
      <point x="521" y="-129"/>
      <point x="534" y="-122" type="curve"/>
      <point x="549" y="-201" type="line"/>
      <point x="525" y="-216"/>
      <point x="498" y="-219"/>
      <point x="470" y="-219" type="curve" smooth="yes"/>
      <point x="401" y="-219"/>
      <point x="344" y="-179"/>
      <point x="344" y="-104" type="curve" smooth="yes"/>
      <point x="344" y="-77"/>
      <point x="352" y="-53"/>
      <point x="369" y="-32" type="curve" smooth="yes"/>
      <point x="379" y="-19"/>
      <point x="391" y="-8"/>
      <point x="404" y="0" type="curve"/>
      <point x="390" y="0" type="line"/>
    </contour>
  </outline>
</glyph>
<glyph name="Cacute" format="2">
  <advance width="706"/>
  <unicode hex="0106"/>
  <outline>
    <contour>
      <point x="185" y="356" type="curve" smooth="yes"/>
      <point x="185" y="236"/>
      <point x="244" y="124"/>
      <point x="379" y="124" type="curve" smooth="yes"/>
      <point x="464" y="124"/>
      <point x="523" y="164"/>
      <point x="536" y="232" type="curve"/>
      <point x="676" y="232" type="line"/>
      <point x="663" y="75"/>
      <point x="527" y="-6"/>
      <point x="377" y="-6" type="curve" smooth="yes"/>
      <point x="156" y="-6"/>
      <point x="36" y="145"/>
      <point x="36" y="355" type="curve" smooth="yes"/>
      <point x="36" y="561"/>
      <point x="159" y="717"/>
      <point x="379" y="717" type="curve" smooth="yes"/>
      <point x="533" y="717"/>
      <point x="660" y="645"/>
      <point x="676" y="477" type="curve"/>
      <point x="536" y="477" type="line"/>
      <point x="521" y="545"/>
      <point x="464" y="588"/>
      <point x="379" y="588" type="curve" smooth="yes"/>
      <point x="244" y="588"/>
      <point x="185" y="481"/>
    </contour>
    <contour>
      <point x="403" y="950" type="line"/>
      <point x="543" y="950" type="line"/>
      <point x="407" y="780" type="line"/>
      <point x="295" y="780" type="line"/>
    </contour>
  </outline>
</glyph>
<glyph name="ccircumflex" format="2">
  <advance width="567"/>
  <unicode hex="0109"/>
  <outline>
    <contour>
      <point x="297" y="117" type="curve" smooth="yes"/>
      <point x="350" y="117"/>
      <point x="382" y="147"/>
      <point x="389" y="179" type="curve"/>
      <point x="537" y="179" type="line"/>
      <point x="519" y="44"/>
      <point x="413" y="-8"/>
      <point x="295" y="-8" type="curve" smooth="yes"/>
      <point x="121" y="-8"/>
      <point x="35" y="95"/>
      <point x="35" y="264" type="curve" smooth="yes"/>
      <point x="35" y="429"/>
      <point x="132" y="538"/>
      <point x="299" y="538" type="curve" smooth="yes"/>
      <point x="423" y="538"/>
      <point x="518" y="481"/>
      <point x="537" y="350" type="curve"/>
      <point x="389" y="350" type="line"/>
      <point x="382" y="382"/>
      <point x="348" y="412"/>
      <point x="296" y="412" type="curve" smooth="yes"/>
      <point x="205" y="412"/>
      <point x="175" y="342"/>
      <point x="175" y="262" type="curve" smooth="yes"/>
      <point x="175" y="177"/>
      <point x="209" y="117"/>
    </contour>
    <contour>
      <point x="494" y="599" type="line"/>
      <point x="368" y="599" type="line"/>
      <point x="298" y="685" type="line"/>
      <point x="230" y="599" type="line"/>
      <point x="105" y="599" type="line"/>
      <point x="254" y="769" type="line"/>
      <point x="342" y="769" type="line"/>
    </contour>
  </outline>
</glyph>
<glyph name="Cdotaccent" format="2">
  <advance width="706"/>
  <unicode hex="010A"/>
  <outline>
    <contour>
      <point x="185" y="356" type="curve" smooth="yes"/>
      <point x="185" y="236"/>
      <point x="244" y="124"/>
      <point x="379" y="124" type="curve" smooth="yes"/>
      <point x="464" y="124"/>
      <point x="523" y="164"/>
      <point x="536" y="232" type="curve"/>
      <point x="676" y="232" type="line"/>
      <point x="663" y="75"/>
      <point x="527" y="-6"/>
      <point x="377" y="-6" type="curve" smooth="yes"/>
      <point x="156" y="-6"/>
      <point x="36" y="145"/>
      <point x="36" y="355" type="curve" smooth="yes"/>
      <point x="36" y="561"/>
      <point x="159" y="717"/>
      <point x="379" y="717" type="curve" smooth="yes"/>
      <point x="533" y="717"/>
      <point x="660" y="645"/>
      <point x="676" y="477" type="curve"/>
      <point x="536" y="477" type="line"/>
      <point x="521" y="545"/>
      <point x="464" y="588"/>
      <point x="379" y="588" type="curve" smooth="yes"/>
      <point x="244" y="588"/>
      <point x="185" y="481"/>
    </contour>
    <contour>
      <point x="387" y="941" type="curve"/>
      <point x="434" y="942"/>
      <point x="469" y="908"/>
      <point x="469" y="861" type="curve" smooth="yes"/>
      <point x="469" y="812"/>
      <point x="435" y="780"/>
      <point x="387" y="780" type="curve" smooth="yes"/>
      <point x="338" y="780"/>
      <point x="305" y="812"/>
      <point x="305" y="861" type="curve" smooth="yes"/>
      <point x="305" y="908"/>
      <point x="340" y="941"/>
    </contour>
  </outline>
</glyph>
<glyph name="Ccaron" format="2">
  <advance width="706"/>
  <unicode hex="010C"/>
  <outline>
    <contour>
      <point x="185" y="356" type="curve" smooth="yes"/>
      <point x="185" y="236"/>
      <point x="244" y="124"/>
      <point x="379" y="124" type="curve" smooth="yes"/>
      <point x="464" y="124"/>
      <point x="523" y="164"/>
      <point x="536" y="232" type="curve"/>
      <point x="676" y="232" type="line"/>
      <point x="663" y="75"/>
      <point x="527" y="-6"/>
      <point x="377" y="-6" type="curve" smooth="yes"/>
      <point x="156" y="-6"/>
      <point x="36" y="145"/>
      <point x="36" y="355" type="curve" smooth="yes"/>
      <point x="36" y="561"/>
      <point x="159" y="717"/>
      <point x="379" y="717" type="curve" smooth="yes"/>
      <point x="533" y="717"/>
      <point x="660" y="645"/>
      <point x="676" y="477" type="curve"/>
      <point x="536" y="477" type="line"/>
      <point x="521" y="545"/>
      <point x="464" y="588"/>
      <point x="379" y="588" type="curve" smooth="yes"/>
      <point x="244" y="588"/>
      <point x="185" y="481"/>
    </contour>
    <contour>
      <point x="183" y="950" type="line"/>
      <point x="309" y="950" type="line"/>
      <point x="378" y="864" type="line"/>
      <point x="446" y="950" type="line"/>
      <point x="572" y="950" type="line"/>
      <point x="422" y="780" type="line"/>
      <point x="334" y="780" type="line"/>
    </contour>
  </outline>
</glyph>
<glyph name="ccaron" format="2">
  <advance width="567"/>
  <unicode hex="010D"/>
  <outline>
    <contour>
      <point x="297" y="117" type="curve" smooth="yes"/>
      <point x="350" y="117"/>
      <point x="382" y="147"/>
      <point x="389" y="179" type="curve"/>
      <point x="537" y="179" type="line"/>
      <point x="519" y="44"/>
      <point x="413" y="-8"/>
      <point x="295" y="-8" type="curve" smooth="yes"/>
      <point x="121" y="-8"/>
      <point x="35" y="95"/>
      <point x="35" y="264" type="curve" smooth="yes"/>
      <point x="35" y="429"/>
      <point x="132" y="538"/>
      <point x="299" y="538" type="curve" smooth="yes"/>
      <point x="423" y="538"/>
      <point x="518" y="481"/>
      <point x="537" y="350" type="curve"/>
      <point x="389" y="350" type="line"/>
      <point x="382" y="382"/>
      <point x="348" y="412"/>
      <point x="296" y="412" type="curve" smooth="yes"/>
      <point x="205" y="412"/>
      <point x="175" y="342"/>
      <point x="175" y="262" type="curve" smooth="yes"/>
      <point x="175" y="177"/>
      <point x="209" y="117"/>
    </contour>
    <contour>
      <point x="104" y="769" type="line"/>
      <point x="230" y="769" type="line"/>
      <point x="299" y="683" type="line"/>
      <point x="367" y="769" type="line"/>
      <point x="493" y="769" type="line"/>
      <point x="343" y="599" type="line"/>
      <point x="255" y="599" type="line"/>
    </contour>
  </outline>
</glyph>
<glyph name="dcaron" format="2">
  <advance width="783"/>
  <unicode hex="010F"/>
  <outline>
    <contour>
      <point x="443" y="59" type="line"/>
      <point x="400" y="14"/>
      <point x="351" y="-6"/>
      <point x="276" y="-8" type="curve" smooth="yes"/>
      <point x="207" y="-9"/>
      <point x="147" y="14"/>
      <point x="104" y="58" type="curve" smooth="yes"/>
      <point x="53" y="111"/>
      <point x="35" y="186"/>
      <point x="35" y="259" type="curve" smooth="yes"/>
      <point x="35" y="345"/>
      <point x="59" y="414"/>
      <point x="107" y="466" type="curve" smooth="yes"/>
      <point x="150" y="511"/>
      <point x="215" y="538"/>
      <point x="296" y="538" type="curve" smooth="yes"/>
      <point x="357" y="538"/>
      <point x="406" y="520"/>
      <point x="441" y="485" type="curve"/>
      <point x="441" y="708" type="line"/>
      <point x="582" y="708" type="line"/>
      <point x="582" y="0" type="line"/>
      <point x="451" y="0" type="line"/>
    </contour>
    <contour>
      <point x="309" y="117" type="curve" smooth="yes"/>
      <point x="394" y="118"/>
      <point x="440" y="182"/>
      <point x="440" y="263" type="curve" smooth="yes"/>
      <point x="440" y="351"/>
      <point x="394" y="411"/>
      <point x="307" y="412" type="curve"/>
      <point x="219" y="412"/>
      <point x="176" y="347"/>
      <point x="176" y="265" type="curve" smooth="yes"/>
      <point x="176" y="179"/>
      <point x="219" y="115"/>
    </contour>
    <contour>
      <point x="692" y="572" type="curve"/>
      <point x="651" y="575"/>
      <point x="625" y="602"/>
      <point x="625" y="645" type="curve" smooth="yes"/>
      <point x="625" y="692"/>
      <point x="657" y="719"/>
      <point x="704" y="719" type="curve" smooth="yes"/>
      <point x="765" y="719"/>
      <point x="788" y="669"/>
      <point x="788" y="617" type="curve" smooth="yes"/>
      <point x="788" y="540"/>
      <point x="725" y="456"/>
      <point x="653" y="432" type="curve"/>
      <point x="622" y="474" type="line"/>
      <point x="657" y="499"/>
      <point x="684" y="531"/>
    </contour>
  </outline>
</glyph>
<glyph name="Dcroat" format="2">
  <advance width="728"/>
  <unicode hex="0110"/>
  <outline>
    <contour>
      <point x="-5" y="296" type="line"/>
      <point x="-5" y="411" type="line"/>
      <point x="75" y="411" type="line"/>
      <point x="75" y="708" type="line"/>
      <point x="336" y="708" type="line" smooth="yes"/>
      <point x="561" y="708"/>
      <point x="691" y="588"/>
      <point x="691" y="353" type="curve" smooth="yes"/>
      <point x="691" y="125"/>
      <point x="574" y="0"/>
      <point x="343" y="0" type="curve" smooth="yes"/>
      <point x="75" y="0" type="line"/>
      <point x="75" y="296" type="line"/>
    </contour>
    <contour>
      <point x="220" y="128" type="line"/>
      <point x="344" y="128" type="line" smooth="yes"/>
      <point x="483" y="128"/>
      <point x="542" y="209"/>
      <point x="542" y="353" type="curve" smooth="yes"/>
      <point x="542" y="494"/>
      <point x="485" y="579"/>
      <point x="336" y="579" type="curve" smooth="yes"/>
      <point x="220" y="579" type="line"/>
      <point x="220" y="411" type="line"/>
      <point x="352" y="411" type="line"/>
      <point x="352" y="296" type="line"/>
      <point x="220" y="296" type="line"/>
    </contour>
  </outline>
</glyph>
<glyph name="dcroat" format="2">
  <advance width="637"/>
  <unicode hex="0111"/>
  <outline>
    <contour>
      <point x="309" y="117" type="curve" smooth="yes"/>
      <point x="394" y="118"/>
      <point x="440" y="182"/>
      <point x="440" y="263" type="curve" smooth="yes"/>
      <point x="440" y="351"/>
      <point x="394" y="411"/>
      <point x="307" y="412" type="curve"/>
      <point x="219" y="412"/>
      <point x="176" y="347"/>
      <point x="176" y="265" type="curve" smooth="yes"/>
      <point x="176" y="179"/>
      <point x="219" y="115"/>
    </contour>
    <contour>
      <point x="650" y="558" type="line"/>
      <point x="582" y="558" type="line"/>
      <point x="582" y="0" type="line"/>
      <point x="451" y="0" type="line"/>
      <point x="443" y="59" type="line"/>
      <point x="400" y="14"/>
      <point x="351" y="-6"/>
      <point x="276" y="-8" type="curve" smooth="yes"/>
      <point x="207" y="-9"/>
      <point x="147" y="14"/>
      <point x="104" y="58" type="curve" smooth="yes"/>
      <point x="53" y="111"/>
      <point x="35" y="186"/>
      <point x="35" y="259" type="curve" smooth="yes"/>
      <point x="35" y="345"/>
      <point x="59" y="414"/>
      <point x="106" y="465" type="curve" smooth="yes"/>
      <point x="150" y="512"/>
      <point x="215" y="538"/>
      <point x="296" y="538" type="curve" smooth="yes"/>
      <point x="357" y="538"/>
      <point x="406" y="520"/>
      <point x="441" y="483" type="curve"/>
      <point x="441" y="558" type="line"/>
      <point x="348" y="558" type="line"/>
      <point x="348" y="649" type="line"/>
      <point x="441" y="649" type="line"/>
      <point x="441" y="708" type="line"/>
      <point x="582" y="708" type="line"/>
      <point x="582" y="649" type="line"/>
      <point x="650" y="649" type="line"/>
    </contour>
  </outline>
</glyph>
<glyph name="Emacron" format="2">
  <advance width="617"/>
  <unicode hex="0112"/>
  <outline>
    <contour>
      <point x="581" y="708" type="line"/>
      <point x="581" y="579" type="line"/>
      <point x="220" y="579" type="line"/>
      <point x="220" y="414" type="line"/>
      <point x="535" y="414" type="line"/>
      <point x="535" y="285" type="line"/>
      <point x="220" y="285" type="line"/>
      <point x="220" y="128" type="line"/>
      <point x="581" y="128" type="line"/>
      <point x="581" y="0" type="line"/>
      <point x="75" y="0" type="line"/>
      <point x="75" y="708" type="line"/>
    </contour>
    <contour>
      <point x="508" y="919" type="line"/>
      <point x="508" y="805" type="line"/>
      <point x="151" y="805" type="line"/>
      <point x="151" y="919" type="line"/>
    </contour>
  </outline>
</glyph>
<glyph name="Ebreve" format="2">
  <advance width="617"/>
  <unicode hex="0114"/>
  <outline>
    <contour>
      <point x="581" y="708" type="line"/>
      <point x="581" y="579" type="line"/>
      <point x="220" y="579" type="line"/>
      <point x="220" y="414" type="line"/>
      <point x="535" y="414" type="line"/>
      <point x="535" y="285" type="line"/>
      <point x="220" y="285" type="line"/>
      <point x="220" y="128" type="line"/>
      <point x="581" y="128" type="line"/>
      <point x="581" y="0" type="line"/>
      <point x="75" y="0" type="line"/>
      <point x="75" y="708" type="line"/>
    </contour>
    <contour>
      <point x="257" y="932" type="line"/>
      <point x="258" y="885"/>
      <point x="287" y="863"/>
      <point x="334" y="863" type="curve" smooth="yes"/>
      <point x="381" y="863"/>
      <point x="408" y="884"/>
      <point x="411" y="932" type="curve"/>
      <point x="521" y="932" type="line"/>
      <point x="518" y="818"/>
      <point x="442" y="770"/>
      <point x="334" y="770" type="curve" smooth="yes"/>
      <point x="226" y="770"/>
      <point x="147" y="816"/>
      <point x="147" y="932" type="curve"/>
    </contour>
  </outline>
</glyph>
<glyph name="ebreve" format="2">
  <advance width="577"/>
  <unicode hex="0115"/>
  <outline>
    <contour>
      <point x="296" y="107" type="curve" smooth="yes"/>
      <point x="336" y="107"/>
      <point x="364" y="119"/>
      <point x="383" y="148" type="curve"/>
      <point x="531" y="148" type="line"/>
      <point x="501" y="37"/>
      <point x="406" y="-8"/>
      <point x="294" y="-8" type="curve" smooth="yes"/>
      <point x="123" y="-8"/>
      <point x="35" y="93"/>
      <point x="35" y="266" type="curve" smooth="yes"/>
      <point x="35" y="424"/>
      <point x="128" y="538"/>
      <point x="290" y="538" type="curve" smooth="yes"/>
      <point x="481" y="538"/>
      <point x="565" y="395"/>
      <point x="536" y="219" type="curve"/>
      <point x="176" y="219" type="line"/>
      <point x="181" y="156"/>
      <point x="219" y="107"/>
    </contour>
    <contour>
      <point x="405" y="316" type="line"/>
      <point x="405" y="385"/>
      <point x="354" y="417"/>
      <point x="294" y="417" type="curve"/>
      <point x="223" y="416"/>
      <point x="184" y="376"/>
      <point x="177" y="316" type="curve"/>
    </contour>
    <contour>
      <point x="221" y="751" type="line"/>
      <point x="222" y="704"/>
      <point x="251" y="682"/>
      <point x="298" y="682" type="curve" smooth="yes"/>
      <point x="345" y="682"/>
      <point x="372" y="703"/>
      <point x="375" y="751" type="curve"/>
      <point x="485" y="751" type="line"/>
      <point x="482" y="637"/>
      <point x="406" y="589"/>
      <point x="298" y="589" type="curve" smooth="yes"/>
      <point x="190" y="589"/>
      <point x="111" y="635"/>
      <point x="111" y="751" type="curve"/>
    </contour>
  </outline>
</glyph>
<glyph name="Edotaccent" format="2">
  <advance width="617"/>
  <unicode hex="0116"/>
  <outline>
    <contour>
      <point x="581" y="708" type="line"/>
      <point x="581" y="579" type="line"/>
      <point x="220" y="579" type="line"/>
      <point x="220" y="414" type="line"/>
      <point x="535" y="414" type="line"/>
      <point x="535" y="285" type="line"/>
      <point x="220" y="285" type="line"/>
      <point x="220" y="128" type="line"/>
      <point x="581" y="128" type="line"/>
      <point x="581" y="0" type="line"/>
      <point x="75" y="0" type="line"/>
      <point x="75" y="708" type="line"/>
    </contour>
    <contour>
      <point x="334" y="941" type="curve" smooth="yes"/>
      <point x="381" y="942"/>
      <point x="416" y="908"/>
      <point x="416" y="861" type="curve" smooth="yes"/>
      <point x="416" y="812"/>
      <point x="382" y="780"/>
      <point x="334" y="780" type="curve" smooth="yes"/>
      <point x="285" y="780"/>
      <point x="252" y="812"/>
      <point x="252" y="861" type="curve" smooth="yes"/>
      <point x="252" y="908"/>
      <point x="287" y="941"/>
    </contour>
  </outline>
</glyph>
<glyph name="edotaccent" format="2">
  <advance width="577"/>
  <unicode hex="0117"/>
  <outline>
    <contour>
      <point x="296" y="107" type="curve" smooth="yes"/>
      <point x="336" y="107"/>
      <point x="364" y="119"/>
      <point x="383" y="148" type="curve"/>
      <point x="531" y="148" type="line"/>
      <point x="501" y="37"/>
      <point x="406" y="-8"/>
      <point x="294" y="-8" type="curve" smooth="yes"/>
      <point x="123" y="-8"/>
      <point x="35" y="93"/>
      <point x="35" y="266" type="curve" smooth="yes"/>
      <point x="35" y="424"/>
      <point x="128" y="538"/>
      <point x="290" y="538" type="curve" smooth="yes"/>
      <point x="481" y="538"/>
      <point x="565" y="395"/>
      <point x="536" y="219" type="curve"/>
      <point x="176" y="219" type="line"/>
      <point x="181" y="156"/>
      <point x="219" y="107"/>
    </contour>
    <contour>
      <point x="405" y="316" type="line"/>
      <point x="405" y="385"/>
      <point x="354" y="417"/>
      <point x="294" y="417" type="curve"/>
      <point x="223" y="416"/>
      <point x="184" y="376"/>
      <point x="177" y="316" type="curve"/>
    </contour>
    <contour>
      <point x="299" y="760" type="curve" smooth="yes"/>
      <point x="346" y="761"/>
      <point x="381" y="727"/>
      <point x="381" y="680" type="curve" smooth="yes"/>
      <point x="381" y="631"/>
      <point x="347" y="599"/>
      <point x="299" y="599" type="curve" smooth="yes"/>
      <point x="250" y="599"/>
      <point x="217" y="631"/>
      <point x="217" y="680" type="curve" smooth="yes"/>
      <point x="217" y="727"/>
      <point x="252" y="760"/>
    </contour>
  </outline>
</glyph>
<glyph name="Eogonek" format="2">
  <advance width="617"/>
  <unicode hex="0118"/>
  <outline>
    <contour>
      <point x="581" y="708" type="line"/>
      <point x="581" y="579" type="line"/>
      <point x="220" y="579" type="line"/>
      <point x="220" y="414" type="line"/>
      <point x="535" y="414" type="line"/>
      <point x="535" y="285" type="line"/>
      <point x="220" y="285" type="line"/>
      <point x="220" y="128" type="line"/>
      <point x="581" y="128" type="line"/>
      <point x="581" y="0" type="line"/>
      <point x="395" y="0" type="line"/>
      <point x="389" y="-3"/>
      <point x="383" y="-6"/>
      <point x="378" y="-10" type="curve" smooth="yes"/>
      <point x="355" y="-27"/>
      <point x="332" y="-51"/>
      <point x="332" y="-79" type="curve" smooth="yes"/>
      <point x="332" y="-112"/>
      <point x="355" y="-132"/>
      <point x="386" y="-132" type="curve" smooth="yes"/>
      <point x="401" y="-132"/>
      <point x="416" y="-129"/>
      <point x="429" y="-122" type="curve"/>
      <point x="444" y="-201" type="line"/>
      <point x="420" y="-216"/>
      <point x="393" y="-219"/>
      <point x="365" y="-219" type="curve" smooth="yes"/>
      <point x="296" y="-219"/>
      <point x="239" y="-179"/>
      <point x="239" y="-104" type="curve" smooth="yes"/>
      <point x="239" y="-61"/>
      <point x="263" y="-22"/>
      <point x="299" y="0" type="curve"/>
      <point x="75" y="0" type="line"/>
      <point x="75" y="708" type="line"/>
    </contour>
  </outline>
</glyph>
<glyph name="eogonek" format="2">
  <advance width="577"/>
  <unicode hex="0119"/>
  <outline>
    <contour>
      <point x="405" y="316" type="line"/>
      <point x="405" y="385"/>
      <point x="354" y="417"/>
      <point x="294" y="417" type="curve" smooth="yes"/>
      <point x="223" y="416"/>
      <point x="184" y="376"/>
      <point x="177" y="316" type="curve"/>
    </contour>
    <contour>
      <point x="296" y="107" type="curve" smooth="yes"/>
      <point x="336" y="107"/>
      <point x="364" y="119"/>
      <point x="383" y="148" type="curve"/>
      <point x="531" y="148" type="line"/>
      <point x="507" y="57"/>
      <point x="432" y="4"/>
      <point x="342" y="-5" type="curve"/>
      <point x="324" y="-18"/>
      <point x="289" y="-41"/>
      <point x="289" y="-79" type="curve" smooth="yes"/>
      <point x="289" y="-112"/>
      <point x="312" y="-132"/>
      <point x="343" y="-132" type="curve" smooth="yes"/>
      <point x="358" y="-132"/>
      <point x="373" y="-129"/>
      <point x="386" y="-122" type="curve"/>
      <point x="401" y="-201" type="line"/>
      <point x="377" y="-216"/>
      <point x="350" y="-219"/>
      <point x="322" y="-219" type="curve" smooth="yes"/>
      <point x="253" y="-219"/>
      <point x="196" y="-179"/>
      <point x="196" y="-104" type="curve" smooth="yes"/>
      <point x="196" y="-62"/>
      <point x="216" y="-30"/>
      <point x="248" y="-5" type="curve"/>
      <point x="185" y="2"/>
      <point x="135" y="25"/>
      <point x="100" y="64" type="curve" smooth="yes"/>
      <point x="57" y="112"/>
      <point x="35" y="179"/>
      <point x="35" y="266" type="curve" smooth="yes"/>
      <point x="35" y="424"/>
      <point x="128" y="538"/>
      <point x="290" y="538" type="curve" smooth="yes"/>
      <point x="481" y="538"/>
      <point x="565" y="395"/>
      <point x="536" y="219" type="curve"/>
      <point x="176" y="219" type="line"/>
      <point x="181" y="156"/>
      <point x="219" y="107"/>
    </contour>
  </outline>
</glyph>
<glyph name="Ecaron" format="2">
  <advance width="617"/>
  <unicode hex="011A"/>
  <outline>
    <contour>
      <point x="581" y="708" type="line"/>
      <point x="581" y="579" type="line"/>
      <point x="220" y="579" type="line"/>
      <point x="220" y="414" type="line"/>
      <point x="535" y="414" type="line"/>
      <point x="535" y="285" type="line"/>
      <point x="220" y="285" type="line"/>
      <point x="220" y="128" type="line"/>
      <point x="581" y="128" type="line"/>
      <point x="581" y="0" type="line"/>
      <point x="75" y="0" type="line"/>
      <point x="75" y="708" type="line"/>
    </contour>
    <contour>
      <point x="138" y="950" type="line"/>
      <point x="264" y="950" type="line"/>
      <point x="333" y="864" type="line"/>
      <point x="401" y="950" type="line"/>
      <point x="527" y="950" type="line"/>
      <point x="377" y="780" type="line"/>
      <point x="289" y="780" type="line"/>
    </contour>
  </outline>
</glyph>
